{
.appVersion = "1356";
DisplayStrings = (
"/ij",
"/circumflexcomb.i i",
">/lozenge",
"ÞtEach/acutecomb.i í",
"/acutecomb.i/gravecomb.i ì/ihookabove",
"/circumflexcomb.i/caroncomb.i/icaron",
"z/istroke",
"HHHHHH\012OOOOOO\012HAHBHCHDHEHFHGHHIHJHKHLHMHNHOHPHQHRHHSHHTzHUtHVHWHXHYHZH",
"i/idotless í/ibreve/icaron îï/idotaccent/idotbelow/acutecomb.i/gravecomb.i ì/ihookabove/ij/imacron/iogonek/istroke/itilde j",
"i/dieresiscomb/dotaccentcomb/gravecomb/acutecomb/hungarumlautcomb/circumflexcomb Â/Acircumflexacute/Acircumflexdotbelow/Acircumflexgrave/Acircumflexhookabove/Acircumflextilde/Ccircumflex Ê/Ecircumflexacute/Ecircumflexdotbelow/Ecircumflexgrave/Ecircumflexhookabove/Ecircumflextilde/Gcircumflex/Hcircumflex Ô/Ocircumflexacute/Ocircumflexdotbelow/Ocircumflexgrave/Ocircumflexhookabove/Ocircumflextilde/Scircumflex Û/Wcircumflex/Ycircumflex â/acircumflexacute/acircumflexdotbelow/acircumflexgrave/acircumflexhookabove/acircumflextilde/ccircumflex ê/ecircumflexacute/ecircumflexdotbelow/ecircumflexgrave/ecircumflexhookabove/ecircumflextilde/gcircumflex/hcircumflex ô/ocircumflexacute/ocircumflexdotbelow/ocircumflexgrave/ocircumflexhookabove/ocircumflextilde s/acutecomb/sacute/scaron s/scedilla/scircumflex/scommaaccent/sdotbelow/scircumflex ûw/wcircumflex y/ycircumflex/circumflexbelowcomb/caroncomb/brevecomb/ringcomb/tildecomb/macroncomb/hookabovecomb/breveinvertedcomb/commaturnedabovecomb",
"HHHHOOOOOO\012000102030405060708090\012101112131415161718191\012202122232425262728292\012303132333435_O/emdash/endash n-nzHEFOHZHCO363738393\012404142434445464748494\012505152535455565758595\012606162636465666768696\012707172737475767778797\012808182838485868788898\012909192939495969798999\012",
"HHHH/Placeholder HHHI\012OOOO/Placeholder OOOO\0120000/Placeholder 0000nnnn/Placeholder nnnn\012oooo/Placeholder ooo\0120n/one.osf t×-tz»o220845d/obreve/schwa/Zcaron OnO/Ncaron a",
"z/eng",
"/product",
"O§O",
"/summation",
"/emptyset",
z
);
classes = (
{
automatic = 1;

glyphs = (
{
color = 6;
glyphname = A;
lastChange = "2021-04-23 08:39:54 +0000";
layers = (
{
anchors = (
{
name = bottom;
position = "{273, 0}";
},
{
name = center;
position = "{270, 340}";
},
{
name = ogonek;
position = "{585, 0}";
},
{
name = top;
position = "{313, 680}";
},
{
name = topleft;
position = "{119, 680}";
}
);
hints = (
{
horizontal = 1;
place = "{0, 228}";
type = Stem;
},
{
horizontal = 1;
place = "{690, -20}";
target = down;
type = TopGhost;
},
{
horizontal = 1;
place = "{196, 32}";
type = Stem;
}
);
layerId = "1E8F490F-00FE-4BD6-A503-902369003CC3";
paths = (
{
closed = 1;
nodes = (
"173 0 LINE",
"173 16 LINE",
"162 16 LINE SMOOTH",
"118 16 OFFCURVE",
"101 53 OFFCURVE",
"129 143 CURVE SMOOTH",
"248 524 LINE",
"233 524 LINE",
"328 127 LINE SMOOTH",
"349 39 OFFCURVE",
"341 16 OFFCURVE",
"292 16 CURVE SMOOTH",
"281 16 LINE",
"281 0 LINE",
"622 0 LINE",
"622 16 LINE",
"578 16 OFFCURVE",
"567 35 OFFCURVE",
"556 77 CURVE SMOOTH",
"387 702 LINE",
"368 702 LINE",
"345 626 OFFCURVE",
"293 591 OFFCURVE",
"239 577 CURVE",
"107 177 LINE SMOOTH",
"57 25 OFFCURVE",
"33 16 OFFCURVE",
"-3 16 CURVE SMOOTH",
"-8 16 LINE",
"-8 0 LINE"
);
},
{
closed = 1;
nodes = (
"322 196 LINE",
"316 228 LINE",
"144 228 LINE",
"135 196 LINE"
);
}
);
width = 614;
},
{
anchors = (
{
name = bottom;
position = "{268, 0}";
},
{
name = center;
position = "{265, 340}";
},
{
name = ogonek;
position = "{560, 0}";
},
{
name = top;
position = "{288, 680}";
},
{
name = topleft;
position = "{94, 680}";
}
);
hints = (
{
horizontal = 1;
place = "{8, 21}";
target = up;
type = BottomGhost;
},
{
horizontal = 1;
place = "{698, -20}";
target = down;
type = TopGhost;
}
);
layerId = "07AD8005-5D45-4A63-B3CF-4E1D9502446D";
paths = (
{
closed = 1;
nodes = (
"114 0 LINE",
"114 7 LINE",
"105 7 LINE SMOOTH",
"70 7 OFFCURVE",
"60 9 OFFCURVE",
"101 124 CURVE SMOOTH",
"291 652 LINE",
"288 652 LINE",
"478 116 LINE SMOOTH",
"508 32 OFFCURVE",
"510 7 OFFCURVE",
"476 7 CURVE SMOOTH",
"460 7 LINE",
"460 0 LINE",
"588 0 LINE",
"588 7 LINE",
"553 7 OFFCURVE",
"546 13 OFFCURVE",
"511 110 CURVE SMOOTH",
"302 692 LINE",
"298 692 LINE",
"298 686 OFFCURVE",
"296 683 OFFCURVE",
"292 681 CURVE",
"92 126 LINE SMOOTH",
"50 9 OFFCURVE",
"38 7 OFFCURVE",
"11 7 CURVE SMOOTH",
"6 7 LINE",
"6 0 LINE"
);
},
{
closed = 1;
nodes = (
"444 220 LINE",
"441 228 LINE",
"136 228 LINE",
"133 220 LINE"
);
}
);
width = 594;
},
{
anchors = (
{
name = bottom;
position = "{283, 0}";
},
{
name = center;
position = "{280, 340}";
},
{
name = ogonek;
position = "{595, 0}";
},
{
name = top;
position = "{318, 680}";
},
{
name = topleft;
position = "{139, 680}";
}
);
hints = (
{
horizontal = 1;
place = "{5, 233}";
type = Stem;
},
{
horizontal = 1;
place = "{695, -20}";
target = down;
type = TopGhost;
}
);
layerId = "3FA0091B-41E8-4679-8383-4E36DA6A759B";
paths = (
{
closed = 1;
nodes = (
"171 0 LINE",
"171 12 LINE",
"160 12 LINE SMOOTH",
"116 12 OFFCURVE",
"103 56 OFFCURVE",
"133 143 CURVE SMOOTH",
"295 619 LINE",
"285 619 LINE",
"453 127 LINE SMOOTH",
"484 36 OFFCURVE",
"476 12 OFFCURVE",
"424 12 CURVE SMOOTH",
"413 12 LINE",
"413 0 LINE",
"632 0 LINE",
"632 12 LINE",
"593 12 OFFCURVE",
"580 21 OFFCURVE",
"560 77 CURVE SMOOTH",
"341 695 LINE",
"331 695 LINE",
"324 671 OFFCURVE",
"310 652 OFFCURVE",
"288 643 CURVE",
"123 177 LINE SMOOTH",
"70 28 OFFCURVE",
"51 12 OFFCURVE",
"7 12 CURVE SMOOTH",
"2 12 LINE",
"2 0 LINE"
);
},
{
closed = 1;
nodes = (
"429 238 LINE",
"422 258 LINE",
"158 258 LINE",
"152 238 LINE"
);
}
);
width = 634;
}
);
leftKerningGroup = A;
note = A.ss15;
rightKerningGroup = A;
rightMetricsKey = "=|";
unicode = 0041;
},
{
color = 4;
glyphname = AE;
lastChange = "2021-04-23 08:41:56 +0000";
layers = (
{
anchors = (
{
name = top;
position = "{517, 680}";
}
);
hints = (
{
horizontal = 1;
place = "{0, 36}";
type = Stem;
},
{
horizontal = 1;
place = "{216, 32}";
type = Stem;
},
{
horizontal = 1;
place = "{340, 35}";
type = Stem;
},
{
horizontal = 1;
place = "{652, 28}";
type = Stem;
},
{
place = "{421, 196}";
type = Stem;
}
);
layerId = "1E8F490F-00FE-4BD6-A503-902369003CC3";
paths = (
{
closed = 1;
nodes = (
"173 0 LINE",
"173 16 LINE",
"119 16 OFFCURVE",
"112 43 OFFCURVE",
"159 140 CURVE SMOOTH",
"410 652 LINE",
"411 652 LINE",
"411 86 LINE SMOOTH",
"411 34 OFFCURVE",
"376 16 OFFCURVE",
"340 16 CURVE",
"340 0 LINE",
"838 0 LINE",
"838 179 LINE",
"822 179 LINE",
"822 81 OFFCURVE",
"777 36 OFFCURVE",
"693 36 CURVE SMOOTH",
"607 36 LINE",
"607 340 LINE",
"678 340 LINE SMOOTH",
"739 340 OFFCURVE",
"751 303 OFFCURVE",
"751 266 CURVE",
"767 266 LINE",
"767 440 LINE",
"751 440 LINE",
"751 391 OFFCURVE",
"734 375 OFFCURVE",
"677 375 CURVE SMOOTH",
"607 375 LINE",
"607 652 LINE",
"664 652 LINE SMOOTH",
"773 652 OFFCURVE",
"787 609 OFFCURVE",
"787 526 CURVE",
"803 526 LINE",
"803 680 LINE",
"292 680 LINE",
"292 664 LINE",
"348 664 OFFCURVE",
"366 640 OFFCURVE",
"343 594 CURVE SMOOTH",
"133 177 LINE SMOOTH",
"62 36 OFFCURVE",
"45 16 OFFCURVE",
"-8 16 CURVE",
"-8 0 LINE"
);
},
{
closed = 1;
nodes = (
"419 236 LINE",
"419 268 LINE",
"203 268 LINE",
"187 236 LINE"
);
}
);
width = 853;
},
{
anchors = (
{
name = top;
position = "{449, 680}";
}
);
hints = (
{
horizontal = 1;
place = "{8, 21}";
target = up;
type = BottomGhost;
},
{
horizontal = 1;
place = "{688, -20}";
target = down;
type = TopGhost;
},
{
place = "{692, 37}";
type = Stem;
}
);
layerId = "07AD8005-5D45-4A63-B3CF-4E1D9502446D";
paths = (
{
closed = 1;
nodes = (
"114 0 LINE",
"114 7 LINE",
"66 7 OFFCURVE",
"63 15 OFFCURVE",
"123 124 CURVE SMOOTH",
"423 670 LINE",
"426 670 LINE",
"426 66 LINE SMOOTH",
"426 14 OFFCURVE",
"421 7 OFFCURVE",
"375 7 CURVE",
"375 0 LINE",
"757 0 LINE",
"757 117 LINE",
"747 117 LINE",
"747 9 OFFCURVE",
"721 10 OFFCURVE",
"647 10 CURVE SMOOTH",
"455 10 LINE",
"455 356 LINE",
"607 356 LINE SMOOTH",
"665 356 OFFCURVE",
"677 350 OFFCURVE",
"677 298 CURVE",
"686 298 LINE",
"686 419 LINE",
"677 419 LINE",
"677 372 OFFCURVE",
"666 364 OFFCURVE",
"606 364 CURVE SMOOTH",
"455 364 LINE",
"455 671 LINE",
"613 671 LINE SMOOTH",
"702 671 OFFCURVE",
"712 658 OFFCURVE",
"712 585 CURVE",
"722 585 LINE",
"722 680 LINE",
"334 680 LINE",
"334 673 LINE",
"380 673 OFFCURVE",
"412 665 OFFCURVE",
"376 600 CURVE SMOOTH",
"114 126 LINE SMOOTH",
"58 24 OFFCURVE",
"43 7 OFFCURVE",
"6 7 CURVE",
"6 0 LINE"
);
},
{
closed = 1;
nodes = (
"436 240 LINE",
"436 248 LINE",
"186 248 LINE",
"182 240 LINE"
);
}
);
width = 800;
},
{
anchors = (
{
name = top;
position = "{507, 680}";
}
);
hints = (
{
horizontal = 1;
place = "{223, 25}";
type = Stem;
},
{
horizontal = 1;
place = "{352, 26}";
type = Stem;
},
{
horizontal = 1;
place = "{685, -20}";
target = down;
type = TopGhost;
},
{
place = "{439, 90}";
type = Stem;
},
{
horizontal = 1;
place = "{5, 243}";
type = Stem;
}
);
layerId = "3FA0091B-41E8-4679-8383-4E36DA6A759B";
paths = (
{
closed = 1;
nodes = (
"171 0 LINE",
"171 12 LINE",
"118 12 OFFCURVE",
"113 44 OFFCURVE",
"163 143 CURVE SMOOTH",
"431 668 LINE",
"434 668 LINE",
"434 74 LINE SMOOTH",
"434 22 OFFCURVE",
"399 12 OFFCURVE",
"363 12 CURVE",
"363 0 LINE",
"801 0 LINE",
"801 159 LINE",
"785 159 LINE",
"785 51 OFFCURVE",
"750 22 OFFCURVE",
"656 22 CURVE SMOOTH",
"519 22 LINE",
"519 347 LINE",
"641 347 LINE SMOOTH",
"702 347 OFFCURVE",
"714 326 OFFCURVE",
"714 281 CURVE",
"730 281 LINE",
"730 425 LINE",
"714 425 LINE",
"714 368 OFFCURVE",
"697 368 OFFCURVE",
"640 368 CURVE SMOOTH",
"519 368 LINE",
"519 664 LINE",
"627 664 LINE SMOOTH",
"736 664 OFFCURVE",
"750 619 OFFCURVE",
"750 546 CURVE",
"766 546 LINE",
"766 680 LINE",
"335 680 LINE",
"335 668 LINE",
"381 668 OFFCURVE",
"399 652 OFFCURVE",
"375 606 CURVE SMOOTH",
"153 177 LINE SMOOTH",
"83 42 OFFCURVE",
"57 12 OFFCURVE",
"2 12 CURVE",
"2 0 LINE"
);
},
{
closed = 1;
nodes = (
"439 238 LINE",
"439 258 LINE",
"205 258 LINE",
"195 238 LINE"
);
}
);
width = 841;
}
);
leftKerningGroup = A;
leftMetricsKey = A;
note = AE;
rightKerningGroup = E;
rightMetricsKey = E;
unicode = 00C6;
},
{
color = 4;
glyphname = B;
lastChange = "2021-04-23 08:15:35 +0000";
layers = (
{
anchors = (
{
name = bottom;
position = "{305, 0}";
},
{
name = top;
position = "{306, 680}";
}
);
background = {
components = (
{
name = Serif;
}
);
};
hints = (
{
horizontal = 1;
place = "{0, 36}";
type = Stem;
},
{
horizontal = 1;
place = "{340, 35}";
type = Stem;
},
{
horizontal = 1;
place = "{652, 28}";
type = Stem;
},
{
place = "{86, 195}";
type = Stem;
},
{
place = "{388, 188}";
type = Stem;
},
{
place = "{401, 196}";
type = Stem;
},
{
place = "{401, 175}";
type = Stem;
}
);
layerId = "1E8F490F-00FE-4BD6-A503-902369003CC3";
paths = (
{
closed = 1;
nodes = (
"320 0 LINE SMOOTH",
"502 0 OFFCURVE",
"596 50 OFFCURVE",
"596 177 CURVE SMOOTH",
"596 285 OFFCURVE",
"527 338 OFFCURVE",
"395 363 CURVE",
"395 367 LINE",
"493 387 OFFCURVE",
"575 434 OFFCURVE",
"575 529 CURVE SMOOTH",
"575 620 OFFCURVE",
"501 680 OFFCURVE",
"339 680 CURVE SMOOTH",
"14 680 LINE",
"14 664 LINE",
"70 664 OFFCURVE",
"85 646 OFFCURVE",
"85 594 CURVE SMOOTH",
"85 86 LINE SMOOTH",
"85 34 OFFCURVE",
"70 16 OFFCURVE",
"14 16 CURVE",
"14 0 LINE"
);
},
{
closed = 1;
nodes = (
"294 33 OFFCURVE",
"281 38 OFFCURVE",
"281 84 CURVE SMOOTH",
"281 344 LINE",
"303 344 LINE SMOOTH",
"351 344 OFFCURVE",
"400 319 OFFCURVE",
"400 189 CURVE SMOOTH",
"400 82 OFFCURVE",
"367 33 OFFCURVE",
"316 33 CURVE SMOOTH",
"314 33 LINE SMOOTH"
);
},
{
closed = 1;
nodes = (
"281 647 LINE",
"303 647 LINE SMOOTH",
"358 647 OFFCURVE",
"387 624 OFFCURVE",
"387 517 CURVE SMOOTH",
"387 415 OFFCURVE",
"359 375 OFFCURVE",
"303 375 CURVE SMOOTH",
"281 375 LINE"
);
}
);
width = 620;
},
{
anchors = (
{
name = bottom;
position = "{234, 0}";
},
{
name = top;
position = "{235, 680}";
}
);
background = {
components = (
{
name = Serif;
}
);
};
hints = (
{
horizontal = 1;
place = "{8, 21}";
target = up;
type = BottomGhost;
},
{
horizontal = 1;
place = "{688, -20}";
target = down;
type = TopGhost;
},
{
place = "{104, 37}";
type = Stem;
},
{
place = "{447, 41}";
type = Stem;
},
{
place = "{420, 42}";
type = Stem;
}
);
layerId = "07AD8005-5D45-4A63-B3CF-4E1D9502446D";
paths = (
{
closed = 1;
nodes = (
"194 0 LINE SMOOTH",
"355 0 OFFCURVE",
"460 66 OFFCURVE",
"460 186 CURVE SMOOTH",
"460 293 OFFCURVE",
"380 346 OFFCURVE",
"267 360 CURVE",
"267 362 LINE",
"354 378 OFFCURVE",
"434 425 OFFCURVE",
"434 529 CURVE SMOOTH",
"434 616 OFFCURVE",
"376 680 OFFCURVE",
"217 680 CURVE SMOOTH",
"33 680 LINE",
"33 673 LINE",
"79 673 OFFCURVE",
"84 666 OFFCURVE",
"84 614 CURVE SMOOTH",
"84 66 LINE SMOOTH",
"84 14 OFFCURVE",
"79 7 OFFCURVE",
"33 7 CURVE",
"33 0 LINE"
);
},
{
closed = 1;
nodes = (
"126 10 OFFCURVE",
"113 13 OFFCURVE",
"113 65 CURVE SMOOTH",
"113 354 LINE",
"187 354 LINE SMOOTH",
"330 354 OFFCURVE",
"427 306 OFFCURVE",
"427 191 CURVE SMOOTH",
"427 85 OFFCURVE",
"351 10 OFFCURVE",
"189 10 CURVE SMOOTH",
"161 10 LINE SMOOTH"
);
},
{
closed = 1;
nodes = (
"113 671 LINE",
"213 671 LINE SMOOTH",
"337 671 OFFCURVE",
"400 615 OFFCURVE",
"400 526 CURVE SMOOTH",
"400 434 OFFCURVE",
"332 364 OFFCURVE",
"188 364 CURVE SMOOTH",
"113 364 LINE"
);
}
);
width = 503;
},
{
anchors = (
{
name = bottom;
position = "{287, 0}";
},
{
name = top;
position = "{288, 680}";
}
);
background = {
components = (
{
name = Serif;
transform = "{1, 0, 0, 1, 6, 0}";
}
);
};
hints = (
{
horizontal = 1;
place = "{5, 27}";
type = Stem;
},
{
horizontal = 1;
place = "{352, 26}";
type = Stem;
},
{
horizontal = 1;
place = "{685, -20}";
target = down;
type = TopGhost;
},
{
place = "{111, 90}";
type = Stem;
},
{
place = "{457, 65}";
type = Stem;
},
{
place = "{457, 91}";
type = Stem;
},
{
place = "{430, 92}";
type = Stem;
}
);
layerId = "3FA0091B-41E8-4679-8383-4E36DA6A759B";
paths = (
{
closed = 1;
nodes = (
"250 0 LINE SMOOTH",
"410 0 OFFCURVE",
"529 56 OFFCURVE",
"529 185 CURVE SMOOTH",
"529 285 OFFCURVE",
"453 347 OFFCURVE",
"336 359 CURVE",
"336 363 LINE",
"431 385 OFFCURVE",
"503 435 OFFCURVE",
"503 523 CURVE SMOOTH",
"503 624 OFFCURVE",
"430 680 OFFCURVE",
"268 680 CURVE SMOOTH",
"26 680 LINE",
"26 668 LINE",
"82 668 OFFCURVE",
"97 658 OFFCURVE",
"97 606 CURVE SMOOTH",
"97 74 LINE SMOOTH",
"97 22 OFFCURVE",
"82 12 OFFCURVE",
"26 12 CURVE",
"26 0 LINE"
);
},
{
closed = 1;
nodes = (
"198 20 OFFCURVE",
"182 28 OFFCURVE",
"182 74 CURVE SMOOTH",
"182 348 LINE",
"236 348 LINE SMOOTH",
"378 348 OFFCURVE",
"443 310 OFFCURVE",
"443 191 CURVE SMOOTH",
"443 87 OFFCURVE",
"378 20 OFFCURVE",
"246 20 CURVE SMOOTH",
"226 20 LINE SMOOTH"
);
},
{
closed = 1;
nodes = (
"182 660 LINE",
"262 660 LINE SMOOTH",
"371 660 OFFCURVE",
"416 611 OFFCURVE",
"416 522 CURVE SMOOTH",
"416 432 OFFCURVE",
"381 368 OFFCURVE",
"241 368 CURVE SMOOTH",
"182 368 LINE"
);
}
);
width = 565;
}
);
leftKerningGroup = H;
leftMetricsKey = H;
note = B;
rightKerningGroup = B;
unicode = 0042;
},
{
color = 4;
glyphname = C;
lastChange = "2021-04-23 08:05:24 +0000";
layers = (
{
anchors = (
{
name = bottom;
position = "{346, 0}";
},
{
name = cedilla;
position = "{359, 0}";
},
{
name = center;
position = "{346, 340}";
},
{
name = top;
position = "{346, 680}";
}
);
hints = (
{
horizontal = 1;
place = "{-11, 99}";
type = Stem;
},
{
horizontal = 1;
place = "{680, -20}";
target = down;
type = TopGhost;
},
{
place = "{30, 207}";
type = Stem;
},
{
horizontal = 1;
place = "{664, 26}";
type = Stem;
}
);
layerId = "1E8F490F-00FE-4BD6-A503-902369003CC3";
paths = (
{
closed = 1;
nodes = (
"448 -12 OFFCURVE",
"475 30 OFFCURVE",
"498 30 CURVE SMOOTH",
"509 30 OFFCURVE",
"513 20 OFFCURVE",
"525 -1 CURVE",
"541 -1 LINE",
"541 233 LINE",
"525 233 LINE",
"514 130 OFFCURVE",
"481 19 OFFCURVE",
"365 19 CURVE SMOOTH",
"261 19 OFFCURVE",
"234 123 OFFCURVE",
"234 329 CURVE SMOOTH",
"234 537 OFFCURVE",
"272 664 OFFCURVE",
"366 664 CURVE SMOOTH",
"462 664 OFFCURVE",
"514 549 OFFCURVE",
"525 466 CURVE",
"541 466 LINE",
"541 680 LINE",
"525 680 LINE",
"513 659 OFFCURVE",
"509 649 OFFCURVE",
"498 649 CURVE SMOOTH",
"475 649 OFFCURVE",
"449 690 OFFCURVE",
"348 690 CURVE SMOOTH",
"168 690 OFFCURVE",
"19 568 OFFCURVE",
"19 316 CURVE SMOOTH",
"19 49 OFFCURVE",
"188 -12 OFFCURVE",
"347 -12 CURVE SMOOTH"
);
}
);
width = 572;
},
{
anchors = (
{
name = bottom;
position = "{342, 0}";
},
{
name = cedilla;
position = "{376, 0}";
},
{
name = center;
position = "{342, 340}";
},
{
name = top;
position = "{342, 680}";
}
);
background = {
components = (
{
name = O;
transform = "{1, 0, 0, 1, 8, 0}";
}
);
};
hints = (
{
horizontal = 1;
place = "{-3, 28}";
type = Stem;
},
{
horizontal = 1;
place = "{688, -20}";
target = down;
type = TopGhost;
},
{
place = "{45, 38}";
type = Stem;
},
{
horizontal = 1;
place = "{690, -20}";
target = down;
type = TopGhost;
},
{
horizontal = 1;
place = "{698, -20}";
target = down;
type = TopGhost;
}
);
layerId = "07AD8005-5D45-4A63-B3CF-4E1D9502446D";
paths = (
{
closed = 1;
nodes = (
"436 -10 OFFCURVE",
"499 45 OFFCURVE",
"520 45 CURVE SMOOTH",
"529 45 OFFCURVE",
"536 35 OFFCURVE",
"547 5 CURVE",
"554 5 LINE",
"554 177 LINE",
"546 177 LINE",
"529 54 OFFCURVE",
"431 -2 OFFCURVE",
"341 -2 CURVE SMOOTH",
"203 -2 OFFCURVE",
"72 111 OFFCURVE",
"72 334 CURVE SMOOTH",
"72 565 OFFCURVE",
"210 688 OFFCURVE",
"342 688 CURVE SMOOTH",
"432 688 OFFCURVE",
"530 627 OFFCURVE",
"547 524 CURVE",
"555 524 LINE",
"555 666 LINE",
"548 666 LINE",
"537 646 OFFCURVE",
"530 636 OFFCURVE",
"521 636 CURVE SMOOTH",
"500 636 OFFCURVE",
"437 696 OFFCURVE",
"340 696 CURVE SMOOTH",
"199 696 OFFCURVE",
"40 575 OFFCURVE",
"40 327 CURVE SMOOTH",
"40 100 OFFCURVE",
"173 -10 OFFCURVE",
"337 -10 CURVE SMOOTH"
);
}
);
width = 611;
},
{
anchors = (
{
name = bottom;
position = "{343, 0}";
},
{
name = cedilla;
position = "{377, 0}";
},
{
name = center;
position = "{343, 340}";
},
{
name = top;
position = "{343, 680}";
}
);
background = {
components = (
{
name = O;
},
{
name = G;
transform = "{1, 0, 0, 1, -8, 0}";
}
);
paths = (
{
closed = 0;
nodes = (
"347 674 LINE SMOOTH",
"453 674 OFFCURVE",
"518 600 OFFCURVE",
"537 496 CURVE",
"550 496 LINE",
"550 680 LINE",
"538 680 LINE",
"526 659 OFFCURVE",
"518 649 OFFCURVE",
"507 649 CURVE SMOOTH",
"486 649 OFFCURVE",
"443 690 OFFCURVE",
"352 690 CURVE SMOOTH"
);
}
);
};
hints = (
{
horizontal = 1;
place = "{-6, 65}";
type = Stem;
},
{
horizontal = 1;
place = "{685, -20}";
target = down;
type = TopGhost;
},
{
place = "{42, 90}";
type = Stem;
},
{
horizontal = 1;
place = "{695, -20}";
target = down;
type = TopGhost;
}
);
layerId = "3FA0091B-41E8-4679-8383-4E36DA6A759B";
paths = (
{
closed = 1;
nodes = (
"432 -11 OFFCURVE",
"491 32 OFFCURVE",
"510 32 CURVE SMOOTH",
"523 32 OFFCURVE",
"531 22 OFFCURVE",
"543 1 CURVE",
"555 1 LINE",
"560 213 LINE",
"547 213 LINE",
"528 98 OFFCURVE",
"461 5 OFFCURVE",
"355 5 CURVE SMOOTH",
"230 11 OFFCURVE",
"130 151 OFFCURVE",
"130 358 CURVE SMOOTH",
"130 566 OFFCURVE",
"237 676 OFFCURVE",
"352 676 CURVE SMOOTH",
"455 676 OFFCURVE",
"523 600 OFFCURVE",
"542 496 CURVE",
"555 496 LINE",
"555 680 LINE",
"543 680 LINE",
"531 659 OFFCURVE",
"523 649 OFFCURVE",
"512 649 CURVE SMOOTH",
"491 649 OFFCURVE",
"445 692 OFFCURVE",
"357 692 CURVE SMOOTH",
"217 692 OFFCURVE",
"34 581 OFFCURVE",
"34 331 CURVE SMOOTH",
"34 106 OFFCURVE",
"162 -11 OFFCURVE",
"347 -11 CURVE SMOOTH"
);
}
);
width = 610;
}
);
leftKerningGroup = O;
leftMetricsKey = O;
note = C;
rightKerningGroup = C;
unicode = 0043;
},
{
color = 4;
glyphname = D;
lastChange = "2021-04-23 08:15:35 +0000";
layers = (
{
anchors = (
{
name = bottom;
position = "{297, 0}";
},
{
name = center;
position = "{324, 340}";
},
{
name = top;
position = "{297, 680}";
}
);
background = {
components = (
{
name = B;
}
);
paths = (
{
closed = 0;
nodes = (
"401 217 LINE",
"402 216 OFFCURVE",
"402 216 OFFCURVE",
"403 215 CURVE SMOOTH"
);
}
);
};
hints = (
{
horizontal = 1;
place = "{0, 36}";
type = Stem;
},
{
horizontal = 1;
place = "{651, 29}";
type = Stem;
},
{
place = "{86, 196}";
type = Stem;
},
{
place = "{407, 202}";
type = Stem;
}
);
layerId = "1E8F490F-00FE-4BD6-A503-902369003CC3";
paths = (
{
closed = 1;
nodes = (
"311 0 LINE SMOOTH",
"508 0 OFFCURVE",
"656 93 OFFCURVE",
"656 349 CURVE SMOOTH",
"656 604 OFFCURVE",
"465 680 OFFCURVE",
"319 680 CURVE SMOOTH",
"14 680 LINE",
"14 664 LINE",
"70 664 OFFCURVE",
"85 646 OFFCURVE",
"85 594 CURVE SMOOTH",
"85 86 LINE SMOOTH",
"85 34 OFFCURVE",
"70 16 OFFCURVE",
"14 16 CURVE",
"14 0 LINE"
);
},
{
closed = 1;
nodes = (
"294 33 OFFCURVE",
"281 44 OFFCURVE",
"281 79 CURVE SMOOTH",
"281 647 LINE",
"307 647 LINE SMOOTH",
"405 647 OFFCURVE",
"440 572 OFFCURVE",
"440 343 CURVE SMOOTH",
"440 80 OFFCURVE",
"381 33 OFFCURVE",
"320 33 CURVE SMOOTH",
"318 33 LINE SMOOTH"
);
}
);
width = 675;
},
{
anchors = (
{
name = bottom;
position = "{256, 0}";
},
{
name = center;
position = "{283, 340}";
},
{
name = top;
position = "{256, 680}";
}
);
background = {
components = (
{
name = O;
transform = "{1, 0, 0, 1, -89, 0}";
},
{
name = B;
}
);
};
hints = (
{
horizontal = 1;
place = "{8, 21}";
target = up;
type = BottomGhost;
},
{
horizontal = 1;
place = "{688, -20}";
target = down;
type = TopGhost;
},
{
place = "{104, 37}";
type = Stem;
},
{
place = "{547, 43}";
type = Stem;
}
);
layerId = "07AD8005-5D45-4A63-B3CF-4E1D9502446D";
paths = (
{
closed = 1;
nodes = (
"228 0 LINE SMOOTH",
"402 0 OFFCURVE",
"563 99 OFFCURVE",
"563 351 CURVE SMOOTH",
"563 603 OFFCURVE",
"402 680 OFFCURVE",
"228 680 CURVE SMOOTH",
"33 680 LINE",
"33 673 LINE",
"79 673 OFFCURVE",
"84 666 OFFCURVE",
"84 614 CURVE SMOOTH",
"84 66 LINE SMOOTH",
"84 14 OFFCURVE",
"79 7 OFFCURVE",
"33 7 CURVE",
"33 0 LINE"
);
},
{
closed = 1;
nodes = (
"129 10 OFFCURVE",
"113 14 OFFCURVE",
"113 66 CURVE SMOOTH",
"113 671 LINE",
"227 671 LINE SMOOTH",
"390 671 OFFCURVE",
"531 579 OFFCURVE",
"531 350 CURVE SMOOTH",
"531 121 OFFCURVE",
"389 10 OFFCURVE",
"227 10 CURVE SMOOTH",
"153 10 LINE SMOOTH"
);
}
);
width = 603;
},
{
anchors = (
{
name = bottom;
position = "{269, 0}";
},
{
name = center;
position = "{296, 340}";
},
{
name = top;
position = "{269, 680}";
}
);
background = {
components = (
{
name = B;
transform = "{1, 0, 0, 1, 6, 0}";
},
{
name = O;
transform = "{1, 0, 0, 1, -78, 0}";
}
);
};
hints = (
{
horizontal = 1;
place = "{5, 27}";
type = Stem;
},
{
horizontal = 1;
place = "{685, -20}";
target = down;
type = TopGhost;
},
{
place = "{111, 90}";
type = Stem;
},
{
place = "{534, 96}";
type = Stem;
}
);
layerId = "3FA0091B-41E8-4679-8383-4E36DA6A759B";
paths = (
{
closed = 1;
nodes = (
"283 0 LINE SMOOTH",
"447 0 OFFCURVE",
"614 97 OFFCURVE",
"614 352 CURVE SMOOTH",
"614 596 OFFCURVE",
"445 680 OFFCURVE",
"262 680 CURVE SMOOTH",
"26 680 LINE",
"26 668 LINE",
"82 668 OFFCURVE",
"97 658 OFFCURVE",
"97 606 CURVE SMOOTH",
"97 74 LINE SMOOTH",
"97 22 OFFCURVE",
"82 12 OFFCURVE",
"26 12 CURVE",
"26 0 LINE"
);
},
{
closed = 1;
nodes = (
"200 20 OFFCURVE",
"182 27 OFFCURVE",
"182 74 CURVE SMOOTH",
"182 660 LINE",
"256 660 LINE SMOOTH",
"423 660 OFFCURVE",
"516 559 OFFCURVE",
"516 349 CURVE SMOOTH",
"516 149 OFFCURVE",
"421 20 OFFCURVE",
"282 20 CURVE SMOOTH",
"239 20 LINE SMOOTH"
);
}
);
width = 648;
}
);
leftKerningGroup = H;
leftMetricsKey = H;
note = D;
rightKerningGroup = O;
rightMetricsKey = O;
unicode = 0044;
},
{
color = 4;
glyphname = Eth;
lastChange = "2021-04-23 07:00:38 +0000";
layers = (
{
components = (
{
name = D;
}
);
hints = (
{
horizontal = 1;
place = "{0, 36}";
type = Stem;
},
{
horizontal = 1;
place = "{340, 35}";
type = Stem;
},
{
horizontal = 1;
place = "{651, 29}";
type = Stem;
},
{
place = "{86, 196}";
type = Stem;
},
{
place = "{407, 202}";
type = Stem;
}
);
layerId = "1E8F490F-00FE-4BD6-A503-902369003CC3";
paths = (
{
closed = 1;
nodes = (
"359 340 LINE",
"359 375 LINE",
"15 375 LINE",
"15 340 LINE"
);
}
);
width = 644;
},
{
components = (
{
name = D;
}
);
hints = (
{
horizontal = 1;
place = "{8, 21}";
target = up;
type = BottomGhost;
},
{
horizontal = 1;
place = "{688, -20}";
target = down;
type = TopGhost;
},
{
place = "{104, 37}";
type = Stem;
},
{
place = "{547, 43}";
type = Stem;
}
);
layerId = "07AD8005-5D45-4A63-B3CF-4E1D9502446D";
paths = (
{
closed = 1;
nodes = (
"317 353 LINE",
"317 363 LINE",
"18 363 LINE",
"18 353 LINE"
);
}
);
width = 606;
},
{
components = (
{
name = D;
}
);
hints = (
{
horizontal = 1;
place = "{5, 27}";
type = Stem;
},
{
horizontal = 1;
place = "{352, 27}";
type = Stem;
},
{
horizontal = 1;
place = "{685, -20}";
target = down;
type = TopGhost;
},
{
place = "{111, 90}";
type = Stem;
},
{
place = "{534, 96}";
type = Stem;
}
);
layerId = "3FA0091B-41E8-4679-8383-4E36DA6A759B";
paths = (
{
closed = 1;
nodes = (
"334 347 LINE",
"334 369 LINE",
"16 369 LINE",
"16 347 LINE"
);
}
);
width = 647;
}
);
leftKerningGroup = H;
note = Eth;
rightKerningGroup = O;
unicode = 00D0;
},
{
color = 4;
glyphname = E;
lastChange = "2021-04-23 08:15:31 +0000";
layers = (
{
anchors = (
{
name = bottom;
position = "{266, 0}";
},
{
name = center;
position = "{235, 340}";
},
{
name = ogonek;
position = "{432, 0}";
},
{
name = top;
position = "{242, 680}";
},
{
name = topleft;
position = "{-1, 680}";
}
);
background = {
components = (
{
name = L;
}
);
};
hints = (
{
horizontal = 1;
place = "{0, 36}";
type = Stem;
},
{
horizontal = 1;
place = "{340, 35}";
type = Stem;
},
{
horizontal = 1;
place = "{652, 28}";
type = Stem;
},
{
place = "{86, 196}";
type = Stem;
}
);
layerId = "1E8F490F-00FE-4BD6-A503-902369003CC3";
paths = (
{
closed = 1;
nodes = (
"512 0 LINE",
"512 179 LINE",
"496 179 LINE",
"496 71 OFFCURVE",
"462 36 OFFCURVE",
"378 36 CURVE SMOOTH",
"326 36 LINE SMOOTH",
"294 36 OFFCURVE",
"281 50 OFFCURVE",
"281 86 CURVE SMOOTH",
"281 340 LINE",
"352 340 LINE SMOOTH",
"413 340 OFFCURVE",
"425 303 OFFCURVE",
"425 266 CURVE",
"441 266 LINE",
"441 440 LINE",
"425 440 LINE",
"425 391 OFFCURVE",
"408 375 OFFCURVE",
"351 375 CURVE SMOOTH",
"281 375 LINE",
"281 645 LINE",
"364 645 LINE SMOOTH",
"463 645 OFFCURVE",
"477 599 OFFCURVE",
"477 521 CURVE",
"493 521 LINE",
"493 680 LINE",
"14 680 LINE",
"14 664 LINE",
"70 664 OFFCURVE",
"85 646 OFFCURVE",
"85 594 CURVE SMOOTH",
"85 86 LINE SMOOTH",
"85 34 OFFCURVE",
"70 16 OFFCURVE",
"14 16 CURVE",
"14 0 LINE"
);
}
);
width = 527;
},
{
anchors = (
{
name = bottom;
position = "{227, 0}";
},
{
name = center;
position = "{220, 340}";
},
{
name = ogonek;
position = "{401, 0}";
},
{
name = top;
position = "{227, 680}";
},
{
name = topleft;
position = "{-12, 680}";
}
);
hints = (
{
horizontal = 1;
place = "{8, 21}";
target = up;
type = BottomGhost;
},
{
horizontal = 1;
place = "{688, -20}";
target = down;
type = TopGhost;
},
{
place = "{104, 37}";
type = Stem;
}
);
layerId = "07AD8005-5D45-4A63-B3CF-4E1D9502446D";
paths = (
{
closed = 1;
nodes = (
"415 0 LINE",
"415 117 LINE",
"405 117 LINE",
"405 9 OFFCURVE",
"379 10 OFFCURVE",
"305 10 CURVE SMOOTH",
"166 10 LINE SMOOTH",
"126 10 OFFCURVE",
"113 14 OFFCURVE",
"113 68 CURVE SMOOTH",
"113 354 LINE",
"265 354 LINE SMOOTH",
"323 354 OFFCURVE",
"335 350 OFFCURVE",
"335 298 CURVE",
"344 298 LINE",
"344 419 LINE",
"335 419 LINE",
"335 372 OFFCURVE",
"324 364 OFFCURVE",
"264 364 CURVE SMOOTH",
"113 364 LINE",
"113 671 LINE",
"291 671 LINE SMOOTH",
"380 671 OFFCURVE",
"390 658 OFFCURVE",
"390 585 CURVE",
"400 585 LINE",
"400 680 LINE",
"33 680 LINE",
"33 673 LINE",
"79 673 OFFCURVE",
"84 666 OFFCURVE",
"84 614 CURVE SMOOTH",
"84 66 LINE SMOOTH",
"84 14 OFFCURVE",
"79 7 OFFCURVE",
"33 7 CURVE",
"33 0 LINE"
);
}
);
width = 458;
},
{
anchors = (
{
name = bottom;
position = "{244, 0}";
},
{
name = center;
position = "{237, 340}";
},
{
name = ogonek;
position = "{418, 0}";
},
{
name = top;
position = "{244, 680}";
},
{
name = topleft;
position = "{-9, 680}";
}
);
hints = (
{
horizontal = 1;
place = "{5, 27}";
type = Stem;
},
{
horizontal = 1;
place = "{352, 26}";
type = Stem;
},
{
horizontal = 1;
place = "{685, -20}";
target = down;
type = TopGhost;
},
{
place = "{111, 90}";
type = Stem;
}
);
layerId = "3FA0091B-41E8-4679-8383-4E36DA6A759B";
paths = (
{
closed = 1;
nodes = (
"464 0 LINE",
"464 159 LINE",
"448 159 LINE",
"448 51 OFFCURVE",
"413 22 OFFCURVE",
"319 22 CURVE SMOOTH",
"233 22 LINE SMOOTH",
"197 22 OFFCURVE",
"182 40 OFFCURVE",
"182 77 CURVE SMOOTH",
"182 347 LINE",
"288 347 LINE SMOOTH",
"349 347 OFFCURVE",
"377 324 OFFCURVE",
"377 281 CURVE",
"393 281 LINE",
"393 432 LINE",
"377 432 LINE",
"377 388 OFFCURVE",
"349 368 OFFCURVE",
"287 368 CURVE SMOOTH",
"182 368 LINE",
"182 658 LINE",
"323 658 LINE SMOOTH",
"422 658 OFFCURVE",
"434 619 OFFCURVE",
"434 546 CURVE",
"450 546 LINE",
"450 680 LINE",
"26 680 LINE",
"26 668 LINE",
"82 668 OFFCURVE",
"97 658 OFFCURVE",
"97 606 CURVE SMOOTH",
"97 74 LINE SMOOTH",
"97 22 OFFCURVE",
"82 12 OFFCURVE",
"26 12 CURVE",
"26 0 LINE"
);
}
);
width = 504;
}
);
leftKerningGroup = H;
leftMetricsKey = H;
note = E;
rightKerningGroup = E;
unicode = 0045;
},
{
color = 4;
glyphname = F;
lastChange = "2021-04-23 08:15:51 +0000";
layers = (
{
anchors = (
{
name = bottomright;
position = "{281, 0}";
},
{
name = top;
position = "{263, 680}";
}
);
hints = (
{
horizontal = 1;
place = "{0, 21}";
target = up;
type = BottomGhost;
},
{
horizontal = 1;
place = "{340, 35}";
type = Stem;
},
{
horizontal = 1;
place = "{652, 28}";
type = Stem;
},
{
place = "{86, 196}";
type = Stem;
}
);
layerId = "1E8F490F-00FE-4BD6-A503-902369003CC3";
paths = (
{
closed = 1;
nodes = (
"14 0 LINE",
"357 0 LINE",
"357 16 LINE",
"296 16 OFFCURVE",
"281 34 OFFCURVE",
"281 86 CURVE SMOOTH",
"281 341 LINE",
"352 341 LINE SMOOTH",
"416 341 OFFCURVE",
"425 303 OFFCURVE",
"425 266 CURVE",
"441 266 LINE",
"441 440 LINE",
"425 440 LINE",
"425 391 OFFCURVE",
"411 375 OFFCURVE",
"351 375 CURVE SMOOTH",
"281 375 LINE",
"281 646 LINE",
"348 646 LINE SMOOTH",
"445 646 OFFCURVE",
"461 598 OFFCURVE",
"461 526 CURVE",
"477 526 LINE",
"477 680 LINE",
"14 680 LINE",
"14 664 LINE",
"70 664 OFFCURVE",
"85 646 OFFCURVE",
"85 594 CURVE SMOOTH",
"85 86 LINE SMOOTH",
"85 34 OFFCURVE",
"70 16 OFFCURVE",
"14 16 CURVE"
);
}
);
width = 501;
},
{
anchors = (
{
name = bottomright;
position = "{113, 0}";
},
{
name = top;
position = "{221, 680}";
}
);
hints = (
{
horizontal = 1;
place = "{8, 21}";
target = up;
type = BottomGhost;
},
{
horizontal = 1;
place = "{688, -20}";
target = down;
type = TopGhost;
},
{
place = "{104, 37}";
type = Stem;
}
);
layerId = "07AD8005-5D45-4A63-B3CF-4E1D9502446D";
paths = (
{
closed = 1;
nodes = (
"33 0 LINE",
"170 0 LINE",
"170 7 LINE",
"119 7 OFFCURVE",
"113 14 OFFCURVE",
"113 66 CURVE SMOOTH",
"113 353 LINE",
"265 353 LINE SMOOTH",
"326 353 OFFCURVE",
"335 347 OFFCURVE",
"335 295 CURVE",
"344 295 LINE",
"344 416 LINE",
"335 416 LINE",
"335 367 OFFCURVE",
"321 361 OFFCURVE",
"264 361 CURVE SMOOTH",
"113 361 LINE",
"113 671 LINE",
"271 671 LINE SMOOTH",
"360 671 OFFCURVE",
"370 658 OFFCURVE",
"370 585 CURVE",
"380 585 LINE",
"380 680 LINE",
"33 680 LINE",
"33 673 LINE",
"79 673 OFFCURVE",
"84 666 OFFCURVE",
"84 614 CURVE SMOOTH",
"84 66 LINE SMOOTH",
"84 14 OFFCURVE",
"79 7 OFFCURVE",
"33 7 CURVE"
);
}
);
width = 423;
},
{
anchors = (
{
name = bottomright;
position = "{182, 0}";
},
{
name = top;
position = "{264, 680}";
}
);
hints = (
{
horizontal = 1;
place = "{5, 21}";
target = up;
type = BottomGhost;
},
{
horizontal = 1;
place = "{352, 26}";
type = Stem;
},
{
horizontal = 1;
place = "{685, -20}";
target = down;
type = TopGhost;
},
{
place = "{111, 90}";
type = Stem;
}
);
layerId = "3FA0091B-41E8-4679-8383-4E36DA6A759B";
paths = (
{
closed = 1;
nodes = (
"26 0 LINE",
"261 0 LINE",
"261 12 LINE",
"196 12 OFFCURVE",
"182 22 OFFCURVE",
"182 74 CURVE SMOOTH",
"182 347 LINE",
"314 347 LINE SMOOTH",
"375 347 OFFCURVE",
"397 320 OFFCURVE",
"397 275 CURVE",
"413 275 LINE",
"413 432 LINE",
"397 432 LINE",
"397 375 OFFCURVE",
"370 368 OFFCURVE",
"313 368 CURVE SMOOTH",
"182 368 LINE",
"182 664 LINE",
"310 664 LINE SMOOTH",
"413 664 OFFCURVE",
"433 619 OFFCURVE",
"433 546 CURVE",
"449 546 LINE",
"449 680 LINE",
"26 680 LINE",
"26 668 LINE",
"82 668 OFFCURVE",
"97 658 OFFCURVE",
"97 606 CURVE SMOOTH",
"97 74 LINE SMOOTH",
"97 22 OFFCURVE",
"82 12 OFFCURVE",
"26 12 CURVE"
);
}
);
width = 488;
}
);
leftMetricsKey = H;
note = F;
rightKerningGroup = F;
unicode = 0046;
},
{
color = 4;
glyphname = G;
lastChange = "2021-04-23 07:59:09 +0000";
layers = (
{
anchors = (
{
name = bottom;
position = "{348, 0}";
},
{
name = top;
position = "{348, 680}";
}
);
hints = (
{
horizontal = 1;
place = "{-11, 31}";
type = Stem;
},
{
horizontal = 1;
place = "{680, -20}";
target = down;
type = TopGhost;
},
{
place = "{37, 212}";
type = Stem;
},
{
place = "{393, 179}";
type = Stem;
},
{
horizontal = 1;
place = "{664, 26}";
type = Stem;
}
);
layerId = "1E8F490F-00FE-4BD6-A503-902369003CC3";
paths = (
{
closed = 1;
nodes = (
"415 -11 OFFCURVE",
"468 42 OFFCURVE",
"505 42 CURVE SMOOTH",
"521 42 OFFCURVE",
"531 32 OFFCURVE",
"541 22 CURVE",
"557 22 LINE",
"557 239 LINE SMOOTH",
"557 298 OFFCURVE",
"561 321 OFFCURVE",
"618 321 CURVE",
"618 339 LINE",
"307 339 LINE",
"307 321 LINE",
"359 321 OFFCURVE",
"378 306 OFFCURVE",
"378 239 CURVE SMOOTH",
"378 33 LINE",
"367 25 OFFCURVE",
"351 20 OFFCURVE",
"334 20 CURVE SMOOTH",
"260 20 OFFCURVE",
"234 116 OFFCURVE",
"234 318 CURVE SMOOTH",
"234 541 OFFCURVE",
"272 664 OFFCURVE",
"366 664 CURVE SMOOTH",
"436 664 OFFCURVE",
"497 592 OFFCURVE",
"520 446 CURVE",
"538 446 LINE",
"538 680 LINE",
"520 680 LINE",
"512 660 OFFCURVE",
"508 651 OFFCURVE",
"496 651 CURVE SMOOTH",
"476 651 OFFCURVE",
"447 690 OFFCURVE",
"347 690 CURVE SMOOTH",
"167 690 OFFCURVE",
"19 568 OFFCURVE",
"19 306 CURVE SMOOTH",
"19 49 OFFCURVE",
"185 -11 OFFCURVE",
"304 -11 CURVE SMOOTH"
);
}
);
width = 618;
},
{
anchors = (
{
name = bottom;
position = "{359, 0}";
},
{
name = top;
position = "{359, 680}";
}
);
hints = (
{
horizontal = 1;
place = "{-3, 21}";
target = up;
type = BottomGhost;
},
{
horizontal = 1;
place = "{698, -20}";
target = down;
type = TopGhost;
},
{
place = "{42, 38}";
type = Stem;
},
{
place = "{530, 40}";
type = Stem;
},
{
horizontal = 1;
place = "{7, 21}";
target = up;
type = BottomGhost;
},
{
horizontal = 1;
place = "{691, -20}";
target = down;
type = TopGhost;
},
{
horizontal = 1;
place = "{688, -20}";
target = down;
type = TopGhost;
}
);
layerId = "07AD8005-5D45-4A63-B3CF-4E1D9502446D";
paths = (
{
closed = 1;
nodes = (
"444 -11 OFFCURVE",
"509 34 OFFCURVE",
"533 34 CURVE SMOOTH",
"544 34 OFFCURVE",
"551 33 OFFCURVE",
"558 23 CURVE",
"562 23 LINE",
"562 243 LINE SMOOTH",
"562 302 OFFCURVE",
"566 331 OFFCURVE",
"613 331 CURVE",
"613 339 LINE",
"469 339 LINE",
"469 331 LINE",
"521 331 OFFCURVE",
"530 310 OFFCURVE",
"530 243 CURVE SMOOTH",
"530 49 LINE",
"520 42 OFFCURVE",
"432 0 OFFCURVE",
"360 0 CURVE SMOOTH",
"216 0 OFFCURVE",
"72 122 OFFCURVE",
"72 333 CURVE SMOOTH",
"72 535 OFFCURVE",
"210 682 OFFCURVE",
"359 682 CURVE SMOOTH",
"435 682 OFFCURVE",
"540 644 OFFCURVE",
"557 516 CURVE",
"565 516 LINE",
"565 666 LINE",
"557 666 LINE",
"549 646 OFFCURVE",
"543 637 OFFCURVE",
"533 637 CURVE SMOOTH",
"516 637 OFFCURVE",
"471 690 OFFCURVE",
"362 690 CURVE SMOOTH",
"202 690 OFFCURVE",
"40 555 OFFCURVE",
"40 327 CURVE SMOOTH",
"40 92 OFFCURVE",
"207 -11 OFFCURVE",
"351 -11 CURVE SMOOTH"
);
}
);
width = 657;
},
{
anchors = (
{
name = bottom;
position = "{361, 0}";
},
{
name = top;
position = "{361, 680}";
}
);
hints = (
{
horizontal = 1;
place = "{-6, 21}";
target = up;
type = BottomGhost;
},
{
horizontal = 1;
place = "{685, -20}";
target = down;
type = TopGhost;
},
{
place = "{39, 97}";
type = Stem;
},
{
place = "{507, 90}";
type = Stem;
},
{
horizontal = 1;
place = "{695, -20}";
target = down;
type = TopGhost;
}
);
layerId = "3FA0091B-41E8-4679-8383-4E36DA6A759B";
paths = (
{
closed = 1;
nodes = (
"446 -11 OFFCURVE",
"521 35 OFFCURVE",
"556 35 CURVE SMOOTH",
"567 35 OFFCURVE",
"575 33 OFFCURVE",
"582 23 CURVE",
"593 23 LINE",
"593 243 LINE SMOOTH",
"593 302 OFFCURVE",
"597 325 OFFCURVE",
"654 325 CURVE",
"654 339 LINE",
"437 339 LINE",
"437 325 LINE",
"489 325 OFFCURVE",
"508 310 OFFCURVE",
"508 243 CURVE SMOOTH",
"508 52 LINE",
"498 45 OFFCURVE",
"440 7 OFFCURVE",
"364 7 CURVE SMOOTH",
"222 7 OFFCURVE",
"132 134 OFFCURVE",
"132 345 CURVE SMOOTH",
"132 547 OFFCURVE",
"219 675 OFFCURVE",
"364 675 CURVE SMOOTH",
"445 675 OFFCURVE",
"533 624 OFFCURVE",
"550 496 CURVE",
"563 496 LINE",
"563 680 LINE",
"550 680 LINE",
"542 660 OFFCURVE",
"535 657 OFFCURVE",
"524 657 CURVE SMOOTH",
"508 657 OFFCURVE",
"431 690 OFFCURVE",
"368 690 CURVE SMOOTH",
"202 690 OFFCURVE",
"34 557 OFFCURVE",
"34 323 CURVE SMOOTH",
"34 88 OFFCURVE",
"213 -11 OFFCURVE",
"357 -11 CURVE SMOOTH"
);
}
);
width = 671;
}
);
leftKerningGroup = O;
leftMetricsKey = O;
note = G;
rightKerningGroup = G;
unicode = 0047;
},
{
glyphname = Glottalstop;
lastChange = "2021-04-23 07:00:38 +0000";
layers = (
{
hints = (
{
horizontal = 1;
place = "{0, 21}";
target = up;
type = BottomGhost;
},
{
horizontal = 1;
place = "{581, 109}";
type = Stem;
},
{
place = "{230, 176}";
type = Stem;
},
{
place = "{100, 195}";
type = Stem;
}
);
layerId = "1E8F490F-00FE-4BD6-A503-902369003CC3";
paths = (
{
closed = 1;
nodes = (
"29 0 LINE",
"366 0 LINE",
"366 16 LINE",
"330 16 OFFCURVE",
"295 34 OFFCURVE",
"295 86 CURVE SMOOTH",
"295 331 LINE",
"339 363 OFFCURVE",
"406 420 OFFCURVE",
"406 527 CURVE SMOOTH",
"406 638 OFFCURVE",
"312 690 OFFCURVE",
"215 690 CURVE SMOOTH",
"116 690 OFFCURVE",
"26 622 OFFCURVE",
"8 533 CURVE",
"24 533 LINE",
"42 561 OFFCURVE",
"83 581 OFFCURVE",
"122 581 CURVE SMOOTH",
"185 581 OFFCURVE",
"230 550 OFFCURVE",
"230 488 CURVE SMOOTH",
"230 412 OFFCURVE",
"158 346 OFFCURVE",
"100 300 CURVE",
"100 86 LINE SMOOTH",
"100 34 OFFCURVE",
"65 16 OFFCURVE",
"29 16 CURVE"
);
}
);
width = 423;
},
{
hints = (
{
horizontal = 1;
place = "{8, 21}";
target = up;
type = BottomGhost;
},
{
horizontal = 1;
place = "{688, -20}";
target = down;
type = TopGhost;
},
{
place = "{104, 37}";
type = Stem;
}
);
layerId = "07AD8005-5D45-4A63-B3CF-4E1D9502446D";
paths = (
{
closed = 1;
nodes = (
"169 0 LINE",
"300 0 LINE",
"300 7 LINE",
"254 7 OFFCURVE",
"249 14 OFFCURVE",
"249 66 CURVE SMOOTH",
"249 283 LINE",
"287 320 OFFCURVE",
"383 392 OFFCURVE",
"383 520 CURVE SMOOTH",
"383 638 OFFCURVE",
"302 690 OFFCURVE",
"219 690 CURVE SMOOTH",
"125 690 OFFCURVE",
"73 624 OFFCURVE",
"53 544 CURVE",
"59 544 LINE",
"81 618 OFFCURVE",
"138 673 OFFCURVE",
"214 673 CURVE SMOOTH",
"289 673 OFFCURVE",
"351 620 OFFCURVE",
"351 521 CURVE SMOOTH",
"351 400 OFFCURVE",
"259 331 OFFCURVE",
"220 295 CURVE",
"220 66 LINE SMOOTH",
"220 14 OFFCURVE",
"215 7 OFFCURVE",
"169 7 CURVE"
);
}
);
width = 468;
},
{
hints = (
{
horizontal = 1;
place = "{5, 21}";
target = up;
type = BottomGhost;
},
{
horizontal = 1;
place = "{645, 55}";
type = Stem;
},
{
place = "{171, 90}";
type = Stem;
},
{
place = "{319, 86}";
type = Stem;
}
);
layerId = "3FA0091B-41E8-4679-8383-4E36DA6A759B";
paths = (
{
closed = 1;
nodes = (
"100 0 LINE",
"327 0 LINE",
"327 12 LINE",
"291 12 OFFCURVE",
"256 22 OFFCURVE",
"256 74 CURVE SMOOTH",
"256 261 LINE",
"315 311 OFFCURVE",
"400 389 OFFCURVE",
"400 507 CURVE SMOOTH",
"400 616 OFFCURVE",
"328 690 OFFCURVE",
"221 690 CURVE SMOOTH",
"122 690 OFFCURVE",
"45 627 OFFCURVE",
"25 533 CURVE",
"37 533 LINE",
"62 601 OFFCURVE",
"131 640 OFFCURVE",
"193 640 CURVE SMOOTH",
"269 640 OFFCURVE",
"319 583 OFFCURVE",
"319 511 CURVE SMOOTH",
"319 424 OFFCURVE",
"247 352 OFFCURVE",
"171 287 CURVE",
"171 74 LINE SMOOTH",
"171 22 OFFCURVE",
"136 12 OFFCURVE",
"100 12 CURVE"
);
}
);
width = 462;
}
);
note = uni0241;
unicode = 0241;
},
{
color = 4;
glyphname = H;
lastChange = "2021-04-23 08:06:12 +0000";
layers = (
{
anchors = (
{
name = bottom;
position = "{353, 0}";
},
{
name = bottomright;
position = "{622, 0}";
},
{
name = center;
position = "{353, 340}";
},
{
name = top;
position = "{353, 680}";
},
{
name = topleft;
position = "{-1, 680}";
}
);
components = (
{
name = Serif;
},
{
name = Serif;
transform = "{1, 0, 0, -1, 0, 680}";
},
{
name = Serif;
transform = "{-1, 0, 0, 1, 737, 0}";
},
{
name = Serif;
transform = "{-1, 0, 0, -1, 737, 680}";
}
);
hints = (
{
horizontal = 1;
place = "{0, 21}";
target = up;
type = BottomGhost;
},
{
horizontal = 1;
place = "{340, 35}";
type = Stem;
},
{
horizontal = 1;
place = "{680, -20}";
target = down;
type = TopGhost;
},
{
place = "{86, 195}";
type = Stem;
},
{
place = "{425, 195}";
type = Stem;
}
);
layerId = "1E8F490F-00FE-4BD6-A503-902369003CC3";
paths = (
{
closed = 1;
nodes = (
"652 86 LINE",
"652 594 LINE",
"456 594 LINE",
"456 86 LINE"
);
},
{
closed = 1;
nodes = (
"281 86 LINE",
"281 594 LINE",
"85 594 LINE",
"85 86 LINE"
);
},
{
closed = 1;
nodes = (
"465 340 LINE",
"465 375 LINE",
"273 375 LINE",
"273 340 LINE"
);
}
);
width = 737;
},
{
anchors = (
{
name = bottom;
position = "{301, 0}";
},
{
name = bottomright;
position = "{522, 0}";
},
{
name = center;
position = "{301, 340}";
},
{
name = top;
position = "{301, 680}";
},
{
name = topleft;
position = "{-13, 680}";
}
);
components = (
{
name = Serif;
},
{
name = Serif;
transform = "{1, 0, 0, -1, 0, 680}";
},
{
name = Serif;
transform = "{-1, 0, 0, 1, 606, 0}";
},
{
name = Serif;
transform = "{-1, 0, 0, -1, 606, 680}";
}
);
hints = (
{
horizontal = 1;
place = "{8, 21}";
target = up;
type = BottomGhost;
},
{
horizontal = 1;
place = "{688, -20}";
target = down;
type = TopGhost;
},
{
place = "{104, 37}";
type = Stem;
},
{
place = "{513, 37}";
type = Stem;
}
);
layerId = "07AD8005-5D45-4A63-B3CF-4E1D9502446D";
paths = (
{
closed = 1;
nodes = (
"522 66 LINE",
"522 614 LINE",
"493 614 LINE",
"493 66 LINE"
);
},
{
closed = 1;
nodes = (
"113 66 LINE",
"113 614 LINE",
"84 614 LINE",
"84 66 LINE"
);
},
{
closed = 1;
nodes = (
"495 355 LINE",
"495 365 LINE",
"111 365 LINE",
"111 355 LINE"
);
}
);
width = 606;
},
{
anchors = (
{
name = bottom;
position = "{344, 0}";
},
{
name = bottomright;
position = "{591, 0}";
},
{
name = center;
position = "{344, 340}";
},
{
name = top;
position = "{344, 680}";
},
{
name = topleft;
position = "{10, 680}";
}
);
components = (
{
name = Serif;
transform = "{1, 0, 0, 1, 6, 0}";
},
{
name = Serif;
transform = "{1, 0, 0, -1, 6, 680}";
},
{
name = Serif;
transform = "{-1, 0, 0, 1, 681, 0}";
},
{
name = Serif;
transform = "{-1, 0, 0, -1, 681, 680}";
}
);
hints = (
{
horizontal = 1;
place = "{5, 21}";
target = up;
type = BottomGhost;
},
{
horizontal = 1;
place = "{352, 27}";
type = Stem;
},
{
horizontal = 1;
place = "{685, -20}";
target = down;
type = TopGhost;
},
{
place = "{111, 90}";
type = Stem;
},
{
place = "{520, 90}";
type = Stem;
}
);
layerId = "3FA0091B-41E8-4679-8383-4E36DA6A759B";
paths = (
{
closed = 1;
nodes = (
"590 74 LINE",
"590 606 LINE",
"505 606 LINE",
"505 74 LINE"
);
},
{
closed = 1;
nodes = (
"182 74 LINE",
"182 606 LINE",
"97 606 LINE",
"97 74 LINE"
);
},
{
closed = 1;
nodes = (
"512 347 LINE",
"512 369 LINE",
"177 369 LINE",
"177 347 LINE"
);
}
);
width = 687;
}
);
leftKerningGroup = H;
note = H;
rightKerningGroup = H;
rightMetricsKey = "=|";
unicode = 0048;
},
{
color = 4;
glyphname = Hbar;
lastChange = "2021-04-23 08:16:32 +0000";
layers = (
{
components = (
{
name = H;
}
);
hints = (
{
horizontal = 1;
place = "{0, 21}";
target = up;
type = BottomGhost;
},
{
horizontal = 1;
place = "{340, 35}";
type = Stem;
},
{
horizontal = 1;
place = "{510, 35}";
type = Stem;
},
{
place = "{86, 195}";
type = Stem;
},
{
place = "{425, 195}";
type = Stem;
},
{
horizontal = 1;
place = "{510, 170}";
type = Stem;
}
);
layerId = "1E8F490F-00FE-4BD6-A503-902369003CC3";
paths = (
{
closed = 1;
nodes = (
"709 500 LINE",
"709 535 LINE",
"32 535 LINE",
"32 500 LINE"
);
}
);
width = 708;
},
{
components = (
{
name = H;
}
);
hints = (
{
horizontal = 1;
place = "{8, 21}";
target = up;
type = BottomGhost;
},
{
horizontal = 1;
place = "{688, -20}";
target = down;
type = TopGhost;
},
{
place = "{104, 37}";
type = Stem;
},
{
place = "{513, 37}";
type = Stem;
}
);
layerId = "07AD8005-5D45-4A63-B3CF-4E1D9502446D";
paths = (
{
closed = 1;
nodes = (
"578 513 LINE",
"578 523 LINE",
"28 523 LINE",
"28 513 LINE"
);
}
);
width = 606;
},
{
components = (
{
name = H;
}
);
hints = (
{
horizontal = 1;
place = "{5, 21}";
target = up;
type = BottomGhost;
},
{
horizontal = 1;
place = "{352, 27}";
type = Stem;
},
{
horizontal = 1;
place = "{685, -20}";
target = down;
type = TopGhost;
},
{
place = "{111, 90}";
type = Stem;
},
{
place = "{520, 90}";
type = Stem;
}
);
layerId = "3FA0091B-41E8-4679-8383-4E36DA6A759B";
paths = (
{
closed = 1;
nodes = (
"666 507 LINE",
"666 529 LINE",
"20 529 LINE",
"20 507 LINE"
);
}
);
width = 687;
}
);
leftKerningGroup = H;
note = Hbar;
rightKerningGroup = H;
unicode = 0126;
},
{
color = 4;
glyphname = I;
lastChange = "2021-04-23 08:15:35 +0000";
layers = (
{
anchors = (
{
name = bottom;
position = "{185, 0}";
},
{
name = ogonek;
position = "{281, 0}";
},
{
name = top;
position = "{185, 680}";
},
{
name = topleft;
position = "{-1, 680}";
}
);
hints = (
{
horizontal = 1;
place = "{0, 21}";
target = up;
type = BottomGhost;
},
{
horizontal = 1;
place = "{680, -20}";
target = down;
type = TopGhost;
},
{
place = "{86, 195}";
type = Stem;
}
);
layerId = "1E8F490F-00FE-4BD6-A503-902369003CC3";
paths = (
{
closed = 1;
nodes = (
"352 0 LINE",
"352 16 LINE",
"296 16 OFFCURVE",
"281 34 OFFCURVE",
"281 86 CURVE SMOOTH",
"281 594 LINE SMOOTH",
"281 646 OFFCURVE",
"296 664 OFFCURVE",
"352 664 CURVE",
"352 680 LINE",
"14 680 LINE",
"14 664 LINE",
"70 664 OFFCURVE",
"85 646 OFFCURVE",
"85 594 CURVE SMOOTH",
"85 86 LINE SMOOTH",
"85 34 OFFCURVE",
"70 16 OFFCURVE",
"14 16 CURVE",
"14 0 LINE"
);
}
);
width = 366;
},
{
anchors = (
{
name = bottom;
position = "{99, 0}";
},
{
name = ogonek;
position = "{164, 0}";
},
{
name = top;
position = "{99, 680}";
},
{
name = topleft;
position = "{-12, 680}";
}
);
hints = (
{
horizontal = 1;
place = "{8, 21}";
target = up;
type = BottomGhost;
},
{
horizontal = 1;
place = "{688, -20}";
target = down;
type = TopGhost;
},
{
place = "{104, 37}";
type = Stem;
}
);
layerId = "07AD8005-5D45-4A63-B3CF-4E1D9502446D";
paths = (
{
closed = 1;
nodes = (
"164 0 LINE",
"164 7 LINE",
"118 7 OFFCURVE",
"113 14 OFFCURVE",
"113 66 CURVE SMOOTH",
"113 614 LINE SMOOTH",
"113 666 OFFCURVE",
"118 673 OFFCURVE",
"164 673 CURVE",
"164 680 LINE",
"33 680 LINE",
"33 673 LINE",
"79 673 OFFCURVE",
"84 666 OFFCURVE",
"84 614 CURVE SMOOTH",
"84 66 LINE SMOOTH",
"84 14 OFFCURVE",
"79 7 OFFCURVE",
"33 7 CURVE",
"33 0 LINE"
);
}
);
width = 197;
},
{
anchors = (
{
name = bottom;
position = "{141, 0}";
},
{
name = ogonek;
position = "{182, 0}";
},
{
name = top;
position = "{141, 680}";
},
{
name = topleft;
position = "{-9, 680}";
}
);
hints = (
{
horizontal = 1;
place = "{5, 21}";
target = up;
type = BottomGhost;
},
{
horizontal = 1;
place = "{685, -20}";
target = down;
type = TopGhost;
},
{
place = "{111, 90}";
type = Stem;
}
);
layerId = "3FA0091B-41E8-4679-8383-4E36DA6A759B";
paths = (
{
closed = 1;
nodes = (
"253 0 LINE",
"253 12 LINE",
"197 12 OFFCURVE",
"182 22 OFFCURVE",
"182 74 CURVE SMOOTH",
"182 606 LINE SMOOTH",
"182 658 OFFCURVE",
"197 668 OFFCURVE",
"253 668 CURVE",
"253 680 LINE",
"26 680 LINE",
"26 668 LINE",
"82 668 OFFCURVE",
"97 658 OFFCURVE",
"97 606 CURVE SMOOTH",
"97 74 LINE SMOOTH",
"97 22 OFFCURVE",
"82 12 OFFCURVE",
"26 12 CURVE",
"26 0 LINE"
);
}
);
width = 279;
}
);
leftKerningGroup = H;
leftMetricsKey = H;
note = I;
rightKerningGroup = H;
rightMetricsKey = "=|";
unicode = 0049;
},
{
color = 4;
glyphname = Istroke;
lastChange = "2021-04-23 08:18:14 +0000";
layers = (
{
components = (
{
name = I;
}
);
hints = (
{
horizontal = 1;
place = "{0, 21}";
target = up;
type = BottomGhost;
},
{
horizontal = 1;
place = "{340, 35}";
type = Stem;
},
{
horizontal = 1;
place = "{680, -20}";
target = down;
type = TopGhost;
},
{
place = "{86, 195}";
type = Stem;
}
);
layerId = "1E8F490F-00FE-4BD6-A503-902369003CC3";
paths = (
{
closed = 1;
nodes = (
"350 340 LINE",
"350 375 LINE",
"20 375 LINE",
"20 340 LINE"
);
}
);
width = 368;
},
{
components = (
{
name = I;
}
);
hints = (
{
horizontal = 1;
place = "{8, 21}";
target = up;
type = BottomGhost;
},
{
horizontal = 1;
place = "{688, -20}";
target = down;
type = TopGhost;
},
{
place = "{104, 37}";
type = Stem;
}
);
layerId = "07AD8005-5D45-4A63-B3CF-4E1D9502446D";
paths = (
{
closed = 1;
nodes = (
"179 353 LINE",
"179 363 LINE",
"18 363 LINE",
"18 353 LINE"
);
}
);
width = 197;
},
{
components = (
{
name = I;
}
);
hints = (
{
horizontal = 1;
place = "{5, 21}";
target = up;
type = BottomGhost;
},
{
horizontal = 1;
place = "{352, 27}";
type = Stem;
},
{
horizontal = 1;
place = "{685, -20}";
target = down;
type = TopGhost;
},
{
place = "{111, 90}";
type = Stem;
}
);
layerId = "3FA0091B-41E8-4679-8383-4E36DA6A759B";
paths = (
{
closed = 1;
nodes = (
"257 347 LINE",
"257 369 LINE",
"20 369 LINE",
"20 347 LINE"
);
}
);
width = 279;
}
);
leftKerningGroup = H;
note = uni0197;
rightKerningGroup = H;
unicode = 0197;
},
{
color = 4;
glyphname = J;
lastChange = "2021-04-23 07:00:38 +0000";
layers = (
{
anchors = (
{
name = top;
position = "{181, 680}";
}
);
hints = (
{
horizontal = 1;
place = "{-151, 21}";
target = up;
type = BottomGhost;
},
{
horizontal = 1;
place = "{680, -20}";
target = down;
type = TopGhost;
},
{
place = "{86, 195}";
type = Stem;
}
);
layerId = "1E8F490F-00FE-4BD6-A503-902369003CC3";
paths = (
{
closed = 1;
nodes = (
"0 -151 LINE",
"120 -132 OFFCURVE",
"282 -96 OFFCURVE",
"282 112 CURVE SMOOTH",
"282 594 LINE SMOOTH",
"282 646 OFFCURVE",
"297 664 OFFCURVE",
"353 664 CURVE",
"353 680 LINE",
"15 680 LINE",
"15 664 LINE",
"71 664 OFFCURVE",
"86 646 OFFCURVE",
"86 594 CURVE SMOOTH",
"86 85 LINE SMOOTH",
"86 -74 OFFCURVE",
"67 -117 OFFCURVE",
"0 -135 CURVE"
);
}
);
width = 367;
},
{
anchors = (
{
name = top;
position = "{119, 680}";
}
);
hints = (
{
horizontal = 1;
place = "{-143, 21}";
target = up;
type = BottomGhost;
},
{
horizontal = 1;
place = "{688, -20}";
target = down;
type = TopGhost;
},
{
place = "{104, 37}";
type = Stem;
}
);
layerId = "07AD8005-5D45-4A63-B3CF-4E1D9502446D";
paths = (
{
closed = 1;
nodes = (
"-2 -151 LINE",
"86 -129 OFFCURVE",
"133 -108 OFFCURVE",
"133 78 CURVE SMOOTH",
"133 614 LINE SMOOTH",
"133 666 OFFCURVE",
"138 673 OFFCURVE",
"184 673 CURVE",
"184 680 LINE",
"53 680 LINE",
"53 673 LINE",
"99 673 OFFCURVE",
"104 666 OFFCURVE",
"104 614 CURVE SMOOTH",
"104 65 LINE SMOOTH",
"104 -94 OFFCURVE",
"65 -124 OFFCURVE",
"-2 -142 CURVE"
);
}
);
width = 237;
},
{
anchors = (
{
name = top;
position = "{136, 680}";
}
);
hints = (
{
horizontal = 1;
place = "{-146, 21}";
target = up;
type = BottomGhost;
},
{
horizontal = 1;
place = "{685, -20}";
target = down;
type = TopGhost;
},
{
place = "{111, 90}";
type = Stem;
}
);
layerId = "3FA0091B-41E8-4679-8383-4E36DA6A759B";
paths = (
{
closed = 1;
nodes = (
"-15 -151 LINE",
"100 -118 OFFCURVE",
"176 -96 OFFCURVE",
"176 112 CURVE SMOOTH",
"176 606 LINE SMOOTH",
"176 658 OFFCURVE",
"191 668 OFFCURVE",
"247 668 CURVE",
"247 680 LINE",
"20 680 LINE",
"20 668 LINE",
"76 668 OFFCURVE",
"91 658 OFFCURVE",
"91 606 CURVE SMOOTH",
"91 85 LINE SMOOTH",
"91 -74 OFFCURVE",
"52 -124 OFFCURVE",
"-15 -142 CURVE"
);
}
);
width = 267;
}
);
note = J;
rightKerningGroup = IJ;
unicode = 004A;
},
{
color = 4;
glyphname = K;
lastChange = "2021-04-23 08:15:35 +0000";
layers = (
{
anchors = (
{
name = bottom;
position = "{329, 0}";
},
{
name = top;
position = "{334, 680}";
}
);
hints = (
{
horizontal = 1;
place = "{0, 21}";
target = up;
type = BottomGhost;
},
{
horizontal = 1;
place = "{680, -20}";
target = down;
type = TopGhost;
},
{
place = "{281, 175}";
type = Stem;
},
{
place = "{86, 195}";
type = Stem;
}
);
layerId = "1E8F490F-00FE-4BD6-A503-902369003CC3";
paths = (
{
closed = 1;
nodes = (
"339 0 LINE",
"339 16 LINE",
"284 16 OFFCURVE",
"281 34 OFFCURVE",
"281 86 CURVE SMOOTH",
"281 349 LINE",
"282 349 LINE",
"415 70 LINE SMOOTH",
"436 27 OFFCURVE",
"429 16 OFFCURVE",
"398 16 CURVE",
"398 0 LINE",
"703 0 LINE",
"703 16 LINE",
"670 16 OFFCURVE",
"663 25 OFFCURVE",
"643 63 CURVE SMOOTH",
"416 502 LINE",
"414 470 LINE",
"454 513 OFFCURVE",
"480 541 OFFCURVE",
"522 593 CURVE SMOOTH",
"574 658 OFFCURVE",
"603 664 OFFCURVE",
"652 664 CURVE",
"652 680 LINE",
"419 680 LINE",
"419 664 LINE",
"502 664 OFFCURVE",
"530 648 OFFCURVE",
"432 533 CURVE SMOOTH",
"384 477 OFFCURVE",
"324 419 OFFCURVE",
"283 372 CURVE",
"281 372 LINE",
"281 594 LINE SMOOTH",
"281 646 OFFCURVE",
"293 664 OFFCURVE",
"348 664 CURVE",
"348 680 LINE",
"14 680 LINE",
"14 664 LINE",
"70 664 OFFCURVE",
"85 646 OFFCURVE",
"85 594 CURVE SMOOTH",
"85 86 LINE SMOOTH",
"85 34 OFFCURVE",
"70 16 OFFCURVE",
"14 16 CURVE",
"14 0 LINE"
);
}
);
width = 686;
},
{
anchors = (
{
name = bottom;
position = "{278, 0}";
},
{
name = top;
position = "{263, 680}";
}
);
hints = (
{
horizontal = 1;
place = "{8, 21}";
target = up;
type = BottomGhost;
},
{
horizontal = 1;
place = "{688, -20}";
target = down;
type = TopGhost;
},
{
place = "{104, 37}";
type = Stem;
}
);
layerId = "07AD8005-5D45-4A63-B3CF-4E1D9502446D";
paths = (
{
closed = 1;
nodes = (
"164 0 LINE",
"164 7 LINE",
"118 7 OFFCURVE",
"113 14 OFFCURVE",
"113 66 CURVE SMOOTH",
"113 350 LINE",
"114 350 LINE",
"406 52 LINE SMOOTH",
"444 14 OFFCURVE",
"444 7 OFFCURVE",
"404 7 CURVE",
"404 0 LINE",
"538 0 LINE",
"538 7 LINE",
"505 7 OFFCURVE",
"486 15 OFFCURVE",
"440 62 CURVE SMOOTH",
"134 372 LINE",
"122 352 LINE",
"192 419 OFFCURVE",
"276 502 OFFCURVE",
"352 576 CURVE SMOOTH",
"447 668 OFFCURVE",
"459 673 OFFCURVE",
"492 673 CURVE",
"492 680 LINE",
"365 680 LINE",
"365 673 LINE",
"416 673 OFFCURVE",
"419 656 OFFCURVE",
"346 585 CURVE SMOOTH",
"262 504 OFFCURVE",
"203 443 OFFCURVE",
"115 359 CURVE",
"113 359 LINE",
"113 614 LINE SMOOTH",
"113 666 OFFCURVE",
"118 673 OFFCURVE",
"164 673 CURVE",
"164 680 LINE",
"33 680 LINE",
"33 673 LINE",
"79 673 OFFCURVE",
"84 666 OFFCURVE",
"84 614 CURVE SMOOTH",
"84 66 LINE SMOOTH",
"84 14 OFFCURVE",
"79 7 OFFCURVE",
"33 7 CURVE",
"33 0 LINE"
);
}
);
width = 545;
},
{
anchors = (
{
name = bottom;
position = "{311, 0}";
},
{
name = top;
position = "{296, 680}";
}
);
hints = (
{
horizontal = 1;
place = "{5, 21}";
target = up;
type = BottomGhost;
},
{
horizontal = 1;
place = "{685, -20}";
target = down;
type = TopGhost;
},
{
place = "{111, 90}";
type = Stem;
}
);
layerId = "3FA0091B-41E8-4679-8383-4E36DA6A759B";
paths = (
{
closed = 1;
nodes = (
"253 0 LINE",
"253 12 LINE",
"197 12 OFFCURVE",
"182 22 OFFCURVE",
"182 74 CURVE SMOOTH",
"182 339 LINE",
"183 339 LINE",
"401 70 LINE SMOOTH",
"433 31 OFFCURVE",
"424 12 OFFCURVE",
"377 12 CURVE",
"377 0 LINE",
"618 0 LINE",
"618 12 LINE",
"585 12 OFFCURVE",
"548 31 OFFCURVE",
"521 63 CURVE SMOOTH",
"238 403 LINE",
"226 371 LINE",
"293 443 OFFCURVE",
"359 513 OFFCURVE",
"426 584 CURVE SMOOTH",
"486 649 OFFCURVE",
"518 668 OFFCURVE",
"559 668 CURVE",
"559 680 LINE",
"368 680 LINE",
"368 668 LINE",
"441 668 OFFCURVE",
"445 634 OFFCURVE",
"355 536 CURVE SMOOTH",
"298 474 OFFCURVE",
"240 413 OFFCURVE",
"183 351 CURVE",
"182 351 LINE",
"182 606 LINE SMOOTH",
"182 658 OFFCURVE",
"197 668 OFFCURVE",
"253 668 CURVE",
"253 680 LINE",
"26 680 LINE",
"26 668 LINE",
"82 668 OFFCURVE",
"97 658 OFFCURVE",
"97 606 CURVE SMOOTH",
"97 74 LINE SMOOTH",
"97 22 OFFCURVE",
"82 12 OFFCURVE",
"26 12 CURVE",
"26 0 LINE"
);
}
);
width = 607;
},
{
anchors = (
{
name = bottom;
position = "{329, 0}";
},
{
name = top;
position = "{334, 680}";
}
);
associatedMasterId = "1E8F490F-00FE-4BD6-A503-902369003CC3";
hints = (
{
horizontal = 1;
place = "{0, 21}";
target = up;
type = BottomGhost;
},
{
horizontal = 1;
place = "{680, -20}";
target = down;
type = TopGhost;
},
{
place = "{281, 175}";
type = Stem;
},
{
place = "{86, 195}";
type = Stem;
}
);
layerId = "B08A2FBA-AE9C-450E-BF53-F3C14F614AFA";
name = "Apr 20 21, 15:00";
paths = (
{
closed = 1;
nodes = (
"339 0 LINE",
"339 16 LINE",
"284 16 OFFCURVE",
"281 34 OFFCURVE",
"281 86 CURVE SMOOTH",
"281 320 LINE",
"282 320 LINE",
"385 70 LINE SMOOTH",
"404 24 OFFCURVE",
"399 16 OFFCURVE",
"368 16 CURVE",
"368 0 LINE",
"673 0 LINE",
"673 16 LINE",
"640 16 OFFCURVE",
"631 25 OFFCURVE",
"613 63 CURVE SMOOTH",
"418 470 LINE",
"430 488 OFFCURVE",
"466 541 OFFCURVE",
"500 584 CURVE SMOOTH",
"552 649 OFFCURVE",
"573 664 OFFCURVE",
"622 664 CURVE",
"622 680 LINE",
"389 680 LINE",
"389 664 LINE",
"472 664 OFFCURVE",
"480 619 OFFCURVE",
"402 504 CURVE SMOOTH",
"361 443 OFFCURVE",
"322 390 OFFCURVE",
"283 343 CURVE",
"281 343 LINE",
"281 594 LINE SMOOTH",
"281 646 OFFCURVE",
"293 664 OFFCURVE",
"348 664 CURVE",
"348 680 LINE",
"14 680 LINE",
"14 664 LINE",
"70 664 OFFCURVE",
"85 646 OFFCURVE",
"85 594 CURVE SMOOTH",
"85 86 LINE SMOOTH",
"85 34 OFFCURVE",
"70 16 OFFCURVE",
"14 16 CURVE",
"14 0 LINE"
);
}
);
width = 670;
}
);
leftKerningGroup = H;
leftMetricsKey = H;
note = K;
rightKerningGroup = K;
unicode = 004B;
},
{
color = 4;
glyphname = L;
lastChange = "2021-04-23 08:20:16 +0000";
layers = (
{
anchors = (
{
name = bottom;
position = "{316, 0}";
},
{
name = center;
position = "{410, 340}";
},
{
name = top;
position = "{184, 680}";
},
{
name = topright;
position = "{442, 680}";
}
);
hints = (
{
horizontal = 1;
place = "{0, 36}";
type = Stem;
},
{
horizontal = 1;
place = "{680, -20}";
target = down;
type = TopGhost;
},
{
place = "{86, 196}";
type = Stem;
}
);
layerId = "1E8F490F-00FE-4BD6-A503-902369003CC3";
paths = (
{
closed = 1;
nodes = (
"14 0 LINE",
"512 0 LINE",
"512 179 LINE",
"496 179 LINE",
"496 72 OFFCURVE",
"461 36 OFFCURVE",
"367 36 CURVE SMOOTH",
"338 36 LINE SMOOTH",
"303 36 OFFCURVE",
"281 43 OFFCURVE",
"281 96 CURVE SMOOTH",
"281 594 LINE SMOOTH",
"281 646 OFFCURVE",
"296 664 OFFCURVE",
"352 664 CURVE",
"352 680 LINE",
"14 680 LINE",
"14 664 LINE",
"70 664 OFFCURVE",
"85 646 OFFCURVE",
"85 594 CURVE SMOOTH",
"85 86 LINE SMOOTH",
"85 34 OFFCURVE",
"70 16 OFFCURVE",
"14 16 CURVE"
);
}
);
width = 527;
},
{
anchors = (
{
name = bottom;
position = "{230, 0}";
},
{
name = center;
position = "{259, 340}";
},
{
name = top;
position = "{98, 680}";
},
{
name = topright;
position = "{276, 680}";
}
);
hints = (
{
horizontal = 1;
place = "{8, 21}";
target = up;
type = BottomGhost;
},
{
horizontal = 1;
place = "{688, -20}";
target = down;
type = TopGhost;
},
{
place = "{104, 37}";
type = Stem;
}
);
layerId = "07AD8005-5D45-4A63-B3CF-4E1D9502446D";
paths = (
{
closed = 1;
nodes = (
"33 0 LINE",
"411 0 LINE",
"411 117 LINE",
"401 117 LINE",
"401 12 OFFCURVE",
"381 10 OFFCURVE",
"307 10 CURVE SMOOTH",
"163 10 LINE SMOOTH",
"121 10 OFFCURVE",
"113 14 OFFCURVE",
"113 66 CURVE SMOOTH",
"113 614 LINE SMOOTH",
"113 666 OFFCURVE",
"118 673 OFFCURVE",
"164 673 CURVE",
"164 680 LINE",
"33 680 LINE",
"33 673 LINE",
"79 673 OFFCURVE",
"84 666 OFFCURVE",
"84 614 CURVE SMOOTH",
"84 66 LINE SMOOTH",
"84 14 OFFCURVE",
"79 7 OFFCURVE",
"33 7 CURVE"
);
}
);
width = 437;
},
{
anchors = (
{
name = bottom;
position = "{273, 0}";
},
{
name = center;
position = "{302, 340}";
},
{
name = top;
position = "{141, 680}";
},
{
name = topright;
position = "{349, 680}";
}
);
hints = (
{
horizontal = 1;
place = "{5, 27}";
type = Stem;
},
{
horizontal = 1;
place = "{685, -20}";
target = down;
type = TopGhost;
},
{
place = "{111, 90}";
type = Stem;
}
);
layerId = "3FA0091B-41E8-4679-8383-4E36DA6A759B";
paths = (
{
closed = 1;
nodes = (
"26 0 LINE",
"454 0 LINE",
"454 159 LINE",
"438 159 LINE",
"438 51 OFFCURVE",
"413 22 OFFCURVE",
"309 22 CURVE SMOOTH",
"226 22 LINE SMOOTH",
"194 22 OFFCURVE",
"182 30 OFFCURVE",
"182 74 CURVE SMOOTH",
"182 606 LINE SMOOTH",
"182 658 OFFCURVE",
"198 668 OFFCURVE",
"257 668 CURVE",
"257 680 LINE",
"26 680 LINE",
"26 668 LINE",
"82 668 OFFCURVE",
"97 658 OFFCURVE",
"97 606 CURVE SMOOTH",
"97 74 LINE SMOOTH",
"97 22 OFFCURVE",
"82 12 OFFCURVE",
"26 12 CURVE"
);
}
);
width = 477;
}
);
leftKerningGroup = H;
leftMetricsKey = H;
note = L;
rightKerningGroup = L;
unicode = 004C;
},
{
color = 4;
glyphname = Lslash;
lastChange = "2021-04-23 08:20:51 +0000";
layers = (
{
components = (
{
name = L;
}
);
hints = (
{
horizontal = 1;
place = "{0, 36}";
type = Stem;
},
{
horizontal = 1;
place = "{680, -20}";
target = down;
type = TopGhost;
},
{
place = "{86, 196}";
type = Stem;
}
);
layerId = "1E8F490F-00FE-4BD6-A503-902369003CC3";
paths = (
{
closed = 1;
nodes = (
"23 254 LINE",
"409 388 LINE",
"398 421 LINE",
"11 287 LINE"
);
}
);
width = 527;
},
{
components = (
{
name = L;
}
);
hints = (
{
horizontal = 1;
place = "{8, 21}";
target = up;
type = BottomGhost;
},
{
horizontal = 1;
place = "{688, -20}";
target = down;
type = TopGhost;
},
{
place = "{104, 37}";
type = Stem;
}
);
layerId = "07AD8005-5D45-4A63-B3CF-4E1D9502446D";
paths = (
{
closed = 1;
nodes = (
"24 238 LINE",
"310 372 LINE",
"307 381 LINE",
"20 247 LINE"
);
}
);
width = 437;
},
{
components = (
{
name = L;
}
);
hints = (
{
horizontal = 1;
place = "{5, 27}";
type = Stem;
},
{
horizontal = 1;
place = "{685, -20}";
target = down;
type = TopGhost;
},
{
place = "{111, 90}";
type = Stem;
}
);
layerId = "3FA0091B-41E8-4679-8383-4E36DA6A759B";
paths = (
{
closed = 1;
nodes = (
"28 264 LINE",
"314 398 LINE",
"304 421 LINE",
"17 287 LINE"
);
}
);
width = 477;
}
);
leftKerningGroup = H;
note = Lslash;
rightKerningGroup = L;
unicode = 0141;
},
{
color = 4;
glyphname = M;
lastChange = "2021-04-23 08:15:35 +0000";
layers = (
{
anchors = (
{
name = bottom;
position = "{338, 0}";
},
{
name = bottomright;
position = "{736, 0}";
},
{
name = top;
position = "{398, 680}";
}
);
hints = (
{
horizontal = 1;
place = "{0, 21}";
target = up;
type = BottomGhost;
},
{
horizontal = 1;
place = "{680, -20}";
target = down;
type = TopGhost;
},
{
place = "{86, 35}";
type = Stem;
},
{
place = "{551, 195}";
type = Stem;
}
);
layerId = "1E8F490F-00FE-4BD6-A503-902369003CC3";
paths = (
{
closed = 1;
nodes = (
"5 0 LINE",
"182 0 LINE",
"182 16 LINE",
"126 16 OFFCURVE",
"111 34 OFFCURVE",
"111 86 CURVE SMOOTH",
"111 556 LINE",
"112 556 LINE",
"311 2 LINE",
"326 2 LINE",
"539 574 LINE",
"540 574 LINE",
"540 86 LINE SMOOTH",
"540 34 OFFCURVE",
"525 16 OFFCURVE",
"469 16 CURVE",
"469 0 LINE",
"807 0 LINE",
"807 16 LINE",
"751 16 OFFCURVE",
"736 34 OFFCURVE",
"736 86 CURVE SMOOTH",
"736 594 LINE SMOOTH",
"736 646 OFFCURVE",
"751 664 OFFCURVE",
"807 664 CURVE",
"807 680 LINE",
"540 680 LINE",
"408 317 LINE",
"406 317 LINE",
"269 680 LINE",
"5 680 LINE",
"5 664 LINE",
"61 664 OFFCURVE",
"76 646 OFFCURVE",
"76 594 CURVE SMOOTH",
"76 86 LINE SMOOTH",
"76 34 OFFCURVE",
"61 16 OFFCURVE",
"5 16 CURVE"
);
}
);
width = 821;
},
{
anchors = (
{
name = bottom;
position = "{353, 0}";
},
{
name = bottomright;
position = "{650, 0}";
},
{
name = top;
position = "{361, 680}";
}
);
hints = (
{
horizontal = 1;
place = "{8, 21}";
target = up;
type = BottomGhost;
},
{
horizontal = 1;
place = "{688, -20}";
target = down;
type = TopGhost;
},
{
place = "{646, 37}";
type = Stem;
}
);
layerId = "07AD8005-5D45-4A63-B3CF-4E1D9502446D";
paths = (
{
closed = 1;
nodes = (
"28 0 LINE",
"140 0 LINE",
"140 7 LINE",
"94 7 OFFCURVE",
"89 14 OFFCURVE",
"89 66 CURVE SMOOTH",
"89 647 LINE",
"90 647 LINE",
"351 2 LINE",
"359 2 LINE",
"620 647 LINE",
"621 647 LINE",
"621 66 LINE SMOOTH",
"621 14 OFFCURVE",
"616 7 OFFCURVE",
"570 7 CURVE",
"570 0 LINE",
"701 0 LINE",
"701 7 LINE",
"655 7 OFFCURVE",
"650 14 OFFCURVE",
"650 66 CURVE SMOOTH",
"650 614 LINE SMOOTH",
"650 666 OFFCURVE",
"655 673 OFFCURVE",
"701 673 CURVE",
"701 680 LINE",
"623 680 LINE",
"366 46 LINE",
"364 46 LINE",
"108 680 LINE",
"28 680 LINE",
"28 673 LINE",
"74 673 OFFCURVE",
"79 666 OFFCURVE",
"79 614 CURVE SMOOTH",
"79 66 LINE SMOOTH",
"79 14 OFFCURVE",
"74 7 OFFCURVE",
"28 7 CURVE"
);
}
);
width = 734;
},
{
anchors = (
{
name = bottom;
position = "{373, 0}";
},
{
name = bottomright;
position = "{726, 0}";
},
{
name = top;
position = "{397, 680}";
}
);
hints = (
{
horizontal = 1;
place = "{5, 21}";
target = up;
type = BottomGhost;
},
{
horizontal = 1;
place = "{685, -20}";
target = down;
type = TopGhost;
},
{
place = "{111, 28}";
type = Stem;
},
{
place = "{666, 90}";
type = Stem;
}
);
layerId = "3FA0091B-41E8-4679-8383-4E36DA6A759B";
paths = (
{
closed = 1;
nodes = (
"15 0 LINE",
"180 0 LINE",
"180 12 LINE",
"124 12 OFFCURVE",
"109 30 OFFCURVE",
"109 82 CURVE SMOOTH",
"109 601 LINE",
"110 601 LINE",
"366 2 LINE",
"384 2 LINE",
"640 614 LINE",
"641 614 LINE",
"641 74 LINE SMOOTH",
"641 22 OFFCURVE",
"626 12 OFFCURVE",
"570 12 CURVE",
"570 0 LINE",
"797 0 LINE",
"797 12 LINE",
"741 12 OFFCURVE",
"726 22 OFFCURVE",
"726 74 CURVE SMOOTH",
"726 606 LINE SMOOTH",
"726 658 OFFCURVE",
"741 668 OFFCURVE",
"797 668 CURVE",
"797 680 LINE",
"644 680 LINE",
"411 124 LINE",
"409 124 LINE",
"173 680 LINE",
"15 680 LINE",
"15 668 LINE",
"71 668 OFFCURVE",
"86 658 OFFCURVE",
"86 606 CURVE SMOOTH",
"86 82 LINE SMOOTH",
"86 30 OFFCURVE",
"71 12 OFFCURVE",
"15 12 CURVE"
);
}
);
width = 823;
}
);
leftKerningGroup = M;
note = M;
rightKerningGroup = H;
rightMetricsKey = H;
unicode = 004D;
},
{
color = 4;
glyphname = N;
lastChange = "2021-04-23 08:21:10 +0000";
layers = (
{
anchors = (
{
name = bottom;
position = "{330, 0}";
},
{
name = top;
position = "{330, 680}";
}
);
hints = (
{
horizontal = 1;
place = "{-6, 21}";
target = up;
type = BottomGhost;
},
{
horizontal = 1;
place = "{680, -20}";
target = down;
type = TopGhost;
},
{
place = "{79, 35}";
type = Stem;
},
{
place = "{509, 35}";
type = Stem;
},
{
horizontal = 1;
place = "{0, 21}";
target = up;
type = BottomGhost;
}
);
layerId = "1E8F490F-00FE-4BD6-A503-902369003CC3";
paths = (
{
closed = 1;
nodes = (
"566 -6 LINE",
"580 -6 LINE",
"580 594 LINE SMOOTH",
"580 646 OFFCURVE",
"586 664 OFFCURVE",
"646 664 CURVE",
"646 680 LINE",
"476 680 LINE",
"476 664 LINE",
"537 664 OFFCURVE",
"545 646 OFFCURVE",
"545 594 CURVE SMOOTH",
"545 294 LINE",
"571 339 LINE",
"499 339 LINE",
"571 303 LINE",
"266 680 LINE",
"14 680 LINE",
"14 664 LINE",
"60 664 OFFCURVE",
"85 642 OFFCURVE",
"85 574 CURVE SMOOTH",
"85 86 LINE SMOOTH",
"85 34 OFFCURVE",
"70 16 OFFCURVE",
"14 16 CURVE",
"14 0 LINE",
"190 0 LINE",
"190 16 LINE",
"128 16 OFFCURVE",
"120 34 OFFCURVE",
"120 86 CURVE SMOOTH",
"120 548 LINE",
"121 548 LINE"
);
}
);
width = 660;
},
{
anchors = (
{
name = bottom;
position = "{305, 0}";
},
{
name = top;
position = "{305, 680}";
}
);
hints = (
{
horizontal = 1;
place = "{2, 21}";
target = up;
type = BottomGhost;
},
{
horizontal = 1;
place = "{688, -20}";
target = down;
type = TopGhost;
},
{
horizontal = 1;
place = "{8, 21}";
target = up;
type = BottomGhost;
}
);
layerId = "07AD8005-5D45-4A63-B3CF-4E1D9502446D";
paths = (
{
closed = 1;
nodes = (
"517 -6 LINE",
"526 -6 LINE",
"526 614 LINE SMOOTH",
"526 666 OFFCURVE",
"531 673 OFFCURVE",
"577 673 CURVE",
"577 680 LINE",
"465 680 LINE",
"465 673 LINE",
"511 673 OFFCURVE",
"516 666 OFFCURVE",
"516 614 CURVE SMOOTH",
"516 6 LINE",
"523 51 LINE",
"492 51 LINE",
"525 36 LINE",
"105 680 LINE",
"33 680 LINE",
"33 673 LINE",
"79 673 OFFCURVE",
"84 666 OFFCURVE",
"84 614 CURVE SMOOTH",
"84 66 LINE SMOOTH",
"84 14 OFFCURVE",
"79 7 OFFCURVE",
"33 7 CURVE",
"33 0 LINE",
"145 0 LINE",
"145 7 LINE",
"99 7 OFFCURVE",
"94 14 OFFCURVE",
"94 66 CURVE SMOOTH",
"94 639 LINE",
"95 639 LINE"
);
}
);
width = 610;
},
{
anchors = (
{
name = bottom;
position = "{326, 0}";
},
{
name = top;
position = "{326, 680}";
}
);
hints = (
{
horizontal = 1;
place = "{-1, 21}";
target = up;
type = BottomGhost;
},
{
horizontal = 1;
place = "{685, -20}";
target = down;
type = TopGhost;
},
{
place = "{91, 28}";
type = Stem;
},
{
place = "{533, 28}";
type = Stem;
},
{
horizontal = 1;
place = "{5, 21}";
target = up;
type = BottomGhost;
}
);
layerId = "3FA0091B-41E8-4679-8383-4E36DA6A759B";
paths = (
{
closed = 1;
nodes = (
"544 -6 LINE",
"558 -6 LINE",
"558 598 LINE SMOOTH",
"558 650 OFFCURVE",
"564 668 OFFCURVE",
"625 668 CURVE",
"625 680 LINE",
"466 680 LINE",
"466 668 LINE",
"527 668 OFFCURVE",
"535 650 OFFCURVE",
"535 598 CURVE SMOOTH",
"535 120 LINE",
"547 165 LINE",
"489 165 LINE",
"555 135 LINE",
"173 680 LINE",
"27 680 LINE",
"27 668 LINE",
"73 668 OFFCURVE",
"93 646 OFFCURVE",
"93 594 CURVE SMOOTH",
"93 82 LINE SMOOTH",
"93 30 OFFCURVE",
"87 12 OFFCURVE",
"26 12 CURVE",
"26 0 LINE",
"185 0 LINE",
"185 12 LINE",
"124 12 OFFCURVE",
"116 30 OFFCURVE",
"116 82 CURVE SMOOTH",
"116 599 LINE",
"117 599 LINE"
);
}
);
width = 651;
}
);
leftKerningGroup = N;
leftMetricsKey = H;
note = N;
rightKerningGroup = N;
rightMetricsKey = H;
unicode = 004E;
},
{
glyphname = Eng;
lastChange = "2021-04-23 08:27:45 +0000";
layers = (
{
components = (
{
name = N;
}
);
hints = (
{
horizontal = 1;
place = "{-190, 31}";
type = Stem;
},
{
horizontal = 1;
place = "{0, 21}";
target = up;
type = BottomGhost;
},
{
horizontal = 1;
place = "{680, -20}";
target = down;
type = TopGhost;
},
{
place = "{79, 35}";
type = Stem;
},
{
place = "{509, 35}";
type = Stem;
}
);
layerId = "1E8F490F-00FE-4BD6-A503-902369003CC3";
paths = (
{
closed = 1;
nodes = (
"508 -186 OFFCURVE",
"580 -122 OFFCURVE",
"580 -28 CURVE SMOOTH",
"580 153 LINE",
"523 153 LINE",
"523 -17 LINE SMOOTH",
"523 -112 OFFCURVE",
"502 -160 OFFCURVE",
"455 -160 CURVE SMOOTH",
"433 -160 OFFCURVE",
"411 -149 OFFCURVE",
"394 -130 CURVE SMOOTH",
"372 -104 OFFCURVE",
"366 -69 OFFCURVE",
"332 -69 CURVE SMOOTH",
"310 -69 OFFCURVE",
"296 -84 OFFCURVE",
"296 -106 CURVE SMOOTH",
"296 -153 OFFCURVE",
"360 -186 OFFCURVE",
"419 -186 CURVE SMOOTH"
);
}
);
width = 660;
},
{
components = (
{
name = N;
}
);
hints = (
{
horizontal = 1;
place = "{2, 21}";
target = up;
type = BottomGhost;
},
{
horizontal = 1;
place = "{688, -20}";
target = down;
type = TopGhost;
},
{
horizontal = 1;
place = "{8, 21}";
target = up;
type = BottomGhost;
}
);
layerId = "07AD8005-5D45-4A63-B3CF-4E1D9502446D";
paths = (
{
closed = 1;
nodes = (
"485 -166 OFFCURVE",
"526 -116 OFFCURVE",
"526 -30 CURVE",
"526 41 LINE",
"507 41 LINE",
"507 -52 LINE SMOOTH",
"507 -114 OFFCURVE",
"472 -157 OFFCURVE",
"432 -157 CURVE SMOOTH",
"417 -157 OFFCURVE",
"408 -150 OFFCURVE",
"402 -143 CURVE SMOOTH",
"391 -130 OFFCURVE",
"387 -114 OFFCURVE",
"371 -114 CURVE SMOOTH",
"361 -114 OFFCURVE",
"355 -121 OFFCURVE",
"355 -130 CURVE SMOOTH",
"355 -151 OFFCURVE",
"386 -166 OFFCURVE",
"418 -166 CURVE SMOOTH"
);
}
);
width = 610;
},
{
components = (
{
name = N;
}
);
hints = (
{
horizontal = 1;
place = "{-185, 26}";
type = Stem;
},
{
horizontal = 1;
place = "{5, 21}";
target = up;
type = BottomGhost;
},
{
horizontal = 1;
place = "{685, -20}";
target = down;
type = TopGhost;
},
{
place = "{91, 28}";
type = Stem;
},
{
place = "{533, 28}";
type = Stem;
}
);
layerId = "3FA0091B-41E8-4679-8383-4E36DA6A759B";
paths = (
{
closed = 1;
nodes = (
"506 -166 OFFCURVE",
"558 -102 OFFCURVE",
"558 8 CURVE",
"558 63 LINE",
"517 63 LINE",
"517 -20 LINE SMOOTH",
"517 -99 OFFCURVE",
"490 -154 OFFCURVE",
"438 -154 CURVE SMOOTH",
"419 -154 OFFCURVE",
"408 -146 OFFCURVE",
"400 -136 CURVE SMOOTH",
"386 -120 OFFCURVE",
"381 -99 OFFCURVE",
"361 -99 CURVE SMOOTH",
"348 -99 OFFCURVE",
"340 -108 OFFCURVE",
"340 -120 CURVE SMOOTH",
"340 -147 OFFCURVE",
"380 -166 OFFCURVE",
"421 -166 CURVE SMOOTH"
);
}
);
width = 651;
}
);
leftMetricsKey = N;
note = Eng;
rightKerningGroup = N;
rightMetricsKey = N;
unicode = 014A;
},
{
color = 6;
glyphname = O;
lastChange = "2021-04-23 08:29:47 +0000";
layers = (
{
anchors = (
{
name = bottom;
position = "{338, 0}";
},
{
name = center;
position = "{338, 340}";
},
{
name = ogonek;
position = "{421, 0}";
},
{
name = top;
position = "{338, 680}";
},
{
name = topleft;
position = "{4, 680}";
},
{
name = topright;
position = "{339, 696}";
}
);
background = {
components = (
{
name = G;
transform = "{1, 0, 0, 1, -8, 0}";
}
);
};
hints = (
{
horizontal = 1;
place = "{-11, 25}";
type = Stem;
},
{
horizontal = 1;
place = "{665, 25}";
type = Stem;
},
{
place = "{27, 215}";
type = Stem;
},
{
place = "{432, 216}";
type = Stem;
}
);
layerId = "1E8F490F-00FE-4BD6-A503-902369003CC3";
paths = (
{
closed = 1;
nodes = (
"533 -12 OFFCURVE",
"660 134 OFFCURVE",
"660 344 CURVE SMOOTH",
"660 564 OFFCURVE",
"533 696 OFFCURVE",
"339 696 CURVE SMOOTH",
"145 696 OFFCURVE",
"19 558 OFFCURVE",
"19 338 CURVE SMOOTH",
"19 128 OFFCURVE",
"145 -12 OFFCURVE",
"339 -12 CURVE SMOOTH"
);
},
{
closed = 1;
nodes = (
"273 13 OFFCURVE",
"234 88 OFFCURVE",
"234 344 CURVE SMOOTH",
"234 610 OFFCURVE",
"273 671 OFFCURVE",
"339 671 CURVE SMOOTH",
"405 671 OFFCURVE",
"444 604 OFFCURVE",
"444 338 CURVE SMOOTH",
"444 82 OFFCURVE",
"405 13 OFFCURVE",
"339 13 CURVE SMOOTH"
);
}
);
width = 679;
},
{
anchors = (
{
name = bottom;
position = "{343, 0}";
},
{
name = center;
position = "{343, 340}";
},
{
name = ogonek;
position = "{426, 0}";
},
{
name = top;
position = "{343, 680}";
},
{
name = topleft;
position = "{59, 680}";
},
{
name = topright;
position = "{344, 696}";
}
);
background = {
components = (
{
name = G;
transform = "{1, 0, 0, 1, -4, 0}";
}
);
};
hints = (
{
horizontal = 1;
place = "{-3, 17}";
type = Stem;
},
{
horizontal = 1;
place = "{689, 17}";
type = Stem;
},
{
place = "{44, 40}";
type = Stem;
},
{
place = "{618, 40}";
type = Stem;
}
);
layerId = "07AD8005-5D45-4A63-B3CF-4E1D9502446D";
paths = (
{
closed = 1;
nodes = (
"487 -12 OFFCURVE",
"648 107 OFFCURVE",
"648 342 CURVE SMOOTH",
"648 577 OFFCURVE",
"490 696 OFFCURVE",
"344 696 CURVE SMOOTH",
"198 696 OFFCURVE",
"40 577 OFFCURVE",
"40 342 CURVE SMOOTH",
"40 107 OFFCURVE",
"201 -12 OFFCURVE",
"344 -12 CURVE SMOOTH"
);
},
{
closed = 1;
nodes = (
"223 -4 OFFCURVE",
"72 98 OFFCURVE",
"72 341 CURVE SMOOTH",
"72 583 OFFCURVE",
"221 688 OFFCURVE",
"344 688 CURVE SMOOTH",
"467 688 OFFCURVE",
"616 583 OFFCURVE",
"616 341 CURVE SMOOTH",
"616 98 OFFCURVE",
"465 -4 OFFCURVE",
"344 -4 CURVE SMOOTH"
);
}
);
width = 688;
},
{
anchors = (
{
name = bottom;
position = "{364, 0}";
},
{
name = center;
position = "{364, 340}";
},
{
name = ogonek;
position = "{447, 0}";
},
{
name = top;
position = "{364, 680}";
},
{
name = topleft;
position = "{70, 680}";
},
{
name = topright;
position = "{364, 696}";
}
);
background = {
components = (
{
name = G;
transform = "{1, 0, 0, 1, -8, 0}";
}
);
};
hints = (
{
horizontal = 1;
place = "{-6, 21}";
target = up;
type = BottomGhost;
},
{
horizontal = 1;
place = "{695, -20}";
target = down;
type = TopGhost;
},
{
place = "{43, 95}";
type = Stem;
},
{
place = "{555, 95}";
type = Stem;
}
);
layerId = "3FA0091B-41E8-4679-8383-4E36DA6A759B";
paths = (
{
closed = 1;
nodes = (
"537 -16 OFFCURVE",
"692 133 OFFCURVE",
"692 347 CURVE SMOOTH",
"692 561 OFFCURVE",
"537 696 OFFCURVE",
"364 696 CURVE SMOOTH",
"189 696 OFFCURVE",
"34 550 OFFCURVE",
"34 336 CURVE SMOOTH",
"34 122 OFFCURVE",
"189 -16 OFFCURVE",
"361 -16 CURVE SMOOTH"
);
},
{
closed = 1;
nodes = (
"233 2 OFFCURVE",
"132 95 OFFCURVE",
"132 338 CURVE SMOOTH",
"132 581 OFFCURVE",
"233 678 OFFCURVE",
"364 678 CURVE SMOOTH",
"493 678 OFFCURVE",
"594 587 OFFCURVE",
"594 344 CURVE SMOOTH",
"594 101 OFFCURVE",
"493 2 OFFCURVE",
"362 2 CURVE SMOOTH"
);
}
);
width = 726;
}
);
leftKerningGroup = O;
note = O.ss01;
rightKerningGroup = O;
rightMetricsKey = "=|";
unicode = 004F;
},
{
color = 6;
glyphname = Ohorn;
lastChange = "2021-04-23 08:30:16 +0000";
layers = (
{
components = (
{
name = O;
},
{
name = horncomb;
transform = "{1, 0, 0, 1, -49, 211}";
}
);
hints = (
{
horizontal = 1;
place = "{-11, 40}";
type = Stem;
},
{
horizontal = 1;
place = "{664, 203}";
type = Stem;
},
{
place = "{27, 152}";
type = Stem;
},
{
place = "{495, 153}";
type = Stem;
},
{
place = "{495, 150}";
type = Stem;
},
{
horizontal = 1;
place = "{732, 135}";
type = Stem;
},
{
horizontal = 1;
place = "{650, 40}";
type = Stem;
}
);
layerId = "1E8F490F-00FE-4BD6-A503-902369003CC3";
width = 679;
},
{
components = (
{
name = O;
},
{
name = horncomb;
transform = "{1, 0, 0, 1, -50, 223}";
}
);
hints = (
{
horizontal = 1;
place = "{-11, 21}";
target = up;
type = BottomGhost;
},
{
horizontal = 1;
place = "{671, 9}";
type = Stem;
},
{
horizontal = 1;
place = "{756, 65}";
type = Stem;
},
{
place = "{555, 13}";
type = Stem;
},
{
horizontal = 1;
place = "{690, -20}";
target = down;
type = TopGhost;
}
);
layerId = "07AD8005-5D45-4A63-B3CF-4E1D9502446D";
width = 688;
},
{
components = (
{
name = O;
},
{
name = horncomb;
transform = "{1, 0, 0, 1, -26, 213}";
}
);
hints = (
{
horizontal = 1;
place = "{-11, 21}";
target = up;
type = BottomGhost;
},
{
horizontal = 1;
place = "{664, 191}";
type = Stem;
},
{
place = "{540, 102}";
type = Stem;
},
{
horizontal = 1;
place = "{641, 102}";
type = Stem;
},
{
horizontal = 1;
place = "{753, 102}";
type = Stem;
},
{
horizontal = 1;
place = "{690, -20}";
target = down;
type = TopGhost;
}
);
layerId = "3FA0091B-41E8-4679-8383-4E36DA6A759B";
width = 726;
},
{
associatedMasterId = "1E8F490F-00FE-4BD6-A503-902369003CC3";
hints = (
{
horizontal = 1;
place = "{-11, 40}";
type = Stem;
},
{
horizontal = 1;
place = "{664, 203}";
type = Stem;
},
{
place = "{27, 152}";
type = Stem;
},
{
place = "{495, 153}";
type = Stem;
},
{
place = "{495, 150}";
type = Stem;
},
{
horizontal = 1;
place = "{732, 135}";
type = Stem;
},
{
horizontal = 1;
place = "{650, 40}";
type = Stem;
}
);
layerId = "99C29BE0-4928-4255-B3AA-ED336CFB672E";
name = "Feb 13 21, 08:30";
paths = (
{
closed = 1;
nodes = (
"480 664 LINE SMOOTH",
"558 664 OFFCURVE",
"645 717 OFFCURVE",
"645 794 CURVE SMOOTH",
"645 842 OFFCURVE",
"612 867 OFFCURVE",
"568 867 CURVE SMOOTH",
"520 867 OFFCURVE",
"495 837 OFFCURVE",
"495 797 CURVE SMOOTH",
"495 755 OFFCURVE",
"524 732 OFFCURVE",
"569 732 CURVE",
"560 709 OFFCURVE",
"538 680 OFFCURVE",
"480 680 CURVE SMOOTH",
"416 680 LINE",
"391 687 OFFCURVE",
"364 690 OFFCURVE",
"337 690 CURVE SMOOTH",
"143 690 OFFCURVE",
"27 543 OFFCURVE",
"27 339 CURVE SMOOTH",
"27 125 OFFCURVE",
"163 -11 OFFCURVE",
"337 -11 CURVE SMOOTH",
"531 -11 OFFCURVE",
"648 135 OFFCURVE",
"648 339 CURVE SMOOTH",
"648 498 OFFCURVE",
"572 615 OFFCURVE",
"462 664 CURVE"
);
},
{
closed = 1;
nodes = (
"386 11 OFFCURVE",
"340 53 OFFCURVE",
"248 307 CURVE SMOOTH",
"156 560 OFFCURVE",
"164 623 OFFCURVE",
"226 645 CURVE SMOOTH",
"288 668 OFFCURVE",
"334 625 OFFCURVE",
"426 372 CURVE SMOOTH",
"519 118 OFFCURVE",
"510 56 OFFCURVE",
"448 34 CURVE SMOOTH"
);
}
);
width = 675;
}
);
leftKerningGroup = O;
note = Ohorn;
rightKerningGroup = O;
unicode = 01A0;
},
{
glyphname = Oopen;
lastChange = "2021-04-23 08:31:16 +0000";
layers = (
{
hints = (
{
horizontal = 1;
place = "{-11, 99}";
type = Stem;
},
{
horizontal = 1;
place = "{296, 87}";
type = Stem;
},
{
horizontal = 1;
place = "{680, -20}";
target = down;
type = TopGhost;
},
{
place = "{366, 207}";
type = Stem;
},
{
horizontal = 1;
place = "{664, 26}";
type = Stem;
}
);
layerId = "1E8F490F-00FE-4BD6-A503-902369003CC3";
paths = (
{
closed = 1;
nodes = (
"417 -11 OFFCURVE",
"562 80 OFFCURVE",
"562 320 CURVE SMOOTH",
"562 572 OFFCURVE",
"402 690 OFFCURVE",
"232 690 CURVE SMOOTH",
"131 690 OFFCURVE",
"105 649 OFFCURVE",
"82 649 CURVE SMOOTH",
"71 649 OFFCURVE",
"67 659 OFFCURVE",
"55 680 CURVE",
"39 680 LINE",
"39 466 LINE",
"55 466 LINE",
"66 549 OFFCURVE",
"108 664 OFFCURVE",
"214 664 CURVE SMOOTH",
"311 664 OFFCURVE",
"355 582 OFFCURVE",
"355 385 CURVE SMOOTH",
"355 217 OFFCURVE",
"326 88 OFFCURVE",
"188 88 CURVE SMOOTH",
"72 88 OFFCURVE",
"45 179 OFFCURVE",
"35 230 CURVE",
"19 230 LINE",
"48 69 OFFCURVE",
"122 -11 OFFCURVE",
"265 -11 CURVE SMOOTH"
);
}
);
width = 581;
},
{
hints = (
{
horizontal = 1;
place = "{-3, 28}";
type = Stem;
},
{
horizontal = 1;
place = "{690, 21}";
target = up;
type = BottomGhost;
},
{
place = "{569, 38}";
type = Stem;
},
{
horizontal = 1;
place = "{698, 21}";
target = up;
type = BottomGhost;
}
);
layerId = "07AD8005-5D45-4A63-B3CF-4E1D9502446D";
paths = (
{
closed = 1;
nodes = (
"452 -11 OFFCURVE",
"583 110 OFFCURVE",
"583 347 CURVE SMOOTH",
"583 586 OFFCURVE",
"450 690 OFFCURVE",
"309 690 CURVE SMOOTH",
"207 690 OFFCURVE",
"143 636 OFFCURVE",
"123 636 CURVE SMOOTH",
"114 636 OFFCURVE",
"107 646 OFFCURVE",
"96 666 CURVE",
"89 666 LINE",
"89 524 LINE",
"97 524 LINE",
"115 630 OFFCURVE",
"215 682 OFFCURVE",
"304 682 CURVE SMOOTH",
"431 682 OFFCURVE",
"553 575 OFFCURVE",
"553 349 CURVE SMOOTH",
"553 121 OFFCURVE",
"428 9 OFFCURVE",
"286 9 CURVE SMOOTH",
"158 9 OFFCURVE",
"75 100 OFFCURVE",
"51 220 CURVE",
"40 220 LINE",
"61 87 OFFCURVE",
"163 -11 OFFCURVE",
"300 -11 CURVE SMOOTH"
);
}
);
width = 623;
},
{
hints = (
{
horizontal = 1;
place = "{-6, 65}";
type = Stem;
},
{
horizontal = 1;
place = "{301, 55}";
type = Stem;
},
{
horizontal = 1;
place = "{354, 48}";
type = Stem;
},
{
horizontal = 1;
place = "{685, -20}";
target = down;
type = TopGhost;
},
{
place = "{495, 90}";
type = Stem;
},
{
horizontal = 1;
place = "{695, -20}";
target = down;
type = TopGhost;
}
);
layerId = "3FA0091B-41E8-4679-8383-4E36DA6A759B";
paths = (
{
closed = 1;
nodes = (
"434 -11 OFFCURVE",
"576 108 OFFCURVE",
"576 355 CURVE SMOOTH",
"576 586 OFFCURVE",
"424 690 OFFCURVE",
"287 690 CURVE SMOOTH",
"196 690 OFFCURVE",
"134 649 OFFCURVE",
"113 649 CURVE SMOOTH",
"102 649 OFFCURVE",
"94 659 OFFCURVE",
"82 680 CURVE",
"70 680 LINE",
"70 496 LINE",
"83 496 LINE",
"102 600 OFFCURVE",
"176 674 OFFCURVE",
"282 674 CURVE SMOOTH",
"394 674 OFFCURVE",
"491 576 OFFCURVE",
"491 368 CURVE SMOOTH",
"491 200 OFFCURVE",
"412 49 OFFCURVE",
"259 49 CURVE SMOOTH",
"105 49 OFFCURVE",
"60 170 OFFCURVE",
"49 220 CURVE",
"34 220 LINE",
"66 63 OFFCURVE",
"158 -11 OFFCURVE",
"288 -11 CURVE SMOOTH"
);
}
);
width = 610;
}
);
leftMetricsKey = "=|";
note = uni0186;
rightMetricsKey = O;
unicode = 0186;
},
{
color = 4;
glyphname = Oslash;
lastChange = "2021-04-23 08:32:00 +0000";
layers = (
{
components = (
{
name = O;
}
);
hints = (
{
horizontal = 1;
place = "{-56, 21}";
target = up;
type = BottomGhost;
},
{
horizontal = 1;
place = "{-11, 25}";
type = Stem;
},
{
horizontal = 1;
place = "{665, 25}";
type = Stem;
},
{
horizontal = 1;
place = "{734, -20}";
target = down;
type = TopGhost;
},
{
place = "{27, 215}";
type = Stem;
},
{
place = "{432, 216}";
type = Stem;
}
);
layerId = "1E8F490F-00FE-4BD6-A503-902369003CC3";
paths = (
{
closed = 1;
nodes = (
"176 -53 LINE",
"559 737 LINE",
"519 737 LINE",
"135 -53 LINE"
);
}
);
width = 679;
},
{
components = (
{
name = O;
}
);
hints = (
{
horizontal = 1;
place = "{-3, 17}";
type = Stem;
},
{
horizontal = 1;
place = "{689, 17}";
type = Stem;
},
{
horizontal = 1;
place = "{742, -20}";
target = down;
type = TopGhost;
},
{
place = "{44, 40}";
type = Stem;
},
{
place = "{618, 40}";
type = Stem;
}
);
layerId = "07AD8005-5D45-4A63-B3CF-4E1D9502446D";
paths = (
{
closed = 1;
nodes = (
"120 -53 LINE",
"590 737 LINE",
"577 737 LINE",
"106 -53 LINE"
);
}
);
width = 688;
},
{
components = (
{
name = O;
}
);
hints = (
{
horizontal = 1;
place = "{-51, 21}";
target = up;
type = BottomGhost;
},
{
horizontal = 1;
place = "{-6, 21}";
target = up;
type = BottomGhost;
},
{
horizontal = 1;
place = "{695, -20}";
target = down;
type = TopGhost;
},
{
horizontal = 1;
place = "{739, -20}";
target = down;
type = TopGhost;
},
{
place = "{43, 95}";
type = Stem;
},
{
place = "{555, 95}";
type = Stem;
}
);
layerId = "3FA0091B-41E8-4679-8383-4E36DA6A759B";
paths = (
{
closed = 1;
nodes = (
"155 -55 LINE",
"606 735 LINE",
"574 735 LINE",
"122 -55 LINE"
);
}
);
width = 726;
}
);
leftKerningGroup = O;
leftMetricsKey = O;
note = Oslash.ss01;
rightKerningGroup = O;
rightMetricsKey = O;
unicode = 00D8;
},
{
glyphname = OE;
lastChange = "2021-04-23 08:32:42 +0000";
layers = (
{
anchors = (
{
name = bottom;
position = "{379, 0}";
},
{
name = center;
position = "{352, 340}";
},
{
name = ogonek;
position = "{743, 0}";
},
{
name = top;
position = "{379, 680}";
},
{
name = topleft;
position = "{310, 680}";
}
);
hints = (
{
horizontal = 1;
place = "{0, 36}";
type = Stem;
},
{
horizontal = 1;
place = "{340, 35}";
type = Stem;
},
{
horizontal = 1;
place = "{652, 28}";
type = Stem;
},
{
place = "{27, 202}";
type = Stem;
},
{
place = "{452, 174}";
type = Stem;
},
{
horizontal = 1;
place = "{0, 36}";
type = Stem;
},
{
horizontal = 1;
place = "{651, 29}";
type = Stem;
},
{
place = "{597, 196}";
type = Stem;
},
{
place = "{276, 202}";
type = Stem;
},
{
horizontal = 1;
place = "{0, 36}";
type = Stem;
},
{
horizontal = 1;
place = "{340, 35}";
type = Stem;
},
{
horizontal = 1;
place = "{652, 28}";
type = Stem;
},
{
place = "{404, 196}";
type = Stem;
}
);
layerId = "1E8F490F-00FE-4BD6-A503-902369003CC3";
paths = (
{
closed = 1;
nodes = (
"19 93 OFFCURVE",
"174 0 OFFCURVE",
"364 0 CURVE SMOOTH",
"822 0 LINE",
"822 179 LINE",
"806 179 LINE",
"806 71 OFFCURVE",
"772 36 OFFCURVE",
"688 36 CURVE SMOOTH",
"636 36 LINE SMOOTH",
"604 36 OFFCURVE",
"591 50 OFFCURVE",
"591 86 CURVE SMOOTH",
"591 340 LINE",
"662 340 LINE SMOOTH",
"723 340 OFFCURVE",
"735 303 OFFCURVE",
"735 266 CURVE",
"751 266 LINE",
"751 440 LINE",
"735 440 LINE",
"735 391 OFFCURVE",
"718 375 OFFCURVE",
"661 375 CURVE SMOOTH",
"591 375 LINE",
"591 645 LINE",
"674 645 LINE SMOOTH",
"773 645 OFFCURVE",
"787 599 OFFCURVE",
"787 521 CURVE",
"803 521 LINE",
"803 680 LINE",
"356 680 LINE SMOOTH",
"217 680 OFFCURVE",
"19 604 OFFCURVE",
"19 349 CURVE SMOOTH"
);
},
{
closed = 1;
nodes = (
"236 572 OFFCURVE",
"271 647 OFFCURVE",
"357 647 CURVE SMOOTH",
"359 647 LINE SMOOTH",
"387 647 OFFCURVE",
"395 637 OFFCURVE",
"395 594 CURVE SMOOTH",
"395 36 LINE",
"356 36 LINE SMOOTH",
"295 36 OFFCURVE",
"236 80 OFFCURVE",
"236 343 CURVE SMOOTH"
);
}
);
width = 837;
},
{
anchors = (
{
name = bottom;
position = "{347, 0}";
},
{
name = center;
position = "{320, 340}";
},
{
name = ogonek;
position = "{807, 0}";
},
{
name = top;
position = "{347, 680}";
},
{
name = topleft;
position = "{394, 680}";
}
);
hints = (
{
horizontal = 1;
place = "{8, 21}";
target = up;
type = BottomGhost;
},
{
horizontal = 1;
place = "{688, -20}";
target = down;
type = TopGhost;
},
{
place = "{104, 37}";
type = Stem;
},
{
place = "{504, 37}";
type = Stem;
},
{
place = "{547, 43}";
type = Stem;
},
{
horizontal = 1;
place = "{688, 21}";
target = up;
type = BottomGhost;
},
{
horizontal = 1;
place = "{8, 21}";
target = up;
type = BottomGhost;
},
{
place = "{503, -21}";
type = Stem;
},
{
place = "{60, -27}";
type = Stem;
},
{
horizontal = 1;
place = "{8, 21}";
target = up;
type = BottomGhost;
},
{
horizontal = 1;
place = "{688, -20}";
target = down;
type = TopGhost;
},
{
place = "{514, 37}";
type = Stem;
}
);
layerId = "07AD8005-5D45-4A63-B3CF-4E1D9502446D";
paths = (
{
closed = 1;
nodes = (
"40 82 OFFCURVE",
"203 0 OFFCURVE",
"377 0 CURVE SMOOTH",
"821 0 LINE",
"821 117 LINE",
"811 117 LINE",
"811 9 OFFCURVE",
"785 10 OFFCURVE",
"711 10 CURVE SMOOTH",
"572 10 LINE SMOOTH",
"532 10 OFFCURVE",
"519 14 OFFCURVE",
"519 68 CURVE SMOOTH",
"519 354 LINE",
"671 354 LINE SMOOTH",
"729 354 OFFCURVE",
"741 350 OFFCURVE",
"741 298 CURVE",
"750 298 LINE",
"750 419 LINE",
"741 419 LINE",
"741 372 OFFCURVE",
"730 364 OFFCURVE",
"670 364 CURVE SMOOTH",
"519 364 LINE",
"519 671 LINE",
"691 671 LINE SMOOTH",
"780 671 OFFCURVE",
"790 658 OFFCURVE",
"790 585 CURVE",
"800 585 LINE",
"800 680 LINE",
"377 680 LINE SMOOTH",
"203 680 OFFCURVE",
"40 577 OFFCURVE",
"40 329 CURVE SMOOTH"
);
},
{
closed = 1;
nodes = (
"72 559 OFFCURVE",
"216 670 OFFCURVE",
"378 670 CURVE SMOOTH",
"450 670 LINE SMOOTH",
"474 670 OFFCURVE",
"490 666 OFFCURVE",
"490 614 CURVE SMOOTH",
"490 10 LINE",
"378 10 LINE SMOOTH",
"215 10 OFFCURVE",
"72 101 OFFCURVE",
"72 330 CURVE SMOOTH"
);
}
);
width = 864;
},
{
anchors = (
{
name = bottom;
position = "{610, 0}";
},
{
name = center;
position = "{603, 340}";
},
{
name = ogonek;
position = "{784, 0}";
},
{
name = top;
position = "{610, 680}";
},
{
name = topleft;
position = "{357, 680}";
}
);
hints = (
{
horizontal = 1;
place = "{5, 27}";
type = Stem;
},
{
horizontal = 1;
place = "{352, 26}";
type = Stem;
},
{
horizontal = 1;
place = "{685, -20}";
target = down;
type = TopGhost;
},
{
place = "{40, 96}";
type = Stem;
},
{
place = "{469, 90}";
type = Stem;
},
{
horizontal = 1;
place = "{5, 27}";
type = Stem;
},
{
horizontal = 1;
place = "{352, 26}";
type = Stem;
},
{
horizontal = 1;
place = "{685, -20}";
target = down;
type = TopGhost;
},
{
place = "{483, 90}";
type = Stem;
},
{
horizontal = 1;
place = "{684, -17}";
type = Stem;
},
{
horizontal = 1;
place = "{4, 21}";
target = up;
type = BottomGhost;
},
{
place = "{529, -80}";
type = Stem;
},
{
place = "{106, -86}";
type = Stem;
}
);
layerId = "3FA0091B-41E8-4679-8383-4E36DA6A759B";
paths = (
{
closed = 1;
nodes = (
"34 59 OFFCURVE",
"249 0 OFFCURVE",
"371 0 CURVE SMOOTH",
"830 0 LINE",
"830 159 LINE",
"814 159 LINE",
"814 51 OFFCURVE",
"779 22 OFFCURVE",
"685 22 CURVE SMOOTH",
"599 22 LINE SMOOTH",
"563 22 OFFCURVE",
"548 40 OFFCURVE",
"548 77 CURVE SMOOTH",
"548 347 LINE",
"654 347 LINE SMOOTH",
"715 347 OFFCURVE",
"743 324 OFFCURVE",
"743 281 CURVE",
"759 281 LINE",
"759 432 LINE",
"743 432 LINE",
"743 388 OFFCURVE",
"715 368 OFFCURVE",
"653 368 CURVE SMOOTH",
"548 368 LINE",
"548 658 LINE",
"684 658 LINE SMOOTH",
"783 658 OFFCURVE",
"795 619 OFFCURVE",
"795 546 CURVE",
"811 546 LINE",
"811 680 LINE",
"376 680 LINE SMOOTH",
"212 680 OFFCURVE",
"34 582 OFFCURVE",
"34 329 CURVE SMOOTH"
);
},
{
closed = 1;
nodes = (
"127 531 OFFCURVE",
"243 660 OFFCURVE",
"377 660 CURVE SMOOTH",
"406 660 LINE SMOOTH",
"445 660 OFFCURVE",
"463 653 OFFCURVE",
"463 606 CURVE SMOOTH",
"463 20 LINE",
"377 20 LINE SMOOTH",
"235 20 OFFCURVE",
"127 121 OFFCURVE",
"127 331 CURVE SMOOTH"
);
}
);
width = 870;
}
);
leftKerningGroup = O;
leftMetricsKey = O;
note = OE;
rightKerningGroup = E;
rightMetricsKey = E;
unicode = 0152;
},
{
color = 4;
glyphname = P;
lastChange = "2021-04-23 08:15:35 +0000";
layers = (
{
anchors = (
{
name = bottom;
position = "{277, 0}";
},
{
name = top;
position = "{277, 680}";
}
);
hints = (
{
horizontal = 1;
place = "{0, 21}";
target = up;
type = BottomGhost;
},
{
horizontal = 1;
place = "{305, 21}";
type = Stem;
},
{
horizontal = 1;
place = "{641, 39}";
type = Stem;
},
{
place = "{86, 196}";
type = Stem;
},
{
place = "{382, 185}";
type = Stem;
}
);
layerId = "1E8F490F-00FE-4BD6-A503-902369003CC3";
paths = (
{
closed = 1;
nodes = (
"303 305 OFFCURVE",
"322 301 OFFCURVE",
"355 301 CURVE SMOOTH",
"494 301 OFFCURVE",
"586 375 OFFCURVE",
"586 493 CURVE SMOOTH",
"586 619 OFFCURVE",
"476 680 OFFCURVE",
"321 680 CURVE SMOOTH",
"14 680 LINE",
"14 664 LINE",
"70 664 OFFCURVE",
"85 646 OFFCURVE",
"85 594 CURVE SMOOTH",
"85 86 LINE SMOOTH",
"85 34 OFFCURVE",
"70 16 OFFCURVE",
"14 16 CURVE",
"14 0 LINE",
"363 0 LINE",
"363 16 LINE",
"296 16 OFFCURVE",
"281 34 OFFCURVE",
"281 86 CURVE SMOOTH",
"281 647 LINE",
"312 647 LINE SMOOTH",
"371 647 OFFCURVE",
"401 600 OFFCURVE",
"401 484 CURVE SMOOTH",
"401 346 OFFCURVE",
"354 326 OFFCURVE",
"318 326 CURVE SMOOTH",
"311 326 OFFCURVE",
"302 326 OFFCURVE",
"294 328 CURVE",
"294 307 LINE"
);
}
);
width = 599;
},
{
anchors = (
{
name = bottom;
position = "{246, 0}";
},
{
name = top;
position = "{246, 680}";
}
);
background = {
components = (
{
name = H;
}
);
};
hints = (
{
horizontal = 1;
place = "{8, 21}";
target = up;
type = BottomGhost;
},
{
horizontal = 1;
place = "{688, -20}";
target = down;
type = TopGhost;
},
{
place = "{104, 37}";
type = Stem;
},
{
place = "{437, 40}";
type = Stem;
}
);
layerId = "07AD8005-5D45-4A63-B3CF-4E1D9502446D";
paths = (
{
closed = 1;
nodes = (
"162 306 OFFCURVE",
"187 304 OFFCURVE",
"210 304 CURVE SMOOTH",
"366 304 OFFCURVE",
"449 379 OFFCURVE",
"449 502 CURVE SMOOTH",
"449 623 OFFCURVE",
"360 680 OFFCURVE",
"216 680 CURVE SMOOTH",
"33 680 LINE",
"33 673 LINE",
"79 673 OFFCURVE",
"84 666 OFFCURVE",
"84 614 CURVE SMOOTH",
"84 66 LINE SMOOTH",
"84 14 OFFCURVE",
"79 7 OFFCURVE",
"33 7 CURVE",
"33 0 LINE",
"169 0 LINE",
"169 7 LINE",
"117 7 OFFCURVE",
"113 14 OFFCURVE",
"113 66 CURVE SMOOTH",
"113 671 LINE",
"215 671 LINE SMOOTH",
"351 671 OFFCURVE",
"417 613 OFFCURVE",
"417 498 CURVE SMOOTH",
"417 394 OFFCURVE",
"352 312 OFFCURVE",
"206 312 CURVE SMOOTH",
"183 312 OFFCURVE",
"162 314 OFFCURVE",
"141 318 CURVE",
"141 310 LINE"
);
}
);
width = 477;
},
{
anchors = (
{
name = bottom;
position = "{259, 0}";
},
{
name = top;
position = "{259, 680}";
}
);
hints = (
{
horizontal = 1;
place = "{5, 21}";
target = up;
type = BottomGhost;
},
{
horizontal = 1;
place = "{685, -20}";
target = down;
type = TopGhost;
},
{
place = "{111, 90}";
type = Stem;
},
{
place = "{443, 94}";
type = Stem;
}
);
layerId = "3FA0091B-41E8-4679-8383-4E36DA6A759B";
paths = (
{
closed = 1;
nodes = (
"225 305 OFFCURVE",
"248 301 OFFCURVE",
"276 301 CURVE SMOOTH",
"429 301 OFFCURVE",
"518 373 OFFCURVE",
"518 496 CURVE SMOOTH",
"518 617 OFFCURVE",
"431 680 OFFCURVE",
"260 680 CURVE SMOOTH",
"26 680 LINE",
"26 668 LINE",
"82 668 OFFCURVE",
"97 658 OFFCURVE",
"97 606 CURVE SMOOTH",
"97 74 LINE SMOOTH",
"97 22 OFFCURVE",
"82 12 OFFCURVE",
"26 12 CURVE",
"26 0 LINE",
"259 0 LINE",
"259 12 LINE",
"194 12 OFFCURVE",
"182 22 OFFCURVE",
"182 74 CURVE SMOOTH",
"182 664 LINE",
"255 664 LINE SMOOTH",
"404 664 OFFCURVE",
"429 571 OFFCURVE",
"429 492 CURVE SMOOTH",
"429 378 OFFCURVE",
"375 319 OFFCURVE",
"269 319 CURVE SMOOTH",
"248 319 OFFCURVE",
"228 321 OFFCURVE",
"208 324 CURVE",
"208 308 LINE"
);
}
);
width = 543;
}
);
leftKerningGroup = H;
leftMetricsKey = H;
note = P;
rightKerningGroup = P;
unicode = 0050;
},
{
glyphname = Thorn;
lastChange = "2021-04-23 08:33:34 +0000";
layers = (
{
hints = (
{
horizontal = 1;
place = "{0, 186}";
type = Stem;
},
{
horizontal = 1;
place = "{501, 39}";
type = Stem;
},
{
place = "{86, 196}";
type = Stem;
},
{
place = "{372, 185}";
type = Stem;
},
{
horizontal = 1;
place = "{165, 21}";
type = Stem;
},
{
horizontal = 1;
place = "{501, 179}";
type = Stem;
}
);
layerId = "1E8F490F-00FE-4BD6-A503-902369003CC3";
paths = (
{
closed = 1;
nodes = (
"15 0 LINE",
"353 0 LINE",
"353 16 LINE",
"317 16 OFFCURVE",
"282 34 OFFCURVE",
"282 86 CURVE SMOOTH",
"282 165 LINE",
"314 165 LINE SMOOTH",
"470 165 OFFCURVE",
"569 234 OFFCURVE",
"569 354 CURVE SMOOTH",
"569 478 OFFCURVE",
"463 540 OFFCURVE",
"298 540 CURVE SMOOTH",
"282 540 LINE",
"282 594 LINE SMOOTH",
"282 646 OFFCURVE",
"317 664 OFFCURVE",
"353 664 CURVE",
"353 680 LINE",
"15 680 LINE",
"15 664 LINE",
"51 664 OFFCURVE",
"86 646 OFFCURVE",
"86 594 CURVE SMOOTH",
"86 86 LINE SMOOTH",
"86 34 OFFCURVE",
"51 16 OFFCURVE",
"15 16 CURVE"
);
},
{
closed = 1;
nodes = (
"282 198 LINE",
"282 505 LINE",
"297 505 LINE SMOOTH",
"352 505 OFFCURVE",
"384 456 OFFCURVE",
"384 345 CURVE SMOOTH",
"384 225 OFFCURVE",
"343 198 OFFCURVE",
"298 198 CURVE SMOOTH"
);
}
);
width = 585;
},
{
hints = (
{
horizontal = 1;
place = "{8, 21}";
target = up;
type = BottomGhost;
},
{
horizontal = 1;
place = "{688, -20}";
target = down;
type = TopGhost;
},
{
place = "{104, 37}";
type = Stem;
},
{
place = "{437, 40}";
type = Stem;
}
);
layerId = "07AD8005-5D45-4A63-B3CF-4E1D9502446D";
paths = (
{
closed = 1;
nodes = (
"53 0 LINE",
"189 0 LINE",
"189 7 LINE",
"137 7 OFFCURVE",
"133 14 OFFCURVE",
"133 66 CURVE SMOOTH",
"133 186 LINE",
"224 186 LINE SMOOTH",
"380 186 OFFCURVE",
"469 253 OFFCURVE",
"469 376 CURVE SMOOTH",
"469 497 OFFCURVE",
"384 560 OFFCURVE",
"238 560 CURVE SMOOTH",
"133 560 LINE",
"133 614 LINE SMOOTH",
"133 666 OFFCURVE",
"138 673 OFFCURVE",
"184 673 CURVE",
"184 680 LINE",
"53 680 LINE",
"53 673 LINE",
"99 673 OFFCURVE",
"104 666 OFFCURVE",
"104 614 CURVE SMOOTH",
"104 66 LINE SMOOTH",
"104 14 OFFCURVE",
"99 7 OFFCURVE",
"53 7 CURVE"
);
},
{
closed = 1;
nodes = (
"133 194 LINE",
"133 551 LINE",
"235 551 LINE SMOOTH",
"373 551 OFFCURVE",
"437 481 OFFCURVE",
"437 372 CURVE SMOOTH",
"437 256 OFFCURVE",
"360 194 OFFCURVE",
"224 194 CURVE SMOOTH"
);
}
);
width = 519;
},
{
hints = (
{
horizontal = 1;
place = "{5, 183}";
type = Stem;
},
{
horizontal = 1;
place = "{529, 161}";
type = Stem;
},
{
place = "{111, 91}";
type = Stem;
},
{
place = "{463, 94}";
type = Stem;
}
);
layerId = "3FA0091B-41E8-4679-8383-4E36DA6A759B";
paths = (
{
closed = 1;
nodes = (
"40 0 LINE",
"272 0 LINE",
"272 12 LINE",
"229 12 OFFCURVE",
"197 30 OFFCURVE",
"197 82 CURVE SMOOTH",
"197 163 LINE",
"295 163 LINE SMOOTH",
"461 163 OFFCURVE",
"552 231 OFFCURVE",
"552 354 CURVE SMOOTH",
"552 475 OFFCURVE",
"465 540 OFFCURVE",
"304 540 CURVE SMOOTH",
"196 540 LINE",
"196 598 LINE SMOOTH",
"196 650 OFFCURVE",
"231 668 OFFCURVE",
"267 668 CURVE",
"267 680 LINE",
"40 680 LINE",
"40 668 LINE",
"76 668 OFFCURVE",
"111 650 OFFCURVE",
"111 598 CURVE SMOOTH",
"111 82 LINE SMOOTH",
"111 30 OFFCURVE",
"76 12 OFFCURVE",
"40 12 CURVE"
);
},
{
closed = 1;
nodes = (
"197 178 LINE",
"197 524 LINE",
"297 524 LINE SMOOTH",
"412 524 OFFCURVE",
"463 467 OFFCURVE",
"463 348 CURVE SMOOTH",
"463 247 OFFCURVE",
"411 178 OFFCURVE",
"291 178 CURVE SMOOTH"
);
}
);
width = 599;
}
);
leftKerningGroup = H;
note = Thorn;
rightKerningGroup = Thorn;
unicode = 00DE;
},
{
color = 4;
glyphname = Q;
lastChange = "2021-04-23 07:59:09 +0000";
layers = (
{
components = (
{
name = O;
}
);
hints = (
{
horizontal = 1;
place = "{-162, 136}";
type = Stem;
},
{
horizontal = 1;
place = "{690, -20}";
target = down;
type = TopGhost;
}
);
layerId = "1E8F490F-00FE-4BD6-A503-902369003CC3";
paths = (
{
closed = 1;
nodes = (
"247 -9 OFFCURVE",
"221 -65 OFFCURVE",
"214 -120 CURVE",
"228 -120 LINE",
"266 -69 OFFCURVE",
"394 -162 OFFCURVE",
"496 -162 CURVE SMOOTH",
"588 -162 OFFCURVE",
"614 -66 OFFCURVE",
"631 16 CURVE",
"616 16 LINE",
"603 -18 OFFCURVE",
"581 -26 OFFCURVE",
"559 -26 CURVE SMOOTH",
"510 -26 OFFCURVE",
"422 -11 OFFCURVE",
"361 -4 CURVE",
"291 -5 LINE"
);
}
);
width = 679;
},
{
components = (
{
name = O;
}
);
hints = (
{
horizontal = 1;
place = "{-94, 108}";
type = Stem;
},
{
horizontal = 1;
place = "{698, -20}";
target = down;
type = TopGhost;
},
{
horizontal = 1;
place = "{-94, 40}";
type = Stem;
}
);
layerId = "07AD8005-5D45-4A63-B3CF-4E1D9502446D";
paths = (
{
closed = 1;
nodes = (
"287 -9 OFFCURVE",
"264 -25 OFFCURVE",
"252 -60 CURVE",
"259 -60 LINE",
"311 66 OFFCURVE",
"439 -102 OFFCURVE",
"557 -102 CURVE SMOOTH",
"610 -102 OFFCURVE",
"646 -54 OFFCURVE",
"659 16 CURVE",
"653 16 LINE",
"638 -34 OFFCURVE",
"616 -70 OFFCURVE",
"566 -70 CURVE SMOOTH",
"517 -70 OFFCURVE",
"422 -20 OFFCURVE",
"363 -5 CURVE",
"316 -3 LINE"
);
}
);
width = 699;
},
{
components = (
{
name = O;
}
);
hints = (
{
horizontal = 1;
place = "{-137, 77}";
type = Stem;
},
{
horizontal = 1;
place = "{695, -20}";
target = down;
type = TopGhost;
}
);
layerId = "3FA0091B-41E8-4679-8383-4E36DA6A759B";
paths = (
{
closed = 1;
nodes = (
"288 -9 OFFCURVE",
"257 -47 OFFCURVE",
"239 -100 CURVE",
"251 -100 LINE",
"303 26 OFFCURVE",
"411 -142 OFFCURVE",
"529 -142 CURVE SMOOTH",
"609 -142 OFFCURVE",
"641 -62 OFFCURVE",
"656 16 CURVE",
"644 16 LINE",
"629 -34 OFFCURVE",
"613 -70 OFFCURVE",
"563 -70 CURVE SMOOTH",
"514 -70 OFFCURVE",
"422 -21 OFFCURVE",
"363 -6 CURVE",
"322 -2 LINE"
);
}
);
width = 726;
}
);
leftKerningGroup = O;
leftMetricsKey = O;
note = Q;
rightKerningGroup = O;
rightMetricsKey = O;
unicode = 0051;
},
{
color = 4;
glyphname = R;
lastChange = "2021-04-23 08:34:20 +0000";
layers = (
{
anchors = (
{
name = bottom;
position = "{323, 0}";
},
{
name = top;
position = "{323, 680}";
}
);
hints = (
{
horizontal = 1;
place = "{0, 21}";
target = up;
type = BottomGhost;
},
{
horizontal = 1;
place = "{340, 35}";
type = Stem;
},
{
horizontal = 1;
place = "{644, 36}";
type = Stem;
},
{
place = "{86, 196}";
type = Stem;
},
{
place = "{387, 194}";
type = Stem;
},
{
place = "{387, 179}";
type = Stem;
}
);
layerId = "1E8F490F-00FE-4BD6-A503-902369003CC3";
paths = (
{
closed = 1;
nodes = (
"352 0 LINE",
"352 16 LINE",
"296 16 OFFCURVE",
"281 34 OFFCURVE",
"281 86 CURVE SMOOTH",
"281 340 LINE",
"306 340 LINE SMOOTH",
"359 340 OFFCURVE",
"395 320 OFFCURVE",
"399 258 CURVE SMOOTH",
"409 113 LINE SMOOTH",
"413 53 OFFCURVE",
"422 23 OFFCURVE",
"436 0 CURVE",
"660 0 LINE",
"660 16 LINE",
"615 16 OFFCURVE",
"604 41 OFFCURVE",
"598 137 CURVE SMOOTH",
"595 184 LINE SMOOTH",
"586 325 OFFCURVE",
"483 346 OFFCURVE",
"392 360 CURVE",
"392 364 LINE",
"514 374 OFFCURVE",
"590 423 OFFCURVE",
"590 523 CURVE SMOOTH",
"590 634 OFFCURVE",
"497 680 OFFCURVE",
"319 680 CURVE SMOOTH",
"14 680 LINE",
"14 664 LINE",
"70 664 OFFCURVE",
"85 646 OFFCURVE",
"85 594 CURVE SMOOTH",
"85 86 LINE SMOOTH",
"85 34 OFFCURVE",
"70 16 OFFCURVE",
"14 16 CURVE",
"14 0 LINE"
);
},
{
closed = 1;
nodes = (
"281 645 LINE",
"310 645 LINE SMOOTH",
"351 645 OFFCURVE",
"401 632 OFFCURVE",
"401 514 CURVE SMOOTH",
"401 399 OFFCURVE",
"358 375 OFFCURVE",
"306 375 CURVE SMOOTH",
"281 375 LINE"
);
}
);
width = 649;
},
{
anchors = (
{
name = bottom;
position = "{272, 0}";
},
{
name = top;
position = "{232, 680}";
}
);
hints = (
{
horizontal = 1;
place = "{8, 21}";
target = up;
type = BottomGhost;
},
{
horizontal = 1;
place = "{688, -20}";
target = down;
type = TopGhost;
},
{
place = "{104, 37}";
type = Stem;
},
{
place = "{435, 36}";
type = Stem;
}
);
layerId = "07AD8005-5D45-4A63-B3CF-4E1D9502446D";
paths = (
{
closed = 1;
nodes = (
"164 0 LINE",
"164 7 LINE",
"118 7 OFFCURVE",
"113 14 OFFCURVE",
"113 66 CURVE SMOOTH",
"113 356 LINE",
"209 356 LINE SMOOTH",
"296 356 OFFCURVE",
"404 324 OFFCURVE",
"413 179 CURVE SMOOTH",
"418 100 LINE SMOOTH",
"421 56 OFFCURVE",
"428 23 OFFCURVE",
"442 0 CURVE",
"508 0 LINE",
"508 7 LINE",
"464 7 OFFCURVE",
"453 34 OFFCURVE",
"446 137 CURVE SMOOTH",
"443 184 LINE SMOOTH",
"435 305 OFFCURVE",
"350 349 OFFCURVE",
"259 359 CURVE",
"259 361 LINE",
"361 375 OFFCURVE",
"442 411 OFFCURVE",
"442 528 CURVE SMOOTH",
"442 620 OFFCURVE",
"390 680 OFFCURVE",
"224 680 CURVE SMOOTH",
"33 680 LINE",
"33 673 LINE",
"79 673 OFFCURVE",
"84 666 OFFCURVE",
"84 614 CURVE SMOOTH",
"84 66 LINE SMOOTH",
"84 14 OFFCURVE",
"79 7 OFFCURVE",
"33 7 CURVE",
"33 0 LINE"
);
},
{
closed = 1;
nodes = (
"113 671 LINE",
"221 671 LINE SMOOTH",
"345 671 OFFCURVE",
"412 624 OFFCURVE",
"412 526 CURVE SMOOTH",
"412 417 OFFCURVE",
"329 364 OFFCURVE",
"209 364 CURVE SMOOTH",
"113 364 LINE"
);
}
);
width = 534;
},
{
anchors = (
{
name = bottom;
position = "{305, 0}";
},
{
name = top;
position = "{265, 680}";
}
);
background = {
anchors = (
{
name = bottom;
position = "{300, 0}";
},
{
name = top;
position = "{260, 680}";
}
);
paths = (
{
closed = 1;
nodes = (
"21 0 LINE",
"248 0 LINE",
"248 12 LINE",
"212 12 OFFCURVE",
"177 22 OFFCURVE",
"177 74 CURVE SMOOTH",
"177 347 LINE",
"233 347 LINE SMOOTH",
"320 347 OFFCURVE",
"400 322 OFFCURVE",
"408 187 CURVE SMOOTH",
"414 90 LINE SMOOTH",
"416 56 OFFCURVE",
"423 23 OFFCURVE",
"437 0 CURVE",
"562 0 LINE",
"562 12 LINE",
"555 12 LINE SMOOTH",
"511 12 OFFCURVE",
"505 63 OFFCURVE",
"500 137 CURVE SMOOTH",
"497 184 LINE SMOOTH",
"489 305 OFFCURVE",
"396 343 OFFCURVE",
"305 357 CURVE",
"305 361 LINE",
"399 377 OFFCURVE",
"492 410 OFFCURVE",
"492 527 CURVE SMOOTH",
"492 633 OFFCURVE",
"425 680 OFFCURVE",
"246 680 CURVE SMOOTH",
"21 680 LINE",
"21 668 LINE",
"57 668 OFFCURVE",
"92 658 OFFCURVE",
"92 606 CURVE SMOOTH",
"92 74 LINE SMOOTH",
"92 22 OFFCURVE",
"57 12 OFFCURVE",
"21 12 CURVE"
);
},
{
closed = 1;
nodes = (
"177 368 LINE",
"177 664 LINE",
"241 664 LINE SMOOTH",
"375 664 OFFCURVE",
"406 605 OFFCURVE",
"406 523 CURVE SMOOTH",
"406 419 OFFCURVE",
"348 368 OFFCURVE",
"233 368 CURVE SMOOTH"
);
}
);
};
hints = (
{
horizontal = 1;
place = "{5, 21}";
target = up;
type = BottomGhost;
},
{
horizontal = 1;
place = "{352, 26}";
type = Stem;
},
{
horizontal = 1;
place = "{685, -20}";
target = down;
type = TopGhost;
},
{
place = "{111, 90}";
type = Stem;
},
{
place = "{427, 94}";
type = Stem;
}
);
layerId = "3FA0091B-41E8-4679-8383-4E36DA6A759B";
paths = (
{
closed = 1;
nodes = (
"253 0 LINE",
"253 12 LINE",
"197 12 OFFCURVE",
"182 22 OFFCURVE",
"182 74 CURVE SMOOTH",
"182 347 LINE",
"238 347 LINE SMOOTH",
"325 347 OFFCURVE",
"405 322 OFFCURVE",
"413 187 CURVE SMOOTH",
"419 90 LINE SMOOTH",
"421 56 OFFCURVE",
"428 23 OFFCURVE",
"442 0 CURVE",
"567 0 LINE",
"567 12 LINE",
"523 12 OFFCURVE",
"511 37 OFFCURVE",
"505 137 CURVE SMOOTH",
"502 184 LINE SMOOTH",
"494 305 OFFCURVE",
"401 343 OFFCURVE",
"310 357 CURVE",
"310 361 LINE",
"404 377 OFFCURVE",
"497 412 OFFCURVE",
"497 528 CURVE SMOOTH",
"497 633 OFFCURVE",
"420 680 OFFCURVE",
"251 680 CURVE SMOOTH",
"26 680 LINE",
"26 668 LINE",
"82 668 OFFCURVE",
"97 658 OFFCURVE",
"97 606 CURVE SMOOTH",
"97 74 LINE SMOOTH",
"97 22 OFFCURVE",
"82 12 OFFCURVE",
"26 12 CURVE",
"26 0 LINE"
);
},
{
closed = 1;
nodes = (
"182 664 LINE",
"246 664 LINE SMOOTH",
"380 664 OFFCURVE",
"411 602 OFFCURVE",
"411 523 CURVE SMOOTH",
"411 416 OFFCURVE",
"353 368 OFFCURVE",
"238 368 CURVE SMOOTH",
"182 368 LINE"
);
}
);
width = 588;
}
);
leftKerningGroup = H;
leftMetricsKey = H;
note = R;
rightKerningGroup = R;
unicode = 0052;
},
{
color = 4;
glyphname = S;
lastChange = "2021-04-23 08:34:51 +0000";
layers = (
{
anchors = (
{
name = bottom;
position = "{258, 0}";
},
{
name = top;
position = "{274, 680}";
}
);
hints = (
{
horizontal = 1;
place = "{-11, 27}";
type = Stem;
},
{
horizontal = 1;
place = "{481, -20}";
target = down;
type = TopGhost;
},
{
horizontal = 1;
place = "{680, -20}";
target = down;
type = TopGhost;
},
{
place = "{38, 21}";
type = Stem;
},
{
place = "{380, 89}";
type = Stem;
},
{
place = "{38, 150}";
type = Stem;
},
{
horizontal = 1;
place = "{0, 21}";
target = up;
type = BottomGhost;
},
{
horizontal = 1;
place = "{665, 25}";
type = Stem;
}
);
layerId = "1E8F490F-00FE-4BD6-A503-902369003CC3";
paths = (
{
closed = 1;
nodes = (
"392 -16 OFFCURVE",
"511 61 OFFCURVE",
"511 209 CURVE SMOOTH",
"511 454 OFFCURVE",
"186 388 OFFCURVE",
"186 560 CURVE SMOOTH",
"186 617 OFFCURVE",
"222 667 OFFCURVE",
"291 667 CURVE SMOOTH",
"361 667 OFFCURVE",
"428 613 OFFCURVE",
"441 481 CURVE",
"457 481 LINE",
"457 680 LINE",
"441 680 LINE",
"433 664 OFFCURVE",
"431 657 OFFCURVE",
"420 657 CURVE SMOOTH",
"396 657 OFFCURVE",
"365 696 OFFCURVE",
"282 696 CURVE SMOOTH",
"150 696 OFFCURVE",
"36 608 OFFCURVE",
"36 470 CURVE SMOOTH",
"36 235 OFFCURVE",
"371 292 OFFCURVE",
"371 115 CURVE SMOOTH",
"371 49 OFFCURVE",
"324 13 OFFCURVE",
"260 13 CURVE SMOOTH",
"184 13 OFFCURVE",
"68 67 OFFCURVE",
"57 230 CURVE",
"41 230 LINE",
"41 0 LINE",
"57 0 LINE",
"69 25 OFFCURVE",
"76 36 OFFCURVE",
"92 36 CURVE SMOOTH",
"118 36 OFFCURVE",
"167 -16 OFFCURVE",
"259 -16 CURVE SMOOTH"
);
}
);
width = 536;
},
{
anchors = (
{
name = bottom;
position = "{236, 0}";
},
{
name = top;
position = "{236, 680}";
}
);
hints = (
{
horizontal = 1;
place = "{-3, 21}";
target = up;
type = BottomGhost;
},
{
horizontal = 1;
place = "{688, -20}";
target = down;
type = TopGhost;
},
{
place = "{52, 36}";
type = Stem;
},
{
place = "{393, 36}";
type = Stem;
},
{
horizontal = 1;
place = "{7, 21}";
target = up;
type = BottomGhost;
},
{
horizontal = 1;
place = "{690, -20}";
target = down;
type = TopGhost;
},
{
horizontal = 1;
place = "{698, -20}";
target = down;
type = TopGhost;
}
);
layerId = "07AD8005-5D45-4A63-B3CF-4E1D9502446D";
paths = (
{
closed = 1;
nodes = (
"346 -11 OFFCURVE",
"423 55 OFFCURVE",
"423 170 CURVE SMOOTH",
"423 391 OFFCURVE",
"82 339 OFFCURVE",
"82 532 CURVE SMOOTH",
"82 623 OFFCURVE",
"144 682 OFFCURVE",
"224 682 CURVE SMOOTH",
"288 682 OFFCURVE",
"352 645 OFFCURVE",
"367 547 CURVE",
"375 547 LINE",
"375 680 LINE",
"369 680 LINE",
"364 661 OFFCURVE",
"357 649 OFFCURVE",
"349 649 CURVE SMOOTH",
"329 649 OFFCURVE",
"297 690 OFFCURVE",
"225 690 CURVE SMOOTH",
"131 690 OFFCURVE",
"54 623 OFFCURVE",
"54 520 CURVE SMOOTH",
"54 315 OFFCURVE",
"395 364 OFFCURVE",
"395 157 CURVE SMOOTH",
"395 52 OFFCURVE",
"323 -1 OFFCURVE",
"240 -1 CURVE SMOOTH",
"165 -1 OFFCURVE",
"75 48 OFFCURVE",
"61 170 CURVE",
"53 170 LINE",
"53 0 LINE",
"59 0 LINE",
"67 25 OFFCURVE",
"73 41 OFFCURVE",
"85 41 CURVE SMOOTH",
"111 41 OFFCURVE",
"154 -11 OFFCURVE",
"241 -11 CURVE SMOOTH"
);
}
);
width = 465;
},
{
anchors = (
{
name = bottom;
position = "{241, 0}";
},
{
name = top;
position = "{257, 680}";
}
);
hints = (
{
horizontal = 1;
place = "{-6, 21}";
target = up;
type = BottomGhost;
},
{
horizontal = 1;
place = "{685, -20}";
target = down;
type = TopGhost;
},
{
place = "{49, 70}";
type = Stem;
},
{
place = "{393, 70}";
type = Stem;
},
{
horizontal = 1;
place = "{5, 21}";
target = up;
type = BottomGhost;
},
{
horizontal = 1;
place = "{695, -20}";
target = down;
type = TopGhost;
}
);
layerId = "3FA0091B-41E8-4679-8383-4E36DA6A759B";
paths = (
{
closed = 1;
nodes = (
"371 -11 OFFCURVE",
"461 71 OFFCURVE",
"461 196 CURVE SMOOTH",
"461 450 OFFCURVE",
"117 340 OFFCURVE",
"117 547 CURVE SMOOTH",
"117 606 OFFCURVE",
"164 669 OFFCURVE",
"246 669 CURVE SMOOTH",
"316 669 OFFCURVE",
"381 617 OFFCURVE",
"397 517 CURVE",
"413 517 LINE",
"413 680 LINE",
"400 680 LINE",
"391 661 OFFCURVE",
"384 650 OFFCURVE",
"373 650 CURVE SMOOTH",
"354 650 OFFCURVE",
"317 690 OFFCURVE",
"248 690 CURVE SMOOTH",
"144 690 OFFCURVE",
"52 622 OFFCURVE",
"52 501 CURVE SMOOTH",
"52 249 OFFCURVE",
"396 364 OFFCURVE",
"396 147 CURVE SMOOTH",
"396 60 OFFCURVE",
"324 12 OFFCURVE",
"244 12 CURVE SMOOTH",
"168 12 OFFCURVE",
"76 71 OFFCURVE",
"62 200 CURVE",
"46 200 LINE",
"46 0 LINE",
"59 0 LINE",
"69 25 OFFCURVE",
"77 35 OFFCURVE",
"90 35 CURVE SMOOTH",
"113 35 OFFCURVE",
"159 -11 OFFCURVE",
"243 -11 CURVE SMOOTH"
);
}
);
width = 501;
}
);
leftKerningGroup = S;
note = S;
rightKerningGroup = S;
unicode = 0053;
},
{
glyphname = Germandbls;
lastChange = "2021-04-23 08:41:56 +0000";
layers = (
{
hints = (
{
horizontal = 1;
place = "{-11, 21}";
target = up;
type = BottomGhost;
},
{
horizontal = 1;
place = "{386, 242}";
type = Stem;
},
{
horizontal = 1;
place = "{665, 25}";
type = Stem;
},
{
place = "{86, 196}";
type = Stem;
},
{
place = "{531, 185}";
type = Stem;
},
{
horizontal = 1;
place = "{0, 21}";
target = up;
type = BottomGhost;
}
);
layerId = "1E8F490F-00FE-4BD6-A503-902369003CC3";
paths = (
{
closed = 1;
nodes = (
"595 -11 OFFCURVE",
"707 67 OFFCURVE",
"707 203 CURVE SMOOTH",
"707 310 OFFCURVE",
"640 372 OFFCURVE",
"507 390 CURVE",
"680 690 LINE",
"661 690 LINE",
"636 647 OFFCURVE",
"611 638 OFFCURVE",
"590 638 CURVE SMOOTH",
"529 638 OFFCURVE",
"475 690 OFFCURVE",
"366 690 CURVE SMOOTH",
"249 690 OFFCURVE",
"77 619 OFFCURVE",
"77 417 CURVE SMOOTH",
"77 86 LINE SMOOTH",
"77 34 OFFCURVE",
"42 16 OFFCURVE",
"6 16 CURVE",
"6 0 LINE",
"273 0 LINE",
"273 417 LINE SMOOTH",
"273 605 OFFCURVE",
"298 665 OFFCURVE",
"378 665 CURVE SMOOTH",
"416 665 OFFCURVE",
"451 650 OFFCURVE",
"482 636 CURVE",
"338 396 LINE",
"338 386 LINE",
"485 386 OFFCURVE",
"522 353 OFFCURVE",
"522 213 CURVE SMOOTH",
"522 85 OFFCURVE",
"508 16 OFFCURVE",
"449 16 CURVE SMOOTH",
"412 16 OFFCURVE",
"356 45 OFFCURVE",
"343 179 CURVE",
"326 179 LINE",
"326 31 LINE",
"357 9 OFFCURVE",
"403 -11 OFFCURVE",
"469 -11 CURVE SMOOTH"
);
}
);
width = 729;
},
{
hints = (
{
horizontal = 1;
place = "{-3, 18}";
type = Stem;
},
{
horizontal = 1;
place = "{386, 18}";
type = Stem;
},
{
horizontal = 1;
place = "{690, 16}";
type = Stem;
},
{
place = "{104, 37}";
type = Stem;
},
{
place = "{256, 18}";
type = Stem;
},
{
place = "{555, 41}";
type = Stem;
},
{
horizontal = 1;
place = "{8, 15}";
type = Stem;
}
);
layerId = "07AD8005-5D45-4A63-B3CF-4E1D9502446D";
paths = (
{
closed = 1;
nodes = (
"467 -11 OFFCURVE",
"561 58 OFFCURVE",
"561 201 CURVE SMOOTH",
"561 322 OFFCURVE",
"493 385 OFFCURVE",
"357 388 CURVE",
"512 668 LINE",
"505 668 LINE",
"500 664 OFFCURVE",
"494 662 OFFCURVE",
"486 662 CURVE SMOOTH",
"453 661 OFFCURVE",
"392 690 OFFCURVE",
"304 690 CURVE SMOOTH",
"169 690 OFFCURVE",
"77 630 OFFCURVE",
"77 427 CURVE SMOOTH",
"77 66 LINE SMOOTH",
"77 14 OFFCURVE",
"72 7 OFFCURVE",
"26 7 CURVE",
"26 0 LINE",
"106 0 LINE",
"106 427 LINE SMOOTH",
"106 614 OFFCURVE",
"173 682 OFFCURVE",
"302 682 CURVE SMOOTH",
"370 682 OFFCURVE",
"445 663 OFFCURVE",
"471 649 CURVE",
"325 386 LINE",
"325 378 LINE",
"464 378 OFFCURVE",
"528 343 OFFCURVE",
"528 208 CURVE SMOOTH",
"528 73 OFFCURVE",
"464 -1 OFFCURVE",
"374 -1 CURVE SMOOTH",
"317 -1 OFFCURVE",
"271 26 OFFCURVE",
"239 99 CURVE",
"229 99 LINE",
"229 41 LINE",
"267 13 OFFCURVE",
"312 -11 OFFCURVE",
"370 -11 CURVE SMOOTH"
);
}
);
width = 589;
},
{
hints = (
{
horizontal = 1;
place = "{-6, 21}";
target = up;
type = BottomGhost;
},
{
horizontal = 1;
place = "{673, 27}";
type = Stem;
},
{
place = "{111, 90}";
type = Stem;
},
{
place = "{525, 93}";
type = Stem;
},
{
horizontal = 1;
place = "{5, 21}";
target = up;
type = BottomGhost;
}
);
layerId = "3FA0091B-41E8-4679-8383-4E36DA6A759B";
paths = (
{
closed = 1;
nodes = (
"512 -11 OFFCURVE",
"589 67 OFFCURVE",
"589 203 CURVE SMOOTH",
"589 310 OFFCURVE",
"519 372 OFFCURVE",
"386 390 CURVE",
"545 674 LINE",
"530 681 LINE",
"519 675 OFFCURVE",
"506 673 OFFCURVE",
"490 673 CURVE SMOOTH",
"449 674 OFFCURVE",
"395 690 OFFCURVE",
"337 690 CURVE SMOOTH",
"197 690 OFFCURVE",
"87 632 OFFCURVE",
"87 427 CURVE SMOOTH",
"87 74 LINE SMOOTH",
"87 22 OFFCURVE",
"52 12 OFFCURVE",
"16 12 CURVE",
"16 0 LINE",
"172 0 LINE",
"172 427 LINE SMOOTH",
"172 615 OFFCURVE",
"253 668 OFFCURVE",
"333 668 CURVE SMOOTH",
"378 668 OFFCURVE",
"419 659 OFFCURVE",
"450 648 CURVE",
"307 386 LINE",
"307 376 LINE",
"454 376 OFFCURVE",
"501 343 OFFCURVE",
"501 203 CURVE SMOOTH",
"501 75 OFFCURVE",
"459 6 OFFCURVE",
"400 6 CURVE SMOOTH",
"357 6 OFFCURVE",
"315 46 OFFCURVE",
"276 109 CURVE",
"266 109 LINE",
"266 31 LINE",
"301 10 OFFCURVE",
"350 -11 OFFCURVE",
"401 -11 CURVE SMOOTH"
);
}
);
width = 632;
}
);
leftMetricsKey = "=U";
note = uni1E9E;
rightKerningGroup = B;
unicode = 1E9E;
},
{
glyphname = Schwa;
lastChange = "2021-04-23 08:41:56 +0000";
layers = (
{
hints = (
{
horizontal = 1;
place = "{-11, 25}";
type = Stem;
},
{
horizontal = 1;
place = "{331, 34}";
type = Stem;
},
{
horizontal = 1;
place = "{629, 61}";
type = Stem;
},
{
place = "{27, 215}";
type = Stem;
},
{
place = "{432, 216}";
type = Stem;
},
{
horizontal = 1;
place = "{631, 59}";
type = Stem;
}
);
layerId = "1E8F490F-00FE-4BD6-A503-902369003CC3";
paths = (
{
closed = 1;
nodes = (
"20 365 LINE",
"10 141 OFFCURVE",
"112 -11 OFFCURVE",
"329 -11 CURVE SMOOTH",
"523 -11 OFFCURVE",
"640 125 OFFCURVE",
"640 339 CURVE SMOOTH",
"640 553 OFFCURVE",
"523 690 OFFCURVE",
"329 690 CURVE SMOOTH",
"174 690 OFFCURVE",
"69 603 OFFCURVE",
"33 459 CURVE",
"57 459 LINE",
"82 564 OFFCURVE",
"166 631 OFFCURVE",
"263 631 CURVE SMOOTH",
"374 631 OFFCURVE",
"424 548 OFFCURVE",
"424 340 CURVE",
"424 298 LINE SMOOTH",
"424 77 OFFCURVE",
"388 14 OFFCURVE",
"325 14 CURVE SMOOTH",
"256 14 OFFCURVE",
"234 84 OFFCURVE",
"234 331 CURVE",
"433 331 LINE",
"432 365 LINE"
);
}
);
width = 659;
},
{
hints = (
{
horizontal = 1;
place = "{-3, 18}";
type = Stem;
},
{
horizontal = 1;
place = "{323, 18}";
type = Stem;
},
{
horizontal = 1;
place = "{680, 26}";
type = Stem;
},
{
place = "{44, 36}";
type = Stem;
},
{
place = "{612, 40}";
type = Stem;
}
);
layerId = "07AD8005-5D45-4A63-B3CF-4E1D9502446D";
paths = (
{
closed = 1;
nodes = (
"40 325 LINE",
"45 118 OFFCURVE",
"175 -11 OFFCURVE",
"334 -11 CURVE SMOOTH",
"499 -11 OFFCURVE",
"640 129 OFFCURVE",
"640 343 CURVE SMOOTH",
"640 557 OFFCURVE",
"497 690 OFFCURVE",
"335 690 CURVE SMOOTH",
"205 690 OFFCURVE",
"89 606 OFFCURVE",
"47 464 CURVE",
"56 464 LINE",
"94 597 OFFCURVE",
"212 672 OFFCURVE",
"329 672 CURVE SMOOTH",
"470 672 OFFCURVE",
"608 553 OFFCURVE",
"608 322 CURVE SMOOTH",
"608 318 LINE SMOOTH",
"608 133 OFFCURVE",
"487 -1 OFFCURVE",
"336 -1 CURVE SMOOTH",
"220 -1 OFFCURVE",
"77 88 OFFCURVE",
"68 315 CURVE",
"611 315 LINE",
"611 325 LINE"
);
}
);
width = 680;
},
{
hints = (
{
horizontal = 1;
place = "{-6, 21}";
target = up;
type = BottomGhost;
},
{
horizontal = 1;
place = "{315, 27}";
type = Stem;
},
{
horizontal = 1;
place = "{644, 56}";
type = Stem;
},
{
place = "{47, 96}";
type = Stem;
},
{
place = "{553, 95}";
type = Stem;
},
{
horizontal = 1;
place = "{317, 25}";
type = Stem;
}
);
layerId = "3FA0091B-41E8-4679-8383-4E36DA6A759B";
paths = (
{
closed = 1;
nodes = (
"34 332 LINE",
"36 120 OFFCURVE",
"162 -11 OFFCURVE",
"323 -11 CURVE SMOOTH",
"489 -11 OFFCURVE",
"630 135 OFFCURVE",
"630 349 CURVE SMOOTH",
"630 563 OFFCURVE",
"496 690 OFFCURVE",
"333 690 CURVE SMOOTH",
"203 690 OFFCURVE",
"87 603 OFFCURVE",
"45 460 CURVE",
"64 460 LINE",
"98 583 OFFCURVE",
"211 639 OFFCURVE",
"313 639 CURVE SMOOTH",
"432 639 OFFCURVE",
"540 553 OFFCURVE",
"540 344 CURVE SMOOTH",
"540 327 LINE",
"535 115 OFFCURVE",
"462 7 OFFCURVE",
"327 7 CURVE SMOOTH",
"213 7 OFFCURVE",
"132 90 OFFCURVE",
"125 312 CURVE",
"544 312 LINE",
"545 332 LINE"
);
}
);
width = 664;
}
);
leftKerningGroup = O;
leftMetricsKey = O;
note = uni018F;
rightKerningGroup = O;
rightMetricsKey = O;
unicode = 018F;
},
{
color = 4;
glyphname = T;
lastChange = "2021-04-23 08:36:14 +0000";
layers = (
{
anchors = (
{
name = bottom;
position = "{262, 0}";
},
{
name = bottomright;
position = "{353, 0}";
},
{
name = center;
position = "{262, 340}";
},
{
name = top;
position = "{262, 680}";
}
);
hints = (
{
horizontal = 1;
place = "{0, 21}";
target = up;
type = BottomGhost;
},
{
horizontal = 1;
place = "{507, -20}";
target = down;
type = TopGhost;
},
{
horizontal = 1;
place = "{645, 35}";
type = Stem;
},
{
place = "{157, 195}";
type = Stem;
}
);
layerId = "1E8F490F-00FE-4BD6-A503-902369003CC3";
paths = (
{
closed = 1;
nodes = (
"86 0 LINE",
"424 0 LINE",
"424 16 LINE",
"368 16 OFFCURVE",
"353 34 OFFCURVE",
"353 86 CURVE SMOOTH",
"353 645 LINE",
"378 645 LINE SMOOTH",
"456 645 OFFCURVE",
"479 608 OFFCURVE",
"479 507 CURVE",
"495 507 LINE",
"495 680 LINE",
"15 680 LINE",
"15 507 LINE",
"31 507 LINE",
"31 605 OFFCURVE",
"52 645 OFFCURVE",
"132 645 CURVE SMOOTH",
"157 645 LINE",
"157 86 LINE SMOOTH",
"157 34 OFFCURVE",
"142 16 OFFCURVE",
"86 16 CURVE"
);
}
);
width = 510;
},
{
anchors = (
{
name = bottom;
position = "{245, 0}";
},
{
name = bottomright;
position = "{259, 0}";
},
{
name = center;
position = "{245, 340}";
},
{
name = top;
position = "{245, 680}";
}
);
hints = (
{
horizontal = 1;
place = "{8, 21}";
target = up;
type = BottomGhost;
},
{
horizontal = 1;
place = "{688, -20}";
target = down;
type = TopGhost;
},
{
place = "{230, 37}";
type = Stem;
},
{
place = "{230, 224}";
type = Stem;
},
{
place = "{43, 224}";
type = Stem;
}
);
layerId = "07AD8005-5D45-4A63-B3CF-4E1D9502446D";
paths = (
{
closed = 1;
nodes = (
"179 0 LINE",
"310 0 LINE",
"310 7 LINE",
"264 7 OFFCURVE",
"259 14 OFFCURVE",
"259 66 CURVE SMOOTH",
"259 672 LINE",
"337 672 LINE SMOOTH",
"426 672 OFFCURVE",
"438 656 OFFCURVE",
"438 569 CURVE",
"446 569 LINE",
"446 680 LINE",
"43 680 LINE",
"43 569 LINE",
"51 569 LINE",
"51 654 OFFCURVE",
"61 672 OFFCURVE",
"152 672 CURVE SMOOTH",
"230 672 LINE",
"230 66 LINE SMOOTH",
"230 14 OFFCURVE",
"225 7 OFFCURVE",
"179 7 CURVE"
);
}
);
width = 489;
},
{
anchors = (
{
name = bottom;
position = "{245, 0}";
},
{
name = bottomright;
position = "{285, 0}";
},
{
name = center;
position = "{245, 340}";
},
{
name = top;
position = "{245, 680}";
}
);
hints = (
{
horizontal = 1;
place = "{5, 21}";
target = up;
type = BottomGhost;
},
{
horizontal = 1;
place = "{685, -20}";
target = down;
type = TopGhost;
},
{
place = "{227, 90}";
type = Stem;
}
);
layerId = "3FA0091B-41E8-4679-8383-4E36DA6A759B";
paths = (
{
closed = 1;
nodes = (
"129 0 LINE",
"356 0 LINE",
"356 12 LINE",
"300 12 OFFCURVE",
"285 22 OFFCURVE",
"285 74 CURVE SMOOTH",
"285 664 LINE",
"350 664 LINE SMOOTH",
"421 664 OFFCURVE",
"456 623 OFFCURVE",
"456 541 CURVE",
"472 541 LINE",
"472 680 LINE",
"13 680 LINE",
"13 541 LINE",
"29 541 LINE",
"29 623 OFFCURVE",
"64 664 OFFCURVE",
"135 664 CURVE SMOOTH",
"200 664 LINE",
"200 74 LINE SMOOTH",
"200 22 OFFCURVE",
"185 12 OFFCURVE",
"129 12 CURVE"
);
}
);
width = 485;
}
);
leftKerningGroup = T;
note = T;
rightKerningGroup = T;
rightMetricsKey = "=|";
unicode = 0054;
},
{
color = 4;
glyphname = Tbar;
lastChange = "2021-04-23 08:36:32 +0000";
layers = (
{
components = (
{
name = T;
}
);
hints = (
{
horizontal = 1;
place = "{0, 21}";
target = up;
type = BottomGhost;
},
{
horizontal = 1;
place = "{340, 35}";
type = Stem;
},
{
horizontal = 1;
place = "{507, -20}";
target = down;
type = TopGhost;
},
{
horizontal = 1;
place = "{645, 35}";
type = Stem;
},
{
place = "{157, 195}";
type = Stem;
}
);
layerId = "1E8F490F-00FE-4BD6-A503-902369003CC3";
paths = (
{
closed = 1;
nodes = (
"79 375 LINE",
"79 340 LINE",
"423 340 LINE",
"423 375 LINE"
);
}
);
width = 510;
},
{
components = (
{
name = T;
}
);
hints = (
{
horizontal = 1;
place = "{8, 21}";
target = up;
type = BottomGhost;
},
{
horizontal = 1;
place = "{688, -20}";
target = down;
type = TopGhost;
},
{
place = "{43, 224}";
type = Stem;
},
{
place = "{230, 37}";
type = Stem;
},
{
place = "{230, 224}";
type = Stem;
}
);
layerId = "07AD8005-5D45-4A63-B3CF-4E1D9502446D";
paths = (
{
closed = 1;
nodes = (
"105 363 LINE",
"105 353 LINE",
"384 353 LINE",
"384 363 LINE"
);
}
);
width = 489;
},
{
components = (
{
name = T;
}
);
hints = (
{
horizontal = 1;
place = "{5, 21}";
target = up;
type = BottomGhost;
},
{
horizontal = 1;
place = "{685, -20}";
target = down;
type = TopGhost;
},
{
place = "{227, 90}";
type = Stem;
}
);
layerId = "3FA0091B-41E8-4679-8383-4E36DA6A759B";
paths = (
{
closed = 1;
nodes = (
"84 369 LINE",
"84 347 LINE",
"403 347 LINE",
"403 369 LINE"
);
}
);
width = 485;
}
);
leftKerningGroup = T;
note = Tbar;
rightKerningGroup = T;
unicode = 0166;
},
{
color = 4;
glyphname = U;
lastChange = "2021-04-23 07:00:38 +0000";
layers = (
{
anchors = (
{
name = bottom;
position = "{332, 0}";
},
{
name = horn;
position = "{498, 680}";
},
{
name = ogonek;
position = "{384, 0}";
},
{
name = top;
position = "{332, 680}";
},
{
name = topright;
position = "{569, 680}";
}
);
hints = (
{
horizontal = 1;
place = "{-11, 60}";
type = Stem;
},
{
horizontal = 1;
place = "{680, -20}";
target = down;
type = TopGhost;
},
{
place = "{86, 195}";
type = Stem;
},
{
place = "{476, 31}";
type = Stem;
}
);
layerId = "1E8F490F-00FE-4BD6-A503-902369003CC3";
paths = (
{
closed = 1;
nodes = (
"447 -11 OFFCURVE",
"529 54 OFFCURVE",
"529 183 CURVE SMOOTH",
"529 588 LINE SMOOTH",
"529 656 OFFCURVE",
"547 664 OFFCURVE",
"601 664 CURVE",
"601 680 LINE",
"427 680 LINE",
"427 664 LINE",
"491 664 OFFCURVE",
"498 656 OFFCURVE",
"498 588 CURVE SMOOTH",
"498 185 LINE SMOOTH",
"498 98 OFFCURVE",
"453 49 OFFCURVE",
"383 49 CURVE SMOOTH",
"315 49 OFFCURVE",
"273 86 OFFCURVE",
"273 174 CURVE SMOOTH",
"273 594 LINE SMOOTH",
"273 646 OFFCURVE",
"288 664 OFFCURVE",
"344 664 CURVE",
"344 680 LINE",
"6 680 LINE",
"6 664 LINE",
"62 664 OFFCURVE",
"77 646 OFFCURVE",
"77 594 CURVE SMOOTH",
"77 162 LINE SMOOTH",
"77 76 OFFCURVE",
"140 -11 OFFCURVE",
"298 -11 CURVE SMOOTH"
);
}
);
width = 607;
},
{
anchors = (
{
name = bottom;
position = "{302, 0}";
},
{
name = horn;
position = "{478, 680}";
},
{
name = ogonek;
position = "{354, 0}";
},
{
name = top;
position = "{302, 680}";
},
{
name = topright;
position = "{539, 680}";
}
);
hints = (
{
horizontal = 1;
place = "{-3, 21}";
target = up;
type = BottomGhost;
},
{
horizontal = 1;
place = "{688, -20}";
target = down;
type = TopGhost;
},
{
place = "{104, 37}";
type = Stem;
}
);
layerId = "07AD8005-5D45-4A63-B3CF-4E1D9502446D";
paths = (
{
closed = 1;
nodes = (
"432 -11 OFFCURVE",
"505 92 OFFCURVE",
"505 221 CURVE SMOOTH",
"505 614 LINE SMOOTH",
"505 666 OFFCURVE",
"510 673 OFFCURVE",
"556 673 CURVE",
"556 680 LINE",
"444 680 LINE",
"444 673 LINE",
"490 673 OFFCURVE",
"495 666 OFFCURVE",
"495 614 CURVE SMOOTH",
"495 221 LINE SMOOTH",
"495 96 OFFCURVE",
"426 2 OFFCURVE",
"298 2 CURVE SMOOTH",
"167 2 OFFCURVE",
"106 86 OFFCURVE",
"106 188 CURVE SMOOTH",
"106 614 LINE SMOOTH",
"106 666 OFFCURVE",
"111 673 OFFCURVE",
"157 673 CURVE",
"157 680 LINE",
"26 680 LINE",
"26 673 LINE",
"72 673 OFFCURVE",
"77 666 OFFCURVE",
"77 614 CURVE SMOOTH",
"77 196 LINE SMOOTH",
"77 77 OFFCURVE",
"152 -11 OFFCURVE",
"283 -11 CURVE SMOOTH"
);
}
);
width = 582;
},
{
anchors = (
{
name = bottom;
position = "{332, 0}";
},
{
name = horn;
position = "{471, 680}";
},
{
name = ogonek;
position = "{384, 0}";
},
{
name = top;
position = "{332, 680}";
},
{
name = topright;
position = "{569, 680}";
}
);
hints = (
{
horizontal = 1;
place = "{-6, 38}";
type = Stem;
},
{
horizontal = 1;
place = "{685, -20}";
target = down;
type = TopGhost;
},
{
place = "{111, 90}";
type = Stem;
},
{
place = "{516, 28}";
type = Stem;
}
);
layerId = "3FA0091B-41E8-4679-8383-4E36DA6A759B";
paths = (
{
closed = 1;
nodes = (
"447 -11 OFFCURVE",
"525 64 OFFCURVE",
"525 193 CURVE SMOOTH",
"525 592 LINE SMOOTH",
"525 660 OFFCURVE",
"540 668 OFFCURVE",
"594 668 CURVE",
"594 680 LINE",
"431 680 LINE",
"431 668 LINE",
"495 668 OFFCURVE",
"502 660 OFFCURVE",
"502 592 CURVE SMOOTH",
"502 189 LINE SMOOTH",
"502 87 OFFCURVE",
"437 22 OFFCURVE",
"331 22 CURVE SMOOTH",
"242 22 OFFCURVE",
"172 72 OFFCURVE",
"172 160 CURVE SMOOTH",
"172 606 LINE SMOOTH",
"172 658 OFFCURVE",
"187 668 OFFCURVE",
"243 668 CURVE",
"243 680 LINE",
"16 680 LINE",
"16 668 LINE",
"72 668 OFFCURVE",
"87 658 OFFCURVE",
"87 606 CURVE SMOOTH",
"87 168 LINE SMOOTH",
"87 76 OFFCURVE",
"146 -11 OFFCURVE",
"298 -11 CURVE SMOOTH"
);
}
);
width = 610;
}
);
leftKerningGroup = U;
note = U;
rightKerningGroup = U;
rightMetricsKey = "=|";
unicode = 0055;
},
{
color = 4;
glyphname = Ubar;
lastChange = "2021-04-23 08:37:09 +0000";
layers = (
{
components = (
{
name = U;
}
);
hints = (
{
horizontal = 1;
place = "{-11, 60}";
type = Stem;
},
{
horizontal = 1;
place = "{340, 35}";
type = Stem;
},
{
horizontal = 1;
place = "{680, -20}";
target = down;
type = TopGhost;
},
{
place = "{86, 195}";
type = Stem;
},
{
place = "{476, 31}";
type = Stem;
}
);
layerId = "1E8F490F-00FE-4BD6-A503-902369003CC3";
paths = (
{
closed = 1;
nodes = (
"609 340 LINE",
"609 375 LINE",
"15 375 LINE",
"15 340 LINE"
);
}
);
width = 625;
},
{
components = (
{
name = U;
}
);
hints = (
{
horizontal = 1;
place = "{-3, 21}";
target = up;
type = BottomGhost;
},
{
horizontal = 1;
place = "{688, -20}";
target = down;
type = TopGhost;
},
{
place = "{104, 37}";
type = Stem;
}
);
layerId = "07AD8005-5D45-4A63-B3CF-4E1D9502446D";
paths = (
{
closed = 1;
nodes = (
"567 353 LINE",
"567 363 LINE",
"18 363 LINE",
"18 353 LINE"
);
}
);
width = 591;
},
{
components = (
{
name = U;
}
);
hints = (
{
horizontal = 1;
place = "{-6, 38}";
type = Stem;
},
{
horizontal = 1;
place = "{352, 27}";
type = Stem;
},
{
horizontal = 1;
place = "{685, -20}";
target = down;
type = TopGhost;
},
{
place = "{111, 90}";
type = Stem;
},
{
place = "{516, 28}";
type = Stem;
}
);
layerId = "3FA0091B-41E8-4679-8383-4E36DA6A759B";
paths = (
{
closed = 1;
nodes = (
"594 347 LINE",
"594 369 LINE",
"16 369 LINE",
"16 347 LINE"
);
}
);
width = 610;
}
);
leftKerningGroup = U;
note = uni0244;
rightKerningGroup = U;
unicode = 0244;
},
{
color = 6;
glyphname = Uhorn;
lastChange = "2021-04-23 08:41:56 +0000";
layers = (
{
anchors = (
{
name = bottom;
position = "{332, 0}";
},
{
name = horn;
position = "{498, 680}";
},
{
name = ogonek;
position = "{384, 0}";
},
{
name = top;
position = "{332, 680}";
},
{
name = topright;
position = "{569, 680}";
}
);
hints = (
{
horizontal = 1;
place = "{-11, 60}";
type = Stem;
},
{
horizontal = 1;
place = "{550, 21}";
type = Stem;
},
{
horizontal = 1;
place = "{664, 203}";
type = Stem;
},
{
place = "{86, 195}";
type = Stem;
},
{
place = "{476, 31}";
type = Stem;
},
{
place = "{573, 150}";
type = Stem;
},
{
horizontal = 1;
place = "{732, 135}";
type = Stem;
},
{
horizontal = 1;
place = "{618, 62}";
type = Stem;
},
{
horizontal = 1;
place = "{-11, 60}";
type = Stem;
},
{
horizontal = 1;
place = "{680, -20}";
target = down;
type = TopGhost;
},
{
place = "{86, 195}";
type = Stem;
},
{
place = "{476, 31}";
type = Stem;
}
);
layerId = "1E8F490F-00FE-4BD6-A503-902369003CC3";
paths = (
{
closed = 1;
nodes = (
"447 -11 OFFCURVE",
"529 57 OFFCURVE",
"529 186 CURVE SMOOTH",
"529 588 LINE SMOOTH",
"529 656 OFFCURVE",
"564 664 OFFCURVE",
"598 664 CURVE",
"598 680 LINE",
"427 680 LINE",
"427 664 LINE",
"471 664 OFFCURVE",
"498 656 OFFCURVE",
"498 588 CURVE SMOOTH",
"498 182 LINE SMOOTH",
"498 98 OFFCURVE",
"453 49 OFFCURVE",
"383 49 CURVE SMOOTH",
"315 49 OFFCURVE",
"273 86 OFFCURVE",
"273 154 CURVE SMOOTH",
"273 594 LINE SMOOTH",
"273 660 OFFCURVE",
"308 664 OFFCURVE",
"344 664 CURVE",
"344 680 LINE",
"6 680 LINE",
"6 664 LINE",
"42 664 OFFCURVE",
"77 660 OFFCURVE",
"77 594 CURVE SMOOTH",
"77 162 LINE SMOOTH",
"77 76 OFFCURVE",
"140 -11 OFFCURVE",
"298 -11 CURVE SMOOTH"
);
},
{
closed = 1;
nodes = (
"551 664 OFFCURVE",
"557 664 OFFCURVE",
"598 664 CURVE SMOOTH",
"675 664 OFFCURVE",
"750 684 OFFCURVE",
"750 747 CURVE SMOOTH",
"750 785 OFFCURVE",
"723 808 OFFCURVE",
"691 808 CURVE SMOOTH",
"660 808 OFFCURVE",
"635 786 OFFCURVE",
"635 753 CURVE SMOOTH",
"635 736 OFFCURVE",
"643 720 OFFCURVE",
"643 707 CURVE SMOOTH",
"643 678 OFFCURVE",
"611 680 OFFCURVE",
"583 680 CURVE",
"498 680 LINE",
"511 664 LINE"
);
}
);
width = 616;
},
{
anchors = (
{
name = bottom;
position = "{302, 0}";
},
{
name = horn;
position = "{478, 680}";
},
{
name = ogonek;
position = "{354, 0}";
},
{
name = top;
position = "{302, 680}";
},
{
name = topright;
position = "{539, 680}";
}
);
hints = (
{
horizontal = 1;
place = "{-3, 21}";
target = up;
type = BottomGhost;
},
{
horizontal = 1;
place = "{688, -20}";
target = down;
type = TopGhost;
},
{
horizontal = 1;
place = "{764, 73}";
type = Stem;
},
{
place = "{104, 37}";
type = Stem;
},
{
place = "{664, 21}";
type = Stem;
},
{
horizontal = 1;
place = "{679, 17}";
type = Stem;
},
{
horizontal = 1;
place = "{-3, 21}";
target = up;
type = BottomGhost;
},
{
horizontal = 1;
place = "{688, -20}";
target = down;
type = TopGhost;
},
{
place = "{104, 37}";
type = Stem;
}
);
layerId = "07AD8005-5D45-4A63-B3CF-4E1D9502446D";
paths = (
{
closed = 1;
nodes = (
"432 -11 OFFCURVE",
"505 92 OFFCURVE",
"505 221 CURVE SMOOTH",
"505 614 LINE SMOOTH",
"505 666 OFFCURVE",
"510 673 OFFCURVE",
"556 673 CURVE",
"556 680 LINE",
"444 680 LINE",
"444 673 LINE",
"490 673 OFFCURVE",
"495 666 OFFCURVE",
"495 614 CURVE SMOOTH",
"495 221 LINE SMOOTH",
"495 96 OFFCURVE",
"426 2 OFFCURVE",
"298 2 CURVE SMOOTH",
"167 2 OFFCURVE",
"106 86 OFFCURVE",
"106 188 CURVE SMOOTH",
"106 614 LINE SMOOTH",
"106 666 OFFCURVE",
"111 673 OFFCURVE",
"157 673 CURVE",
"157 680 LINE",
"26 680 LINE",
"26 673 LINE",
"72 673 OFFCURVE",
"77 666 OFFCURVE",
"77 614 CURVE SMOOTH",
"77 196 LINE SMOOTH",
"77 77 OFFCURVE",
"152 -11 OFFCURVE",
"283 -11 CURVE SMOOTH"
);
},
{
closed = 1;
nodes = (
"531 673 OFFCURVE",
"525 673 OFFCURVE",
"588 673 CURVE SMOOTH",
"628 673 OFFCURVE",
"654 686 OFFCURVE",
"654 719 CURVE SMOOTH",
"654 737 OFFCURVE",
"645 752 OFFCURVE",
"625 752 CURVE SMOOTH",
"610 752 OFFCURVE",
"602 743 OFFCURVE",
"602 731 CURVE SMOOTH",
"602 718 OFFCURVE",
"610 712 OFFCURVE",
"610 700 CURVE SMOOTH",
"610 686 OFFCURVE",
"593 680 OFFCURVE",
"569 680 CURVE",
"478 680 LINE",
"478 673 LINE"
);
}
);
width = 584;
},
{
anchors = (
{
name = bottom;
position = "{332, 0}";
},
{
name = horn;
position = "{471, 680}";
},
{
name = ogonek;
position = "{384, 0}";
},
{
name = top;
position = "{332, 680}";
},
{
name = topright;
position = "{569, 680}";
}
);
hints = (
{
horizontal = 1;
place = "{-6, 38}";
type = Stem;
},
{
horizontal = 1;
place = "{669, 196}";
type = Stem;
},
{
place = "{111, 90}";
type = Stem;
},
{
place = "{516, 28}";
type = Stem;
},
{
place = "{626, 107}";
type = Stem;
},
{
horizontal = 1;
place = "{758, 107}";
type = Stem;
},
{
horizontal = 1;
place = "{557, 133}";
type = Stem;
},
{
horizontal = 1;
place = "{673, 80}";
type = Stem;
},
{
horizontal = 1;
place = "{-6, 38}";
type = Stem;
},
{
horizontal = 1;
place = "{685, -20}";
target = down;
type = TopGhost;
},
{
place = "{111, 90}";
type = Stem;
},
{
place = "{516, 28}";
type = Stem;
}
);
layerId = "3FA0091B-41E8-4679-8383-4E36DA6A759B";
paths = (
{
closed = 1;
nodes = (
"447 -11 OFFCURVE",
"525 64 OFFCURVE",
"525 193 CURVE SMOOTH",
"525 592 LINE SMOOTH",
"525 660 OFFCURVE",
"560 664 OFFCURVE",
"594 664 CURVE",
"594 680 LINE",
"431 680 LINE",
"431 668 LINE",
"475 668 OFFCURVE",
"502 660 OFFCURVE",
"502 592 CURVE SMOOTH",
"502 189 LINE SMOOTH",
"502 87 OFFCURVE",
"437 22 OFFCURVE",
"331 22 CURVE SMOOTH",
"242 22 OFFCURVE",
"172 72 OFFCURVE",
"172 160 CURVE SMOOTH",
"172 606 LINE SMOOTH",
"172 671 OFFCURVE",
"207 668 OFFCURVE",
"243 668 CURVE",
"243 680 LINE",
"16 680 LINE",
"16 668 LINE",
"52 668 OFFCURVE",
"87 671 OFFCURVE",
"87 606 CURVE SMOOTH",
"87 168 LINE SMOOTH",
"87 76 OFFCURVE",
"146 -11 OFFCURVE",
"298 -11 CURVE SMOOTH"
);
},
{
closed = 1;
nodes = (
"526 664 OFFCURVE",
"537 664 OFFCURVE",
"594 664 CURVE SMOOTH",
"636 664 OFFCURVE",
"698 688 OFFCURVE",
"698 741 CURVE SMOOTH",
"698 773 OFFCURVE",
"676 793 OFFCURVE",
"649 793 CURVE SMOOTH",
"623 793 OFFCURVE",
"602 774 OFFCURVE",
"602 746 CURVE SMOOTH",
"602 732 OFFCURVE",
"608 719 OFFCURVE",
"608 708 CURVE SMOOTH",
"608 683 OFFCURVE",
"581 680 OFFCURVE",
"548 680 CURVE SMOOTH",
"476 680 LINE",
"492 664 LINE"
);
}
);
width = 610;
}
);
leftKerningGroup = U;
leftMetricsKey = U;
note = Uhorn;
rightKerningGroup = U;
unicode = 01AF;
},
{
color = 4;
glyphname = V;
lastChange = "2021-04-23 07:00:38 +0000";
layers = (
{
anchors = (
{
name = bottom;
position = "{290, 0}";
},
{
name = top;
position = "{296, 680}";
}
);
hints = (
{
horizontal = 1;
place = "{-7, 21}";
target = up;
type = BottomGhost;
},
{
horizontal = 1;
place = "{680, -20}";
target = down;
type = TopGhost;
}
);
layerId = "1E8F490F-00FE-4BD6-A503-902369003CC3";
paths = (
{
closed = 1;
nodes = (
"294 -7 LINE",
"494 543 LINE SMOOTH",
"531 644 OFFCURVE",
"543 664 OFFCURVE",
"599 664 CURVE",
"599 680 LINE",
"405 680 LINE",
"405 664 LINE",
"464 664 OFFCURVE",
"492 635 OFFCURVE",
"459 546 CURVE SMOOTH",
"370 303 LINE",
"368 303 LINE",
"289 553 LINE SMOOTH",
"261 640 OFFCURVE",
"272 664 OFFCURVE",
"333 664 CURVE",
"333 680 LINE",
"-12 680 LINE",
"-12 664 LINE",
"39 664 OFFCURVE",
"45 645 OFFCURVE",
"67 585 CURVE SMOOTH",
"280 -7 LINE"
);
}
);
width = 587;
},
{
anchors = (
{
name = bottom;
position = "{288, 0}";
},
{
name = top;
position = "{294, 680}";
}
);
hints = (
{
horizontal = 1;
place = "{-2, 21}";
target = up;
type = BottomGhost;
},
{
horizontal = 1;
place = "{688, -20}";
target = down;
type = TopGhost;
}
);
layerId = "07AD8005-5D45-4A63-B3CF-4E1D9502446D";
paths = (
{
closed = 1;
nodes = (
"292 -10 LINE",
"482 526 LINE SMOOTH",
"522 639 OFFCURVE",
"544 673 OFFCURVE",
"580 673 CURVE",
"580 680 LINE",
"463 680 LINE",
"463 673 LINE",
"512 673 OFFCURVE",
"516 650 OFFCURVE",
"473 528 CURVE SMOOTH",
"296 28 LINE",
"294 28 LINE",
"109 553 LINE SMOOTH",
"74 653 OFFCURVE",
"74 673 OFFCURVE",
"118 673 CURVE",
"118 680 LINE",
"-4 680 LINE",
"-4 673 LINE",
"31 673 OFFCURVE",
"43 656 OFFCURVE",
"77 559 CURVE SMOOTH",
"278 -10 LINE"
);
}
);
width = 576;
},
{
anchors = (
{
name = bottom;
position = "{325, 0}";
},
{
name = top;
position = "{331, 680}";
}
);
hints = (
{
horizontal = 1;
place = "{-5, 21}";
target = up;
type = BottomGhost;
},
{
horizontal = 1;
place = "{685, -20}";
target = down;
type = TopGhost;
}
);
layerId = "3FA0091B-41E8-4679-8383-4E36DA6A759B";
paths = (
{
closed = 1;
nodes = (
"309 -10 LINE",
"498 503 LINE SMOOTH",
"550 644 OFFCURVE",
"569 668 OFFCURVE",
"623 668 CURVE",
"623 680 LINE",
"453 680 LINE",
"453 668 LINE",
"508 668 OFFCURVE",
"522 634 OFFCURVE",
"487 537 CURVE SMOOTH",
"333 113 LINE",
"331 113 LINE",
"175 553 LINE SMOOTH",
"140 651 OFFCURVE",
"147 668 OFFCURVE",
"212 668 CURVE",
"212 680 LINE",
"-7 680 LINE",
"-7 668 LINE",
"32 668 OFFCURVE",
"47 659 OFFCURVE",
"68 603 CURVE SMOOTH",
"295 -10 LINE"
);
}
);
width = 616;
}
);
leftKerningGroup = V;
note = V;
rightKerningGroup = V;
rightMetricsKey = "=|";
unicode = 0056;
},
{
color = 4;
glyphname = W;
lastChange = "2021-04-23 07:00:38 +0000";
layers = (
{
anchors = (
{
name = bottom;
position = "{462, 0}";
},
{
name = top;
position = "{505, 680}";
}
);
hints = (
{
horizontal = 1;
place = "{-7, 21}";
target = up;
type = BottomGhost;
},
{
horizontal = 1;
place = "{680, -20}";
target = down;
type = TopGhost;
}
);
layerId = "1E8F490F-00FE-4BD6-A503-902369003CC3";
paths = (
{
closed = 1;
nodes = (
"263 -7 LINE",
"448 424 LINE",
"625 -7 LINE",
"639 -7 LINE",
"814 543 LINE SMOOTH",
"845 641 OFFCURVE",
"861 664 OFFCURVE",
"919 664 CURVE",
"919 680 LINE",
"728 680 LINE",
"728 664 LINE",
"787 664 OFFCURVE",
"807 636 OFFCURVE",
"779 546 CURVE SMOOTH",
"701 293 LINE",
"541 675 LINE",
"517 675 LINE",
"359 302 LINE",
"295 553 LINE SMOOTH",
"269 655 OFFCURVE",
"270 664 OFFCURVE",
"311 664 CURVE",
"311 680 LINE",
"-6 680 LINE",
"-6 664 LINE",
"45 664 OFFCURVE",
"58 633 OFFCURVE",
"67 603 CURVE SMOOTH",
"246 -7 LINE"
);
}
);
width = 913;
},
{
anchors = (
{
name = bottom;
position = "{446, 0}";
},
{
name = top;
position = "{452, 680}";
}
);
hints = (
{
horizontal = 1;
place = "{-2, 21}";
target = up;
type = BottomGhost;
},
{
horizontal = 1;
place = "{688, -20}";
target = down;
type = TopGhost;
}
);
layerId = "07AD8005-5D45-4A63-B3CF-4E1D9502446D";
paths = (
{
closed = 1;
nodes = (
"258 -10 LINE",
"443 634 LINE",
"642 -10 LINE",
"656 -10 LINE",
"804 526 LINE SMOOTH",
"835 638 OFFCURVE",
"856 673 OFFCURVE",
"894 673 CURVE",
"894 680 LINE",
"777 680 LINE",
"777 673 LINE",
"825 673 OFFCURVE",
"829 657 OFFCURVE",
"795 528 CURVE SMOOTH",
"659 24 LINE",
"458 678 LINE",
"447 678 LINE",
"261 26 LINE",
"109 553 LINE SMOOTH",
"79 655 OFFCURVE",
"80 673 OFFCURVE",
"124 673 CURVE",
"124 680 LINE",
"2 680 LINE",
"2 673 LINE",
"37 673 OFFCURVE",
"48 657 OFFCURVE",
"77 559 CURVE SMOOTH",
"244 -10 LINE"
);
}
);
width = 896;
},
{
anchors = (
{
name = bottom;
position = "{484, 0}";
},
{
name = top;
position = "{490, 680}";
}
);
hints = (
{
horizontal = 1;
place = "{-5, 21}";
target = up;
type = BottomGhost;
},
{
horizontal = 1;
place = "{685, -20}";
target = down;
type = TopGhost;
}
);
layerId = "3FA0091B-41E8-4679-8383-4E36DA6A759B";
paths = (
{
closed = 1;
nodes = (
"265 -10 LINE",
"459 553 LINE",
"660 -10 LINE",
"674 -10 LINE",
"829 535 LINE SMOOTH",
"858 638 OFFCURVE",
"883 668 OFFCURVE",
"938 668 CURVE",
"938 680 LINE",
"758 680 LINE",
"758 668 LINE",
"821 668 OFFCURVE",
"838 640 OFFCURVE",
"810 541 CURVE SMOOTH",
"696 134 LINE",
"501 679 LINE",
"483 679 LINE",
"294 121 LINE",
"181 553 LINE SMOOTH",
"154 658 OFFCURVE",
"156 668 OFFCURVE",
"218 668 CURVE",
"218 680 LINE",
"-1 680 LINE",
"-1 668 LINE",
"38 668 OFFCURVE",
"57 662 OFFCURVE",
"74 603 CURVE SMOOTH",
"251 -10 LINE"
);
}
);
width = 937;
}
);
leftKerningGroup = V;
note = W.ss11;
rightKerningGroup = V;
rightMetricsKey = "=|";
unicode = 0057;
},
{
color = 4;
glyphname = X;
lastChange = "2021-04-23 08:39:36 +0000";
layers = (
{
anchors = (
{
name = bottom;
position = "{310, 0}";
},
{
name = top;
position = "{316, 680}";
}
);
hints = (
{
horizontal = 1;
place = "{0, 21}";
target = up;
type = BottomGhost;
},
{
horizontal = 1;
place = "{680, -20}";
target = down;
type = TopGhost;
}
);
layerId = "1E8F490F-00FE-4BD6-A503-902369003CC3";
paths = (
{
closed = 1;
nodes = (
"668 0 LINE",
"668 16 LINE",
"626 16 OFFCURVE",
"599 34 OFFCURVE",
"566 99 CURVE SMOOTH",
"320 580 LINE SMOOTH",
"289 640 OFFCURVE",
"302 664 OFFCURVE",
"356 664 CURVE",
"356 680 LINE",
"6 680 LINE",
"6 664 LINE",
"52 664 OFFCURVE",
"73 644 OFFCURVE",
"111 567 CURVE SMOOTH",
"351 94 LINE SMOOTH",
"380 37 OFFCURVE",
"370 16 OFFCURVE",
"322 16 CURVE",
"322 0 LINE"
);
},
{
closed = 1;
nodes = (
"212 0 LINE",
"212 16 LINE",
"145 16 OFFCURVE",
"128 38 OFFCURVE",
"169 112 CURVE SMOOTH",
"263 283 LINE",
"247 314 LINE",
"131 114 LINE SMOOTH",
"87 38 OFFCURVE",
"55 16 OFFCURVE",
"0 16 CURVE",
"0 0 LINE"
);
},
{
closed = 1;
nodes = (
"505 572 LINE SMOOTH",
"550 648 OFFCURVE",
"569 664 OFFCURVE",
"618 664 CURVE",
"618 680 LINE",
"430 680 LINE",
"430 664 LINE",
"491 664 OFFCURVE",
"500 630 OFFCURVE",
"464 566 CURVE SMOOTH",
"388 432 LINE",
"403 402 LINE"
);
}
);
width = 668;
},
{
anchors = (
{
name = bottom;
position = "{304, 0}";
},
{
name = top;
position = "{310, 680}";
}
);
hints = (
{
horizontal = 1;
place = "{8, 21}";
target = up;
type = BottomGhost;
},
{
horizontal = 1;
place = "{688, -20}";
target = down;
type = TopGhost;
}
);
layerId = "07AD8005-5D45-4A63-B3CF-4E1D9502446D";
paths = (
{
closed = 1;
nodes = (
"602 0 LINE",
"602 7 LINE",
"564 7 OFFCURVE",
"538 22 OFFCURVE",
"489 98 CURVE SMOOTH",
"166 600 LINE SMOOTH",
"123 666 OFFCURVE",
"124 673 OFFCURVE",
"175 673 CURVE",
"175 680 LINE",
"37 680 LINE",
"37 673 LINE",
"80 673 OFFCURVE",
"92 666 OFFCURVE",
"153 572 CURVE SMOOTH",
"481 62 LINE SMOOTH",
"512 14 OFFCURVE",
"509 7 OFFCURVE",
"466 7 CURVE",
"466 0 LINE"
);
},
{
closed = 1;
nodes = (
"157 0 LINE",
"157 7 LINE",
"101 7 OFFCURVE",
"94 24 OFFCURVE",
"150 110 CURVE SMOOTH",
"312 356 LINE",
"306 365 LINE",
"138 112 LINE SMOOTH",
"87 35 OFFCURVE",
"64 7 OFFCURVE",
"14 7 CURVE",
"14 0 LINE"
);
},
{
closed = 1;
nodes = (
"458 574 LINE SMOOTH",
"510 651 OFFCURVE",
"531 673 OFFCURVE",
"578 673 CURVE",
"578 680 LINE",
"433 680 LINE",
"433 673 LINE",
"490 673 OFFCURVE",
"500 653 OFFCURVE",
"444 570 CURVE SMOOTH",
"311 371 LINE",
"317 363 LINE"
);
}
);
width = 616;
},
{
anchors = (
{
name = bottom;
position = "{296, 0}";
},
{
name = top;
position = "{302, 680}";
}
);
hints = (
{
horizontal = 1;
place = "{5, 21}";
target = up;
type = BottomGhost;
},
{
horizontal = 1;
place = "{685, -20}";
target = down;
type = TopGhost;
}
);
layerId = "3FA0091B-41E8-4679-8383-4E36DA6A759B";
paths = (
{
closed = 1;
nodes = (
"632 0 LINE",
"632 12 LINE",
"594 12 OFFCURVE",
"557 31 OFFCURVE",
"517 100 CURVE SMOOTH",
"234 583 LINE SMOOTH",
"195 650 OFFCURVE",
"198 668 OFFCURVE",
"256 668 CURVE",
"256 680 LINE",
"20 680 LINE",
"20 668 LINE",
"65 668 OFFCURVE",
"98 648 OFFCURVE",
"143 570 CURVE SMOOTH",
"420 94 LINE SMOOTH",
"456 32 OFFCURVE",
"452 12 OFFCURVE",
"400 12 CURVE",
"400 0 LINE"
);
},
{
closed = 1;
nodes = (
"207 0 LINE",
"207 12 LINE",
"139 12 OFFCURVE",
"129 34 OFFCURVE",
"174 111 CURVE SMOOTH",
"303 329 LINE",
"290 348 LINE",
"149 114 LINE SMOOTH",
"99 30 OFFCURVE",
"67 12 OFFCURVE",
"14 12 CURVE",
"14 0 LINE"
);
},
{
closed = 1;
nodes = (
"475 573 LINE SMOOTH",
"525 652 OFFCURVE",
"551 668 OFFCURVE",
"600 668 CURVE",
"600 680 LINE",
"411 680 LINE",
"411 668 LINE",
"475 668 OFFCURVE",
"490 642 OFFCURVE",
"444 567 CURVE SMOOTH",
"338 393 LINE",
"350 375 LINE"
);
}
);
width = 634;
}
);
leftKerningGroup = X;
note = X;
rightKerningGroup = X;
unicode = 0058;
},
{
color = 4;
glyphname = Y;
lastChange = "2021-04-23 07:00:38 +0000";
layers = (
{
anchors = (
{
name = bottom;
position = "{304, 0}";
},
{
name = top;
position = "{304, 680}";
},
{
name = topleft;
position = "{-34, 680}";
}
);
background = {
anchors = (
{
name = bottom;
position = "{300, 0}";
},
{
name = top;
position = "{300, 680}";
},
{
name = topleft;
position = "{638, 680}";
}
);
paths = (
{
closed = 1;
nodes = (
"475 16 LINE",
"419 16 OFFCURVE",
"404 34 OFFCURVE",
"404 86 CURVE SMOOTH",
"404 287 LINE",
"518 567 LINE SMOOTH",
"550 647 OFFCURVE",
"569 664 OFFCURVE",
"611 664 CURVE",
"611 680 LINE",
"284 680 LINE",
"284 664 LINE",
"343 664 OFFCURVE",
"351 652 OFFCURVE",
"322 574 CURVE SMOOTH",
"215 290 LINE",
"229 290 LINE",
"127 557 LINE SMOOTH",
"96 638 OFFCURVE",
"121 664 OFFCURVE",
"184 664 CURVE",
"184 680 LINE",
"-11 680 LINE",
"-11 664 LINE",
"40 664 OFFCURVE",
"58 639 OFFCURVE",
"97 540 CURVE SMOOTH",
"208 262 LINE",
"208 86 LINE SMOOTH",
"208 34 OFFCURVE",
"193 16 OFFCURVE",
"137 16 CURVE",
"137 0 LINE",
"475 0 LINE"
);
}
);
};
hints = (
{
horizontal = 1;
place = "{0, 21}";
target = up;
type = BottomGhost;
},
{
horizontal = 1;
place = "{680, -20}";
target = down;
type = TopGhost;
},
{
place = "{207, 195}";
type = Stem;
}
);
layerId = "1E8F490F-00FE-4BD6-A503-902369003CC3";
paths = (
{
closed = 1;
nodes = (
"466 0 LINE",
"466 16 LINE",
"410 16 OFFCURVE",
"395 34 OFFCURVE",
"395 86 CURVE SMOOTH",
"395 262 LINE",
"506 540 LINE SMOOTH",
"545 639 OFFCURVE",
"563 664 OFFCURVE",
"614 664 CURVE",
"614 680 LINE",
"419 680 LINE",
"419 664 LINE",
"482 664 OFFCURVE",
"507 638 OFFCURVE",
"476 557 CURVE SMOOTH",
"374 290 LINE",
"388 290 LINE",
"281 574 LINE SMOOTH",
"252 652 OFFCURVE",
"260 664 OFFCURVE",
"319 664 CURVE",
"319 680 LINE",
"-8 680 LINE",
"-8 664 LINE",
"34 664 OFFCURVE",
"53 647 OFFCURVE",
"85 567 CURVE SMOOTH",
"199 287 LINE",
"199 86 LINE SMOOTH",
"199 34 OFFCURVE",
"184 16 OFFCURVE",
"128 16 CURVE",
"128 0 LINE"
);
}
);
width = 606;
},
{
anchors = (
{
name = bottom;
position = "{262, 0}";
},
{
name = top;
position = "{262, 680}";
},
{
name = topleft;
position = "{-26, 680}";
}
);
background = {
paths = (
{
closed = 1;
nodes = (
"318 7 LINE",
"272 7 OFFCURVE",
"267 14 OFFCURVE",
"267 66 CURVE SMOOTH",
"267 274 LINE",
"421 567 LINE SMOOTH",
"476 671 OFFCURVE",
"479 673 OFFCURVE",
"513 673 CURVE",
"513 680 LINE",
"406 680 LINE",
"406 673 LINE",
"442 673 OFFCURVE",
"440 663 OFFCURVE",
"393 573 CURVE SMOOTH",
"240 278 LINE",
"247 278 LINE",
"112 547 LINE",
"61 654 OFFCURVE",
"60 673 OFFCURVE",
"117 673 CURVE",
"117 680 LINE",
"-8 680 LINE",
"-8 673 LINE",
"31 673 OFFCURVE",
"51 649 OFFCURVE",
"104 543 CURVE SMOOTH",
"238 275 LINE",
"238 66 LINE SMOOTH",
"238 14 OFFCURVE",
"233 7 OFFCURVE",
"187 7 CURVE",
"187 0 LINE",
"318 0 LINE"
);
}
);
};
hints = (
{
horizontal = 1;
place = "{8, 21}";
target = up;
type = BottomGhost;
},
{
horizontal = 1;
place = "{688, -20}";
target = down;
type = TopGhost;
},
{
place = "{257, 37}";
type = Stem;
}
);
layerId = "07AD8005-5D45-4A63-B3CF-4E1D9502446D";
paths = (
{
closed = 1;
nodes = (
"323 0 LINE",
"323 7 LINE",
"277 7 OFFCURVE",
"272 14 OFFCURVE",
"272 66 CURVE SMOOTH",
"272 275 LINE",
"410 543 LINE SMOOTH",
"464 649 OFFCURVE",
"483 673 OFFCURVE",
"522 673 CURVE",
"522 680 LINE",
"397 680 LINE",
"397 673 LINE",
"454 673 OFFCURVE",
"453 654 OFFCURVE",
"402 547 CURVE",
"263 278 LINE",
"270 278 LINE",
"121 573 LINE SMOOTH",
"75 663 OFFCURVE",
"72 673 OFFCURVE",
"108 673 CURVE",
"108 680 LINE",
"1 680 LINE",
"1 673 LINE",
"35 673 OFFCURVE",
"40 671 OFFCURVE",
"93 567 CURVE SMOOTH",
"243 274 LINE",
"243 66 LINE SMOOTH",
"243 14 OFFCURVE",
"238 7 OFFCURVE",
"192 7 CURVE",
"192 0 LINE"
);
}
);
width = 523;
},
{
anchors = (
{
name = bottom;
position = "{282, 0}";
},
{
name = top;
position = "{282, 680}";
},
{
name = topleft;
position = "{-29, 680}";
}
);
background = {
paths = (
{
closed = 1;
nodes = (
"391 12 LINE",
"335 12 OFFCURVE",
"320 22 OFFCURVE",
"320 74 CURVE SMOOTH",
"320 274 LINE",
"469 567 LINE SMOOTH",
"514 656 OFFCURVE",
"522 668 OFFCURVE",
"562 668 CURVE",
"562 680 LINE",
"365 680 LINE",
"365 668 LINE",
"422 668 OFFCURVE",
"417 643 OFFCURVE",
"383 574 CURVE SMOOTH",
"242 290 LINE",
"250 290 LINE",
"120 545 LINE SMOOTH",
"76 631 OFFCURVE",
"92 668 OFFCURVE",
"155 668 CURVE",
"155 680 LINE",
"-20 680 LINE",
"-20 668 LINE",
"21 668 OFFCURVE",
"41 644 OFFCURVE",
"94 543 CURVE SMOOTH",
"235 275 LINE",
"235 74 LINE SMOOTH",
"235 22 OFFCURVE",
"220 12 OFFCURVE",
"164 12 CURVE",
"164 0 LINE",
"391 0 LINE"
);
}
);
};
hints = (
{
horizontal = 1;
place = "{5, 21}";
target = up;
type = BottomGhost;
},
{
horizontal = 1;
place = "{685, -20}";
target = down;
type = TopGhost;
},
{
place = "{249, 90}";
type = Stem;
}
);
layerId = "3FA0091B-41E8-4679-8383-4E36DA6A759B";
paths = (
{
closed = 1;
nodes = (
"395 0 LINE",
"395 12 LINE",
"339 12 OFFCURVE",
"324 22 OFFCURVE",
"324 74 CURVE SMOOTH",
"324 275 LINE",
"465 543 LINE SMOOTH",
"518 644 OFFCURVE",
"538 668 OFFCURVE",
"579 668 CURVE",
"579 680 LINE",
"404 680 LINE",
"404 668 LINE",
"467 668 OFFCURVE",
"483 631 OFFCURVE",
"439 545 CURVE SMOOTH",
"309 290 LINE",
"317 290 LINE",
"176 574 LINE SMOOTH",
"142 643 OFFCURVE",
"137 668 OFFCURVE",
"194 668 CURVE",
"194 680 LINE",
"-3 680 LINE",
"-3 668 LINE",
"37 668 OFFCURVE",
"45 656 OFFCURVE",
"90 567 CURVE SMOOTH",
"239 274 LINE",
"239 74 LINE SMOOTH",
"239 22 OFFCURVE",
"224 12 OFFCURVE",
"168 12 CURVE",
"168 0 LINE"
);
}
);
width = 576;
}
);
leftKerningGroup = Y;
note = Y;
rightKerningGroup = Y;
rightMetricsKey = "=|";
unicode = 0059;
},
{
color = 4;
glyphname = Z;
lastChange = "2021-04-23 08:40:23 +0000";
layers = (
{
anchors = (
{
name = bottom;
position = "{275, 0}";
},
{
name = center;
position = "{275, 340}";
},
{
name = top;
position = "{275, 680}";
}
);
background = {
components = (
{
name = E;
transform = "{1, 0, 0, 1, -7, 0}";
}
);
};
hints = (
{
horizontal = 1;
place = "{0, 36}";
type = Stem;
},
{
horizontal = 1;
place = "{484, -20}";
target = down;
type = TopGhost;
},
{
horizontal = 1;
place = "{652, 28}";
type = Stem;
}
);
layerId = "1E8F490F-00FE-4BD6-A503-902369003CC3";
paths = (
{
closed = 1;
nodes = (
"506 0 LINE",
"506 196 LINE",
"490 196 LINE",
"490 73 OFFCURVE",
"458 36 OFFCURVE",
"340 36 CURVE SMOOTH",
"235 36 LINE",
"522 664 LINE",
"522 680 LINE",
"41 680 LINE",
"41 476 LINE",
"57 476 LINE",
"57 598 OFFCURVE",
"68 644 OFFCURVE",
"184 644 CURVE SMOOTH",
"340 644 LINE",
"309 667 LINE",
"8 16 LINE",
"8 0 LINE"
);
}
);
width = 550;
},
{
anchors = (
{
name = bottom;
position = "{254, 0}";
},
{
name = center;
position = "{254, 340}";
},
{
name = top;
position = "{254, 680}";
}
);
hints = (
{
horizontal = 1;
place = "{8, 21}";
target = up;
type = BottomGhost;
},
{
horizontal = 1;
place = "{688, -20}";
target = down;
type = TopGhost;
}
);
layerId = "07AD8005-5D45-4A63-B3CF-4E1D9502446D";
paths = (
{
closed = 1;
nodes = (
"475 0 LINE",
"475 127 LINE",
"465 127 LINE",
"465 23 OFFCURVE",
"439 10 OFFCURVE",
"330 10 CURVE SMOOTH",
"69 10 LINE",
"468 671 LINE",
"468 680 LINE",
"51 680 LINE",
"51 575 LINE",
"61 575 LINE",
"61 669 OFFCURVE",
"99 671 OFFCURVE",
"192 671 CURVE SMOOTH",
"457 671 LINE",
"438 678 LINE",
"33 6 LINE",
"33 0 LINE"
);
}
);
width = 508;
},
{
anchors = (
{
name = bottom;
position = "{263, 0}";
},
{
name = center;
position = "{263, 340}";
},
{
name = top;
position = "{263, 680}";
}
);
hints = (
{
horizontal = 1;
place = "{5, 27}";
type = Stem;
},
{
horizontal = 1;
place = "{685, -20}";
target = down;
type = TopGhost;
}
);
layerId = "3FA0091B-41E8-4679-8383-4E36DA6A759B";
paths = (
{
closed = 1;
nodes = (
"492 0 LINE",
"492 159 LINE",
"476 159 LINE",
"476 36 OFFCURVE",
"419 22 OFFCURVE",
"291 22 CURVE SMOOTH",
"131 22 LINE",
"498 668 LINE",
"498 680 LINE",
"37 680 LINE",
"37 533 LINE",
"53 533 LINE",
"53 644 OFFCURVE",
"81 658 OFFCURVE",
"237 658 CURVE SMOOTH",
"447 658 LINE",
"410 675 LINE",
"24 12 LINE",
"24 0 LINE"
);
}
);
width = 525;
}
);
leftKerningGroup = Z;
note = Z;
rightKerningGroup = Z;
unicode = 005A;
},
{
glyphname = Aring.ss02;
lastChange = "2021-04-23 08:41:56 +0000";
layers = (
{
anchors = (
{
name = bottom;
position = "{641, 0}";
},
{
name = center;
position = "{638, 340}";
},
{
name = ogonek;
position = "{953, 0}";
},
{
name = top;
position = "{681, 680}";
},
{
name = topleft;
position = "{487, 680}";
}
);
hints = (
{
horizontal = 1;
place = "{196, 32}";
type = Stem;
},
{
horizontal = 1;
place = "{659, 40}";
type = Stem;
},
{
horizontal = 1;
place = "{809, 40}";
type = Stem;
},
{
place = "{28, 42}";
type = Stem;
},
{
place = "{177, 41}";
type = Stem;
},
{
horizontal = 1;
place = "{0, 228}";
type = Stem;
},
{
horizontal = 1;
place = "{690, -20}";
target = down;
type = TopGhost;
},
{
horizontal = 1;
place = "{0, 228}";
type = Stem;
},
{
horizontal = 1;
place = "{690, -20}";
target = down;
type = TopGhost;
},
{
horizontal = 1;
place = "{196, 32}";
type = Stem;
},
{
horizontal = 1;
place = "{0, 228}";
type = Stem;
},
{
horizontal = 1;
place = "{690, -20}";
target = down;
type = TopGhost;
},
{
horizontal = 1;
place = "{196, 32}";
type = Stem;
}
);
layerId = "1E8F490F-00FE-4BD6-A503-902369003CC3";
paths = (
{
closed = 1;
nodes = (
"665 196 LINE",
"659 228 LINE",
"487 228 LINE",
"478 196 LINE"
);
},
{
closed = 1;
nodes = (
"591 524 LINE",
"576 524 LINE",
"671 127 LINE SMOOTH",
"692 39 OFFCURVE",
"684 16 OFFCURVE",
"655 16 CURVE SMOOTH",
"650 16 LINE",
"650 0 LINE",
"965 0 LINE",
"965 16 LINE",
"921 16 OFFCURVE",
"910 35 OFFCURVE",
"899 77 CURVE SMOOTH",
"730 702 LINE",
"711 702 LINE",
"688 626 OFFCURVE",
"636 591 OFFCURVE",
"582 577 CURVE",
"453 185 LINE",
"478 163 LINE"
);
},
{
closed = 1;
nodes = (
"173 0 LINE",
"173 16 LINE",
"162 16 LINE SMOOTH",
"118 16 OFFCURVE",
"101 53 OFFCURVE",
"129 143 CURVE SMOOTH",
"248 524 LINE",
"233 524 LINE",
"328 127 LINE SMOOTH",
"349 39 OFFCURVE",
"341 16 OFFCURVE",
"292 16 CURVE SMOOTH",
"281 16 LINE",
"281 0 LINE",
"606 0 LINE",
"606 16 LINE",
"578 16 OFFCURVE",
"567 35 OFFCURVE",
"556 77 CURVE SMOOTH",
"387 702 LINE",
"368 702 LINE",
"345 626 OFFCURVE",
"293 591 OFFCURVE",
"239 577 CURVE",
"107 177 LINE SMOOTH",
"57 25 OFFCURVE",
"33 16 OFFCURVE",
"-3 16 CURVE SMOOTH",
"-8 16 LINE",
"-8 0 LINE"
);
},
{
closed = 1;
nodes = (
"322 196 LINE",
"316 228 LINE",
"144 228 LINE",
"135 196 LINE"
);
}
);
width = 957;
},
{
anchors = (
{
name = bottom;
position = "{579, 0}";
},
{
name = center;
position = "{576, 340}";
},
{
name = ogonek;
position = "{871, 0}";
},
{
name = top;
position = "{599, 680}";
},
{
name = topleft;
position = "{405, 680}";
}
);
hints = (
{
horizontal = 1;
place = "{8, 21}";
target = up;
type = BottomGhost;
},
{
horizontal = 1;
place = "{698, -20}";
target = down;
type = TopGhost;
},
{
horizontal = 1;
place = "{802, 25}";
type = Stem;
},
{
place = "{237, 26}";
type = Stem;
},
{
place = "{355, 25}";
type = Stem;
},
{
horizontal = 1;
place = "{683, 24}";
type = Stem;
},
{
horizontal = 1;
place = "{8, 21}";
target = up;
type = BottomGhost;
},
{
horizontal = 1;
place = "{698, -20}";
target = down;
type = TopGhost;
},
{
horizontal = 1;
place = "{8, 21}";
target = up;
type = BottomGhost;
},
{
horizontal = 1;
place = "{698, -20}";
target = down;
type = TopGhost;
}
);
layerId = "07AD8005-5D45-4A63-B3CF-4E1D9502446D";
paths = (
{
closed = 1;
nodes = (
"685 220 LINE",
"682 228 LINE",
"377 228 LINE",
"374 220 LINE"
);
},
{
closed = 1;
nodes = (
"532 652 LINE",
"529 652 LINE",
"719 116 LINE SMOOTH",
"749 32 OFFCURVE",
"751 7 OFFCURVE",
"717 7 CURVE SMOOTH",
"701 7 LINE",
"701 0 LINE",
"829 0 LINE",
"829 7 LINE",
"794 7 OFFCURVE",
"787 13 OFFCURVE",
"752 110 CURVE SMOOTH",
"543 692 LINE",
"539 692 LINE",
"539 686 OFFCURVE",
"537 683 OFFCURVE",
"533 681 CURVE",
"408 332 LINE",
"413 321 LINE"
);
},
{
closed = 1;
nodes = (
"114 0 LINE",
"114 7 LINE",
"105 7 LINE SMOOTH",
"70 7 OFFCURVE",
"60 9 OFFCURVE",
"101 124 CURVE SMOOTH",
"291 652 LINE",
"288 652 LINE",
"478 116 LINE SMOOTH",
"508 32 OFFCURVE",
"510 7 OFFCURVE",
"476 7 CURVE SMOOTH",
"460 7 LINE",
"460 0 LINE",
"588 0 LINE",
"588 7 LINE",
"553 7 OFFCURVE",
"546 13 OFFCURVE",
"511 110 CURVE SMOOTH",
"302 692 LINE",
"298 692 LINE",
"298 686 OFFCURVE",
"296 683 OFFCURVE",
"292 681 CURVE",
"92 126 LINE SMOOTH",
"50 9 OFFCURVE",
"38 7 OFFCURVE",
"11 7 CURVE SMOOTH",
"6 7 LINE",
"6 0 LINE"
);
},
{
closed = 1;
nodes = (
"444 220 LINE",
"441 228 LINE",
"136 228 LINE",
"133 220 LINE"
);
}
);
width = 835;
},
{
anchors = (
{
name = bottom;
position = "{616, 0}";
},
{
name = center;
position = "{613, 340}";
},
{
name = ogonek;
position = "{928, 0}";
},
{
name = top;
position = "{651, 680}";
},
{
name = topleft;
position = "{472, 680}";
}
);
hints = (
{
horizontal = 1;
place = "{213, 25}";
type = Stem;
},
{
horizontal = 1;
place = "{673, 21}";
target = up;
type = BottomGhost;
},
{
horizontal = 1;
place = "{826, -20}";
target = down;
type = TopGhost;
},
{
horizontal = 1;
place = "{834, 34}";
type = Stem;
},
{
place = "{33, 36}";
type = Stem;
},
{
place = "{193, 35}";
type = Stem;
},
{
horizontal = 1;
place = "{5, 233}";
type = Stem;
},
{
horizontal = 1;
place = "{695, -20}";
target = down;
type = TopGhost;
},
{
horizontal = 1;
place = "{5, 233}";
type = Stem;
},
{
horizontal = 1;
place = "{695, -20}";
target = down;
type = TopGhost;
},
{
horizontal = 1;
place = "{5, 233}";
type = Stem;
},
{
horizontal = 1;
place = "{695, -20}";
target = down;
type = TopGhost;
}
);
layerId = "3FA0091B-41E8-4679-8383-4E36DA6A759B";
paths = (
{
closed = 1;
nodes = (
"712 238 LINE",
"705 258 LINE",
"441 258 LINE",
"435 238 LINE"
);
},
{
closed = 1;
nodes = (
"578 619 LINE",
"568 619 LINE",
"736 127 LINE SMOOTH",
"767 36 OFFCURVE",
"759 12 OFFCURVE",
"707 12 CURVE SMOOTH",
"696 12 LINE",
"696 0 LINE",
"915 0 LINE",
"915 12 LINE",
"876 12 OFFCURVE",
"863 21 OFFCURVE",
"843 77 CURVE SMOOTH",
"624 695 LINE",
"614 695 LINE",
"607 671 OFFCURVE",
"593 652 OFFCURVE",
"571 643 CURVE",
"454 311 LINE",
"467 294 LINE"
);
},
{
closed = 1;
nodes = (
"171 0 LINE",
"171 12 LINE",
"160 12 LINE SMOOTH",
"116 12 OFFCURVE",
"103 56 OFFCURVE",
"133 143 CURVE SMOOTH",
"295 619 LINE",
"285 619 LINE",
"453 127 LINE SMOOTH",
"484 36 OFFCURVE",
"476 12 OFFCURVE",
"424 12 CURVE SMOOTH",
"413 12 LINE",
"413 0 LINE",
"632 0 LINE",
"632 12 LINE",
"593 12 OFFCURVE",
"580 21 OFFCURVE",
"560 77 CURVE SMOOTH",
"341 695 LINE",
"331 695 LINE",
"324 671 OFFCURVE",
"310 652 OFFCURVE",
"288 643 CURVE",
"123 177 LINE SMOOTH",
"70 28 OFFCURVE",
"51 12 OFFCURVE",
"7 12 CURVE SMOOTH",
"2 12 LINE",
"2 0 LINE"
);
},
{
closed = 1;
nodes = (
"429 238 LINE",
"422 258 LINE",
"158 258 LINE",
"152 238 LINE"
);
}
);
width = 917;
}
);
leftKerningGroup = A;
leftMetricsKey = A;
note = Aring;
rightKerningGroup = A;
rightMetricsKey = A;
},
{
color = 4;
export = 0;
glyphname = Dhook;
lastChange = "2021-04-23 08:31:16 +0000";
layers = (
{
components = (
{
name = D;
transform = "{1, 0, 0, 1, 110, 0}";
}
);
hints = (
{
horizontal = 1;
place = "{0, 36}";
type = Stem;
},
{
horizontal = 1;
place = "{479, 95}";
type = Stem;
},
{
horizontal = 1;
place = "{656, 24}";
type = Stem;
},
{
place = "{0, 151}";
type = Stem;
},
{
place = "{198, 196}";
type = Stem;
},
{
place = "{519, 202}";
type = Stem;
},
{
place = "{0, 29}";
type = Stem;
}
);
layerId = "1E8F490F-00FE-4BD6-A503-902369003CC3";
paths = (
{
closed = 1;
nodes = (
"96 680 LINE SMOOTH",
"47 680 OFFCURVE",
"10 649 OFFCURVE",
"10 598 CURVE SMOOTH",
"10 532 OFFCURVE",
"52 479 OFFCURVE",
"107 479 CURVE SMOOTH",
"142 479 OFFCURVE",
"161 500 OFFCURVE",
"161 530 CURVE SMOOTH",
"161 568 OFFCURVE",
"132 574 OFFCURVE",
"100 574 CURVE SMOOTH",
"90 574 LINE SMOOTH",
"54 574 OFFCURVE",
"39 589 OFFCURVE",
"39 613 CURVE SMOOTH",
"39 636 OFFCURVE",
"55 656 OFFCURVE",
"91 656 CURVE SMOOTH",
"117 656 LINE SMOOTH",
"172 656 OFFCURVE",
"196 632 OFFCURVE",
"196 581 CURVE",
"224 680 LINE"
);
}
);
width = 785;
},
{
components = (
{
name = D;
transform = "{1, 0, 0, 1, 60, 0}";
}
);
hints = (
{
horizontal = 1;
place = "{8, 21}";
target = up;
type = BottomGhost;
},
{
horizontal = 1;
place = "{688, -20}";
target = down;
type = TopGhost;
},
{
place = "{104, 37}";
type = Stem;
},
{
place = "{547, 43}";
type = Stem;
}
);
layerId = "07AD8005-5D45-4A63-B3CF-4E1D9502446D";
paths = (
{
closed = 1;
nodes = (
"74 680 LINE SMOOTH",
"39 680 OFFCURVE",
"18 656 OFFCURVE",
"18 628 CURVE SMOOTH",
"18 599 OFFCURVE",
"41 575 OFFCURVE",
"65 575 CURVE SMOOTH",
"78 575 OFFCURVE",
"84 582 OFFCURVE",
"84 593 CURVE SMOOTH",
"84 606 OFFCURVE",
"74 608 OFFCURVE",
"63 608 CURVE SMOOTH",
"59 608 LINE SMOOTH",
"40 608 OFFCURVE",
"29 616 OFFCURVE",
"29 633 CURVE SMOOTH",
"29 652 OFFCURVE",
"44 671 OFFCURVE",
"72 671 CURVE SMOOTH",
"90 671 LINE SMOOTH",
"128 671 OFFCURVE",
"144 654 OFFCURVE",
"144 611 CURVE",
"146 680 LINE"
);
}
);
width = 663;
},
{
components = (
{
name = D;
transform = "{1, 0, 0, 1, 96, 0}";
}
);
hints = (
{
horizontal = 1;
place = "{5, 27}";
type = Stem;
},
{
horizontal = 1;
place = "{508, 83}";
type = Stem;
},
{
place = "{5, 133}";
type = Stem;
},
{
place = "{203, 90}";
type = Stem;
},
{
place = "{626, 96}";
type = Stem;
},
{
horizontal = 1;
place = "{508, 182}";
type = Stem;
},
{
place = "{5, 30}";
type = Stem;
}
);
layerId = "3FA0091B-41E8-4679-8383-4E36DA6A759B";
paths = (
{
closed = 1;
nodes = (
"99 680 LINE SMOOTH",
"55 680 OFFCURVE",
"22 653 OFFCURVE",
"22 603 CURVE SMOOTH",
"22 548 OFFCURVE",
"62 503 OFFCURVE",
"106 503 CURVE SMOOTH",
"134 503 OFFCURVE",
"150 520 OFFCURVE",
"150 545 CURVE SMOOTH",
"150 575 OFFCURVE",
"126 581 OFFCURVE",
"100 581 CURVE SMOOTH",
"92 581 LINE SMOOTH",
"63 581 OFFCURVE",
"47 595 OFFCURVE",
"47 621 CURVE SMOOTH",
"47 643 OFFCURVE",
"65 664 OFFCURVE",
"97 664 CURVE SMOOTH",
"130 664 LINE SMOOTH",
"177 664 OFFCURVE",
"198 643 OFFCURVE",
"198 597 CURVE",
"236 680 LINE"
);
}
);
width = 744;
}
);
leftKerningGroup = Bhook;
note = uni018A;
rightKerningGroup = O;
rightMetricsKey = O;
unicode = 018A;
},
{
color = 4;
export = 0;
glyphname = Fhook;
lastChange = "2021-04-23 08:13:37 +0000";
layers = (
{
anchors = (
{
name = bottomright;
position = "{282, 0}";
},
{
name = top;
position = "{264, 680}";
}
);
hints = (
{
horizontal = 1;
place = "{0, 21}";
target = up;
type = BottomGhost;
},
{
horizontal = 1;
place = "{340, 35}";
type = Stem;
},
{
horizontal = 1;
place = "{652, 28}";
type = Stem;
},
{
place = "{86, 196}";
type = Stem;
},
{
horizontal = 1;
place = "{0, 21}";
target = up;
type = BottomGhost;
},
{
horizontal = 1;
place = "{340, 35}";
type = Stem;
},
{
horizontal = 1;
place = "{652, 28}";
type = Stem;
},
{
place = "{86, 196}";
type = Stem;
}
);
layerId = "1E8F490F-00FE-4BD6-A503-902369003CC3";
paths = (
{
closed = 1;
nodes = (
"282 86 LINE",
"282 340 LINE",
"353 340 LINE SMOOTH",
"414 340 OFFCURVE",
"426 303 OFFCURVE",
"426 266 CURVE",
"442 266 LINE",
"442 440 LINE",
"426 440 LINE",
"426 391 OFFCURVE",
"409 375 OFFCURVE",
"352 375 CURVE SMOOTH",
"282 375 LINE",
"282 652 LINE",
"339 652 LINE SMOOTH",
"428 652 OFFCURVE",
"462 589 OFFCURVE",
"462 526 CURVE",
"478 526 LINE",
"478 680 LINE",
"15 680 LINE",
"15 664 LINE",
"51 664 OFFCURVE",
"86 646 OFFCURVE",
"86 594 CURVE SMOOTH",
"86 86 LINE"
);
},
{
closed = 1;
nodes = (
"86 -152 LINE SMOOTH",
"86 -176 OFFCURVE",
"75 -185 OFFCURVE",
"59 -185 CURVE SMOOTH",
"42 -185 OFFCURVE",
"34 -170 OFFCURVE",
"34 -141 CURVE SMOOTH",
"34 -119 LINE SMOOTH",
"34 -88 OFFCURVE",
"28 -58 OFFCURVE",
"-8 -58 CURVE SMOOTH",
"-41 -58 OFFCURVE",
"-61 -76 OFFCURVE",
"-61 -114 CURVE SMOOTH",
"-61 -164 OFFCURVE",
"-13 -203 OFFCURVE",
"60 -203 CURVE SMOOTH",
"152 -203 OFFCURVE",
"282 -125 OFFCURVE",
"282 52 CURVE SMOOTH",
"282 161 LINE",
"86 161 LINE"
);
}
);
width = 505;
},
{
anchors = (
{
name = bottomright;
position = "{113, 0}";
},
{
name = top;
position = "{221, 680}";
}
);
hints = (
{
horizontal = 1;
place = "{8, 21}";
target = up;
type = BottomGhost;
},
{
horizontal = 1;
place = "{688, -20}";
target = down;
type = TopGhost;
},
{
place = "{104, 37}";
type = Stem;
},
{
horizontal = 1;
place = "{8, 21}";
target = up;
type = BottomGhost;
},
{
horizontal = 1;
place = "{688, -20}";
target = down;
type = TopGhost;
},
{
place = "{104, 37}";
type = Stem;
}
);
layerId = "07AD8005-5D45-4A63-B3CF-4E1D9502446D";
paths = (
{
closed = 1;
nodes = (
"113 66 LINE",
"113 353 LINE",
"265 353 LINE SMOOTH",
"326 353 OFFCURVE",
"335 347 OFFCURVE",
"335 295 CURVE",
"344 295 LINE",
"344 416 LINE",
"335 416 LINE",
"335 367 OFFCURVE",
"321 361 OFFCURVE",
"264 361 CURVE SMOOTH",
"113 361 LINE",
"113 671 LINE",
"271 671 LINE SMOOTH",
"360 671 OFFCURVE",
"370 658 OFFCURVE",
"370 585 CURVE",
"380 585 LINE",
"380 680 LINE",
"33 680 LINE",
"33 673 LINE",
"79 673 OFFCURVE",
"84 666 OFFCURVE",
"84 614 CURVE SMOOTH",
"84 66 LINE"
);
},
{
closed = 1;
nodes = (
"84 -161 LINE SMOOTH",
"84 -180 OFFCURVE",
"74 -197 OFFCURVE",
"51 -197 CURVE SMOOTH",
"35 -197 OFFCURVE",
"26 -187 OFFCURVE",
"26 -170 CURVE SMOOTH",
"26 -160 LINE SMOOTH",
"26 -143 OFFCURVE",
"22 -131 OFFCURVE",
"8 -131 CURVE SMOOTH",
"-5 -131 OFFCURVE",
"-14 -140 OFFCURVE",
"-14 -157 CURVE SMOOTH",
"-14 -184 OFFCURVE",
"10 -203 OFFCURVE",
"49 -203 CURVE SMOOTH",
"84 -203 OFFCURVE",
"113 -185 OFFCURVE",
"113 -135 CURVE SMOOTH",
"113 150 LINE",
"84 150 LINE"
);
}
);
width = 408;
},
{
anchors = (
{
name = bottomright;
position = "{176, 0}";
},
{
name = top;
position = "{258, 680}";
}
);
hints = (
{
horizontal = 1;
place = "{5, 21}";
target = up;
type = BottomGhost;
},
{
horizontal = 1;
place = "{352, 26}";
type = Stem;
},
{
horizontal = 1;
place = "{685, -20}";
target = down;
type = TopGhost;
},
{
place = "{111, 90}";
type = Stem;
},
{
horizontal = 1;
place = "{5, 21}";
target = up;
type = BottomGhost;
},
{
horizontal = 1;
place = "{352, 26}";
type = Stem;
},
{
horizontal = 1;
place = "{685, -20}";
target = down;
type = TopGhost;
},
{
place = "{111, 90}";
type = Stem;
}
);
layerId = "3FA0091B-41E8-4679-8383-4E36DA6A759B";
paths = (
{
closed = 1;
nodes = (
"176 74 LINE",
"176 347 LINE",
"308 347 LINE SMOOTH",
"369 347 OFFCURVE",
"391 320 OFFCURVE",
"391 275 CURVE",
"407 275 LINE",
"407 432 LINE",
"391 432 LINE",
"391 375 OFFCURVE",
"364 368 OFFCURVE",
"307 368 CURVE SMOOTH",
"176 368 LINE",
"176 664 LINE",
"304 664 LINE SMOOTH",
"393 664 OFFCURVE",
"427 619 OFFCURVE",
"427 546 CURVE",
"443 546 LINE",
"443 680 LINE",
"20 680 LINE",
"20 668 LINE",
"56 668 OFFCURVE",
"91 658 OFFCURVE",
"91 606 CURVE SMOOTH",
"91 74 LINE"
);
},
{
closed = 1;
nodes = (
"91 -153 LINE SMOOTH",
"91 -177 OFFCURVE",
"83 -188 OFFCURVE",
"66 -188 CURVE SMOOTH",
"52 -188 OFFCURVE",
"42 -176 OFFCURVE",
"42 -152 CURVE SMOOTH",
"42 -135 LINE SMOOTH",
"42 -110 OFFCURVE",
"36 -86 OFFCURVE",
"8 -86 CURVE SMOOTH",
"-19 -86 OFFCURVE",
"-36 -100 OFFCURVE",
"-36 -131 CURVE SMOOTH",
"-36 -171 OFFCURVE",
"6 -203 OFFCURVE",
"65 -203 CURVE SMOOTH",
"123 -203 OFFCURVE",
"176 -156 OFFCURVE",
"176 -61 CURVE SMOOTH",
"176 140 LINE",
"91 140 LINE"
);
}
);
width = 468;
}
);
note = uni0191;
unicode = 0191;
},
{
export = 0;
glyphname = Nhookleft;
lastChange = "2021-04-23 08:26:53 +0000";
layers = (
{
hints = (
{
horizontal = 1;
place = "{-203, 24}";
type = Stem;
},
{
horizontal = 1;
place = "{-6, 21}";
target = up;
type = BottomGhost;
},
{
horizontal = 1;
place = "{680, -20}";
target = down;
type = TopGhost;
},
{
place = "{-68, 95}";
type = Stem;
},
{
place = "{79, 35}";
type = Stem;
},
{
place = "{509, 35}";
type = Stem;
},
{
horizontal = 1;
place = "{-203, 145}";
type = Stem;
}
);
layerId = "1E8F490F-00FE-4BD6-A503-902369003CC3";
paths = (
{
closed = 1;
nodes = (
"98 -203 OFFCURVE",
"114 -168 OFFCURVE",
"114 -131 CURVE SMOOTH",
"114 548 LINE",
"115 548 LINE",
"530 -6 LINE",
"544 -6 LINE",
"544 594 LINE SMOOTH",
"544 646 OFFCURVE",
"570 664 OFFCURVE",
"606 664 CURVE",
"606 680 LINE",
"445 680 LINE",
"445 664 LINE",
"481 664 OFFCURVE",
"509 646 OFFCURVE",
"509 594 CURVE SMOOTH",
"509 352 LINE",
"508 352 LINE",
"260 680 LINE",
"15 680 LINE",
"15 664 LINE",
"51 664 OFFCURVE",
"79 642 OFFCURVE",
"79 594 CURVE SMOOTH",
"79 -146 LINE SMOOTH",
"79 -170 OFFCURVE",
"68 -179 OFFCURVE",
"52 -179 CURVE SMOOTH",
"35 -179 OFFCURVE",
"27 -164 OFFCURVE",
"27 -135 CURVE SMOOTH",
"27 -119 LINE SMOOTH",
"27 -88 OFFCURVE",
"21 -58 OFFCURVE",
"-15 -58 CURVE SMOOTH",
"-48 -58 OFFCURVE",
"-68 -76 OFFCURVE",
"-68 -114 CURVE SMOOTH",
"-68 -164 OFFCURVE",
"-40 -203 OFFCURVE",
"33 -203 CURVE SMOOTH"
);
}
);
width = 621;
},
{
hints = (
{
horizontal = 1;
place = "{2, 21}";
target = up;
type = BottomGhost;
},
{
horizontal = 1;
place = "{688, -20}";
target = down;
type = TopGhost;
}
);
layerId = "07AD8005-5D45-4A63-B3CF-4E1D9502446D";
paths = (
{
closed = 1;
nodes = (
"94 -203 OFFCURVE",
"114 -182 OFFCURVE",
"114 -147 CURVE SMOOTH",
"114 639 LINE",
"115 639 LINE",
"537 -6 LINE",
"546 -6 LINE",
"546 614 LINE SMOOTH",
"546 666 OFFCURVE",
"551 673 OFFCURVE",
"597 673 CURVE",
"597 680 LINE",
"485 680 LINE",
"485 673 LINE",
"531 673 OFFCURVE",
"536 666 OFFCURVE",
"536 614 CURVE SMOOTH",
"536 51 LINE",
"535 51 LINE",
"125 680 LINE",
"53 680 LINE",
"53 673 LINE",
"99 673 OFFCURVE",
"104 666 OFFCURVE",
"104 614 CURVE SMOOTH",
"104 -148 LINE SMOOTH",
"104 -176 OFFCURVE",
"90 -191 OFFCURVE",
"70 -191 CURVE SMOOTH",
"54 -191 OFFCURVE",
"40 -181 OFFCURVE",
"40 -162 CURVE SMOOTH",
"40 -158 LINE SMOOTH",
"40 -147 OFFCURVE",
"38 -137 OFFCURVE",
"25 -137 CURVE SMOOTH",
"14 -137 OFFCURVE",
"7 -143 OFFCURVE",
"7 -155 CURVE SMOOTH",
"7 -180 OFFCURVE",
"37 -203 OFFCURVE",
"66 -203 CURVE SMOOTH"
);
}
);
width = 650;
},
{
hints = (
{
horizontal = 1;
place = "{-198, 122}";
type = Stem;
},
{
horizontal = 1;
place = "{-1, 21}";
target = up;
type = BottomGhost;
},
{
horizontal = 1;
place = "{685, -20}";
target = down;
type = TopGhost;
},
{
place = "{-36, 83}";
type = Stem;
},
{
place = "{91, 28}";
type = Stem;
},
{
place = "{533, 28}";
type = Stem;
}
);
layerId = "3FA0091B-41E8-4679-8383-4E36DA6A759B";
paths = (
{
closed = 1;
nodes = (
"90 -203 OFFCURVE",
"114 -190 OFFCURVE",
"114 -151 CURVE SMOOTH",
"114 599 LINE",
"115 599 LINE",
"542 -6 LINE",
"556 -6 LINE",
"556 598 LINE SMOOTH",
"556 650 OFFCURVE",
"582 668 OFFCURVE",
"618 668 CURVE",
"618 680 LINE",
"469 680 LINE",
"469 668 LINE",
"505 668 OFFCURVE",
"533 650 OFFCURVE",
"533 598 CURVE SMOOTH",
"533 165 LINE",
"532 165 LINE",
"171 680 LINE",
"27 680 LINE",
"27 668 LINE",
"63 668 OFFCURVE",
"91 646 OFFCURVE",
"91 598 CURVE SMOOTH",
"91 -155 LINE SMOOTH",
"91 -175 OFFCURVE",
"79 -185 OFFCURVE",
"66 -185 CURVE SMOOTH",
"52 -185 OFFCURVE",
"42 -174 OFFCURVE",
"42 -150 CURVE SMOOTH",
"42 -135 LINE SMOOTH",
"42 -110 OFFCURVE",
"36 -86 OFFCURVE",
"8 -86 CURVE SMOOTH",
"-19 -86 OFFCURVE",
"-36 -100 OFFCURVE",
"-36 -131 CURVE SMOOTH",
"-36 -171 OFFCURVE",
"6 -203 OFFCURVE",
"65 -203 CURVE SMOOTH"
);
}
);
width = 645;
}
);
note = uni019D;
rightKerningGroup = N;
unicode = 019D;
},
